<svg width="153" height="134" viewBox="0 0 153 134" fill="none" xmlns="http://www.w3.org/2000/svg">
<g clip-path="url(#clip0_905_46268)">
<path d="M147.875 96.3663C145.384 90.7015 140.601 85.9738 134.856 83.6477C128.871 81.2245 121.999 82.106 115.696 81.2948C110.221 80.59 106.272 78.1461 103.002 73.8008C99.8701 69.6374 97.0614 65.0266 91.9411 63.1004C87.8944 61.5783 83.2939 62.0009 79.2721 63.5861C71.8619 66.5084 66.2642 72.721 61.55 78.9108C57.246 84.5623 53.7357 90.75 45.7747 90.9515C37.8085 91.153 30.2247 86.6094 22.2048 87.8132C11.6046 89.4046 2.77552 98.2295 0.925808 108.735C-0.808171 118.58 3.54228 128.131 11.0166 133.741H139.486C148.904 123.75 153.847 109.949 147.875 96.3663Z" fill="#B8D0FF"/>
<path d="M31.7405 133.742H32.0939C34.5481 131.044 36.4712 127.771 37.6927 124.138C39.6705 118.257 39.5878 112.085 37.4581 106.759C36.3824 104.067 34.8282 101.559 33.3247 99.1328C31.8004 96.6724 30.2246 94.1283 29.155 91.4023C28.7128 90.2749 28.3862 89.0648 28.1899 87.8299C28.101 87.8186 28.0122 87.8093 27.9243 87.7979C28.1217 89.0772 28.4575 90.3307 28.9153 91.4963C29.9931 94.244 31.5762 96.7985 33.1066 99.2682C34.604 101.684 36.1519 104.184 37.2194 106.854C39.3264 112.123 39.408 118.231 37.4488 124.055C36.2108 127.733 34.2474 131.038 31.7405 133.742Z" fill="white"/>
<path d="M138.865 122.537C141.513 123.102 144.063 123.607 146.53 123.925C146.572 123.844 146.613 123.762 146.655 123.68C144.167 123.364 141.592 122.855 138.919 122.284C134.847 121.417 130.441 120.478 126.07 120.478C123.364 120.478 120.672 120.837 118.082 121.797C117.101 122.161 116.155 122.622 115.255 123.172C112.916 122.176 110.565 121.088 108.237 119.893C109.927 118.62 111.635 117.374 113.361 116.169C126.172 107.223 137.996 102.151 149.419 100.712C149.396 100.628 149.372 100.544 149.349 100.461C137.895 101.911 126.046 106.997 113.214 115.957C111.451 117.188 109.708 118.462 107.983 119.762C105.365 118.409 102.777 116.922 100.272 115.281C95.7295 112.305 90.3271 108.057 85.6088 102.412C103.894 100.36 122.51 97.776 137.713 87.6149C138.291 87.2295 138.93 86.7738 139.593 86.2581C139.519 86.2065 139.445 86.1548 139.371 86.1031C138.737 86.595 138.124 87.029 137.57 87.4C122.372 97.5579 103.72 100.123 85.4124 102.174C82.0778 98.1407 79.0986 93.4038 77.0288 87.9198C73.8037 79.377 73.9742 70.9944 77.4959 64.9192C77.6488 64.6557 77.81 64.3953 77.9764 64.139C77.8297 64.2062 77.6839 64.2765 77.5382 64.3467C77.4473 64.4935 77.3584 64.6413 77.2727 64.7901C73.7117 70.9324 73.535 79.3956 76.787 88.0107C78.8465 93.4648 81.7988 98.1831 85.1055 102.208C84.0453 102.327 82.9851 102.444 81.929 102.56C78.1169 102.981 74.1736 103.416 70.3461 103.909C68.9489 104.089 67.5281 104.299 66.1134 104.562C63.0826 98.1645 59.7531 91.924 55.4491 86.5712C55.3871 86.6322 55.3251 86.6921 55.2631 86.7531C59.5299 92.0646 62.8387 98.2596 65.852 104.612C59.6849 105.788 53.6966 107.999 50.4993 113.145C47.5129 117.951 47.516 124.595 50.5076 132.891C50.6109 133.178 50.7174 133.46 50.8259 133.741H51.1028C50.984 133.434 50.8662 133.123 50.7515 132.803C47.7878 124.584 47.7775 118.016 50.7194 113.281C53.8795 108.195 59.8347 106.014 65.9677 104.851C67.0383 107.114 68.0716 109.397 69.0988 111.665L69.2104 111.912C72.7786 119.789 76.4687 127.389 81.2997 133.741H81.6221C76.7467 127.378 73.0359 119.732 69.445 111.806L69.3334 111.559C68.3145 109.31 67.2894 107.047 66.2291 104.803C67.6159 104.547 69.0099 104.341 70.3802 104.165C74.2057 103.672 78.1469 103.237 81.959 102.817C83.0719 102.694 84.1879 102.571 85.3039 102.446C90.0677 108.179 95.5394 112.486 100.134 115.496C102.611 117.119 105.169 118.592 107.758 119.933C103.363 123.258 99.089 126.755 94.9152 130.169C93.4696 131.351 92.0084 132.545 90.5348 133.74H90.944C92.3339 132.613 93.7134 131.485 95.0785 130.369C99.2812 126.931 103.586 123.408 108.012 120.066C110.328 121.257 112.665 122.343 114.991 123.338C111.81 125.362 109.216 128.496 107.648 132.301C107.452 132.777 107.28 133.258 107.122 133.741H107.394C107.544 133.292 107.704 132.843 107.887 132.399C109.459 128.584 112.074 125.452 115.281 123.461C121.783 126.223 128.172 128.274 133.663 129.898L133.87 129.959C136.184 130.643 138.55 131.345 140.643 132.47C140.702 132.403 140.761 132.337 140.819 132.27C138.691 131.115 136.291 130.404 133.943 129.711L133.737 129.65C128.302 128.042 121.985 126.017 115.553 123.296C116.392 122.797 117.269 122.376 118.176 122.039C124.875 119.557 132.308 121.14 138.865 122.537Z" fill="white"/>
<path d="M11.6645 105.804C12.8053 110.475 12.2969 115.519 10.2674 119.643C8.9385 122.344 7.01955 124.79 4.65625 126.89C4.70275 126.963 4.75132 127.036 4.79885 127.108C7.20038 124.98 9.15034 122.499 10.4989 119.757C12.5542 115.579 13.0699 110.471 11.9146 105.742C11.0125 102.048 9.19787 98.9189 6.6899 96.6548C6.6341 96.7209 6.5783 96.7871 6.52353 96.8532C8.98913 99.0822 10.7748 102.164 11.6645 105.804Z" fill="white"/>
<path d="M70.1341 46.6378C72.3848 48.937 73.3933 52.8121 72.1523 56.3834C70.9505 59.8421 68.3164 62.7066 65.1523 64.5491C62.6061 66.0309 59.2849 66.8483 56.781 65.2962C54.9096 64.1367 53.9393 61.8613 53.8856 59.6613C53.8318 57.4602 54.5717 55.316 55.4862 53.3133C56.7759 50.4912 58.5109 47.7538 61.0964 46.0374C64.6594 43.671 67.9703 44.4264 70.1341 46.6378Z" fill="#B8D0FF"/>
<path d="M146.334 23.1483C145.127 19.1357 143.005 15.4518 139.967 12.0841C136.922 8.71637 132.77 5.9356 127.51 3.73661C122.251 1.53761 115.568 0.438118 107.462 0.438118C100.995 0.438118 94.4057 1.31027 87.6919 3.05459C80.972 4.8051 75.1438 7.29447 70.1992 10.5299L76.635 28.1983L73.1856 30.9925L78.1881 32.463C83.1255 29.8786 87.6248 28.002 91.6838 26.8333C95.7367 25.6707 100.044 25.0889 104.61 25.0889C109.17 25.0889 112.624 26.1884 114.969 28.3874C117.313 30.5926 118.483 33.2401 118.483 36.3495C118.483 40.1026 117.276 43.4332 114.876 46.3462C112.463 49.2592 109.802 52.2033 106.887 55.1794C104.863 57.2461 102.896 59.381 100.995 61.58C99.0961 63.7852 97.4128 66.1423 95.9588 68.6699C94.4987 71.1913 93.3289 73.908 92.4444 76.821C91.5536 79.7341 91.1144 83.0005 91.1144 86.6214C91.1144 87.7902 91.1392 89.18 91.2074 90.7983C91.2188 91.0969 91.2343 91.3873 91.2519 91.6746H86.5232L91.6838 95.1642H116.776C116.646 94.3871 116.584 93.4829 116.584 92.4475C116.584 91.4111 116.584 90.634 116.584 90.1163C116.584 87.9173 117.029 85.7503 117.914 83.6144C118.798 81.4784 119.912 79.4437 121.243 77.4979C122.573 75.5583 124.059 73.7127 125.71 71.9694C127.356 70.2189 128.941 68.5697 130.463 67.0155C132.486 64.9488 134.578 62.7508 136.731 60.4185C138.885 58.0872 140.79 55.6351 142.436 53.0444C144.082 50.4538 145.443 47.642 146.52 44.5967C147.597 41.5576 148.141 38.2271 148.141 34.6C148.141 30.977 147.535 27.1608 146.334 23.1483Z" fill="#E49B31"/>
<path d="M99.2976 23.8551C94.7849 23.8551 90.5285 24.4172 86.5232 25.5426C82.5117 26.6741 78.0662 28.4897 73.1856 30.9915L65.2908 9.76523C70.1765 6.63415 75.9375 4.22435 82.5789 2.53067C89.2141 0.844225 95.7263 -3.05176e-05 102.117 -3.05176e-05C110.127 -3.05176e-05 116.732 1.06433 121.93 3.19202C127.128 5.31971 131.232 8.01058 134.241 11.2698C137.244 14.529 139.34 18.0941 140.533 21.9775C141.719 25.8609 142.318 29.5541 142.318 33.0582C142.318 36.5685 141.78 39.7916 140.717 42.7325C139.652 45.6797 138.307 48.4016 136.68 50.9085C135.054 53.4154 133.17 55.788 131.042 58.0449C128.915 60.3017 126.847 62.4294 124.847 64.429C123.343 65.9335 121.777 67.5291 120.151 69.2238C118.518 70.9113 117.051 72.6969 115.735 74.5745C114.421 76.4583 113.319 78.4269 112.445 80.4936C111.571 82.5603 111.131 84.6581 111.131 86.7857C111.131 87.2869 111.131 88.0392 111.131 89.0426C111.131 90.046 111.192 90.9202 111.32 91.6725H86.5232C86.2659 90.419 86.114 89.0126 86.052 87.4471C85.9848 85.8815 85.96 84.5361 85.96 83.4046C85.96 79.9005 86.3941 76.7394 87.2745 73.9194C88.1487 71.1004 89.305 68.4705 90.7476 66.0307C92.185 63.5847 93.8477 61.3041 95.7253 59.1692C97.6029 57.0415 99.5477 54.9737 101.547 52.9742C104.427 50.0942 107.057 47.2442 109.442 44.4252C111.815 41.6062 113.007 38.3831 113.007 34.7509C113.007 31.7417 111.852 29.18 109.534 27.0461C107.217 24.9195 103.804 23.8551 99.2976 23.8551Z" fill="#FBC343"/>
<path d="M118.492 119.52C118.492 124.044 117.028 127.534 114.099 129.997C111.17 132.465 107.859 133.693 104.163 133.693C100.461 133.693 97.1514 132.465 94.2229 129.997C91.2985 127.534 89.8342 124.044 89.8342 119.52C89.8342 115.001 91.2985 111.51 94.2229 109.042C98.7315 105.238 105.402 104.39 110.68 107.06C115.364 109.43 118.492 114.241 118.492 119.52Z" fill="#E49B31"/>
<path d="M113.584 119.519C113.584 124.043 112.12 127.534 109.19 129.997C106.262 132.464 102.951 133.693 99.2543 133.693C95.5529 133.693 92.243 132.464 89.3145 129.997C86.39 127.534 84.9258 124.043 84.9258 119.519C84.9258 115.001 86.39 111.51 89.3145 109.042C92.243 106.58 95.5539 105.346 99.2543 105.346C102.951 105.346 106.261 106.58 109.19 109.042C112.12 111.51 113.584 115.001 113.584 119.519Z" fill="#FBC343"/>
<path d="M39.3015 55.3843C39.5764 53.9174 38.6101 52.5054 37.1432 52.2305C35.6763 51.9556 34.2644 52.9219 33.9895 54.3888C33.7145 55.8557 34.6808 57.2677 36.1477 57.5426C37.6146 57.8175 39.0266 56.8512 39.3015 55.3843Z" fill="#D3DFFF"/>
<path d="M40.5924 60.4618C40.7471 59.6366 40.199 58.8415 39.3682 58.6858C38.5374 58.5301 37.7386 59.0728 37.584 59.898C37.4293 60.7231 37.9774 61.5183 38.8082 61.6739C39.639 61.8296 40.4378 61.2869 40.5924 60.4618Z" fill="#D3DFFF"/>
<path d="M37.4995 48.8059C41.6544 44.651 41.6544 37.9145 37.4995 33.7596C33.3445 29.6046 26.608 29.6046 22.4531 33.7596C18.2982 37.9145 18.2982 44.651 22.4531 48.8059C26.608 52.9609 33.3445 52.9609 37.4995 48.8059Z" fill="#D3DFFF"/>
<path d="M25.8918 42.6229C26.632 42.6229 27.2321 42.0228 27.2321 41.2826C27.2321 40.5424 26.632 39.9424 25.8918 39.9424C25.1516 39.9424 24.5515 40.5424 24.5515 41.2826C24.5515 42.0228 25.1516 42.6229 25.8918 42.6229Z" fill="white"/>
<path d="M29.9767 42.6227C30.717 42.6227 31.317 42.0227 31.317 41.2825C31.317 40.5423 30.717 39.9422 29.9767 39.9422C29.2365 39.9422 28.6365 40.5423 28.6365 41.2825C28.6365 42.0227 29.2365 42.6227 29.9767 42.6227Z" fill="white"/>
<path d="M34.0624 42.6227C34.8027 42.6227 35.4027 42.0227 35.4027 41.2825C35.4027 40.5423 34.8027 39.9422 34.0624 39.9422C33.3222 39.9422 32.7222 40.5423 32.7222 41.2825C32.7222 42.0227 33.3222 42.6227 34.0624 42.6227Z" fill="white"/>
<path d="M22.3547 128.366L23.3488 132.199C23.6082 133.198 24.5744 133.874 25.6439 133.801C28.9031 133.579 35.6758 132.781 39.5633 129.915L38.4586 124.392C33.1141 124.09 28.1167 124.388 23.788 125.844C22.704 126.209 22.0778 127.296 22.3547 128.366Z" fill="#102048"/>
<path d="M28.5837 131.416C28.5269 131.416 28.4752 131.379 28.4597 131.322L27.1246 126.543C27.105 126.475 27.1453 126.404 27.2145 126.384C27.2837 126.365 27.355 126.405 27.3736 126.474L28.7087 131.253C28.7284 131.322 28.6881 131.393 28.6188 131.412C28.6075 131.415 28.5951 131.416 28.5837 131.416Z" fill="white"/>
<path d="M31.469 130.771C31.4121 130.771 31.3605 130.733 31.3449 130.677L30.0099 125.897C29.9902 125.829 30.0305 125.758 30.0998 125.738C30.169 125.718 30.2403 125.759 30.2589 125.828L31.594 130.607C31.6136 130.677 31.5733 130.747 31.5041 130.766C31.4917 130.77 31.4803 130.771 31.469 130.771Z" fill="white"/>
<path d="M34.8192 107.649L22.3982 111.336L31.623 123.975L44.8666 125.029L63.1333 117.305L56.1912 106.86L34.8192 107.649Z" fill="#FBC343"/>
<path d="M50.1325 109.405C77.4112 101.33 81.7947 125.438 39.2337 129.827C37.7301 128.136 35.9734 125.201 35.2759 122.747L57.7515 112.36L50.1325 109.405Z" fill="#FBC343"/>
<path d="M51.2921 126.684C50.0159 126.276 48.7934 125.469 48.7934 125.469L44.4099 126.844L45.4143 131.613L49.9684 132.538C51.3562 130 51.4368 127.917 51.2921 126.684Z" fill="#F9B384"/>
<path d="M35.373 122.914L35.1787 122.579C39.8681 119.854 51.8778 113.308 62.1112 111.377L62.1835 111.758C52.0091 113.677 40.0448 120.199 35.373 122.914Z" fill="#E49B31"/>
<path d="M34.8192 107.649C9.4285 102.821 2.85219 127.223 45.4142 131.612C46.9178 129.92 48.0958 127.922 48.7933 125.468C42.2553 121.093 34.9453 116.935 26.9347 112.974L34.8192 107.649Z" fill="#FBC343"/>
<path d="M48.6889 125.631C47.4809 124.862 46.2223 124.05 44.8903 123.189C38.2014 118.87 30.6206 113.975 24.1797 111.184L24.3337 110.829C30.8035 113.632 38.3987 118.537 45.1001 122.863C46.4321 123.723 47.6897 124.535 48.8966 125.304L48.6889 125.631Z" fill="#E49B31"/>
<path d="M16.1907 119.748L15.8518 119.561C16.8046 117.835 18.3319 116.672 20.3893 116.102L20.4926 116.475C18.5106 117.024 17.1042 118.095 16.1907 119.748Z" fill="#E49B31"/>
<path d="M69.1847 118.279C68.2712 116.626 66.8638 115.555 64.8828 115.007L64.9861 114.634C67.0436 115.203 68.5709 116.368 69.5236 118.092L69.1847 118.279Z" fill="#E49B31"/>
<path d="M43.0366 131.398L42.7534 131.133C44.785 128.958 46.0323 126.662 46.5676 124.113L46.9468 124.192C46.396 126.812 45.1177 129.169 43.0366 131.398Z" fill="#E49B31"/>
<path d="M63.9548 125.263C60.7018 123.253 54.3952 126.726 52.8121 126.902C52.3502 126.953 51.8169 126.852 51.292 126.684C51.4367 127.917 51.3561 130 49.9683 132.538L50.7423 132.695C50.7423 132.695 56.0899 134.655 61.763 133.514C66.9991 132.46 66.5124 126.843 63.9548 125.263Z" fill="#102048"/>
<path d="M59.5206 131.837C59.5071 131.837 59.4947 131.835 59.4813 131.831C59.4131 131.809 59.3759 131.737 59.3966 131.669C59.783 130.445 59.9515 128.037 58.8324 126.42C58.7921 126.361 58.8065 126.281 58.8654 126.24C58.9243 126.2 59.0049 126.215 59.0452 126.274C60.2171 127.967 60.0455 130.474 59.6435 131.746C59.626 131.802 59.5753 131.837 59.5206 131.837Z" fill="white"/>
<path d="M56.9693 132.321C56.9559 132.321 56.9435 132.319 56.93 132.315C56.8618 132.293 56.8246 132.221 56.8453 132.152C57.2318 130.929 57.4002 128.521 56.2811 126.904C56.2408 126.845 56.2553 126.764 56.3142 126.724C56.3731 126.684 56.4537 126.698 56.494 126.757C57.6658 128.451 57.4943 130.958 57.0923 132.23C57.0747 132.286 57.0241 132.321 56.9693 132.321Z" fill="white"/>
<path d="M30.3271 76.1874C30.3271 76.1874 36.7216 70.7499 36.4849 69.7165C36.3155 68.9776 34.504 70.0606 34.504 70.0606C34.504 70.0606 37.044 67.0463 36.9148 66.6805C36.6844 66.0264 34.9266 67.2457 34.9266 67.2457C34.9266 67.2457 36.1139 65.5366 35.5466 65.2575C34.9793 64.9785 33.7414 66.0326 33.7414 66.0326C33.7414 66.0326 34.4647 65.0839 34.1247 64.8349C33.7848 64.5859 32.3195 65.6099 32.3195 65.6099C32.3195 65.6099 32.8454 64.4133 31.7284 64.8669C30.6113 65.3206 22.7764 72.5107 22.7764 72.5107L30.3271 76.1874Z" fill="#F9B384"/>
<path d="M32.9437 69.7382C32.9127 69.7382 32.8817 69.7268 32.8569 69.7041C31.7595 68.7017 31.2748 68.4579 30.0648 68.0848C29.9966 68.0642 29.9583 67.9918 29.979 67.9236C29.9997 67.8554 30.072 67.8172 30.1402 67.8379C31.3947 68.2233 31.8959 68.4754 33.0315 69.5129C33.0842 69.5615 33.0884 69.6431 33.0398 69.6958C33.014 69.7237 32.9788 69.7382 32.9437 69.7382Z" fill="#E28B6D"/>
<path d="M31.0174 72.6876C31.0112 72.6876 31.005 72.6876 30.9999 72.6866C30.9296 72.6763 30.88 72.6111 30.8893 72.5409C31.0154 71.6419 31.2985 71.0797 31.7542 70.8234C32.1448 70.6033 32.6522 70.6261 33.264 70.8906C33.3291 70.9185 33.3601 70.995 33.3311 71.0601C33.3032 71.1252 33.2268 71.1562 33.1617 71.1272C32.6285 70.8968 32.1975 70.8699 31.8813 71.0487C31.5052 71.2605 31.2572 71.7741 31.1456 72.5771C31.1363 72.6411 31.0805 72.6876 31.0174 72.6876Z" fill="#E28B6D"/>
<path d="M30.7158 67.252C30.6817 67.252 30.6476 67.2386 30.6217 67.2117C30.5732 67.1601 30.5752 67.0784 30.6269 67.0288L32.2317 65.517C32.2834 65.4674 32.365 65.4705 32.4146 65.5222C32.4632 65.5738 32.4611 65.6555 32.4094 65.7051L30.8046 67.2169C30.7788 67.2396 30.7478 67.252 30.7158 67.252Z" fill="#E28B6D"/>
<path d="M32.2006 67.7686C32.1686 67.7686 32.1366 67.7562 32.1107 67.7325C32.0591 67.6829 32.058 67.6012 32.1066 67.5496L33.6484 65.9437C33.698 65.8921 33.7796 65.89 33.8313 65.9396C33.8829 65.9892 33.884 66.0708 33.8354 66.1225L32.2936 67.7283C32.2688 67.7552 32.2347 67.7686 32.2006 67.7686Z" fill="#E28B6D"/>
<path d="M33.7187 68.6728C33.6867 68.6728 33.6557 68.6614 33.6309 68.6376C33.5792 68.5891 33.5761 68.5074 33.6247 68.4547L34.8337 67.1579C34.8823 67.1062 34.9639 67.1031 35.0166 67.1517C35.0683 67.2002 35.0714 67.2819 35.0228 67.3346L33.8138 68.6314C33.7879 68.6583 33.7538 68.6728 33.7187 68.6728Z" fill="#E28B6D"/>
<path d="M54.483 112.558L31.1032 113.462L28.5198 92.1488C28.5198 92.1488 36.3464 84.7252 39.3577 81.9909L44.4418 81.7305C60.214 88.8989 57.6316 97.853 54.483 112.558Z" fill="#3A6BEA"/>
<path d="M44.4419 81.7305C44.4419 81.7305 62.4864 83.2733 68.1751 95.6364C73.7418 107.734 50.8663 112.041 50.8663 112.041L44.4419 81.7305Z" fill="#3A6BEA"/>
<path d="M23.8149 84.3789L31.2716 75.305L24.2985 71.0796C21.3896 73.1018 15.765 77.6827 10.9981 82.8702C9.94617 84.0152 9.12362 85.3523 8.71027 86.8249C8.35686 88.0814 8.29279 89.3225 8.4912 90.5378C9.00891 93.706 11.5003 96.1499 14.8267 96.5395C17.6674 96.8722 28.5188 96.0228 37.3023 93.4394L39.8857 83.4685C38.5589 82.7162 28.6924 82.585 23.8149 84.3789Z" fill="#3A6BEA"/>
<g opacity="0.8">
<path opacity="0.8" d="M59.4998 86.6357C59.5391 86.6264 59.5773 86.6181 59.6166 86.6088C59.5349 86.5603 59.4533 86.5138 59.3717 86.4662C58.049 86.7711 56.6849 87.0821 55.3395 87.2444C54.5314 87.3415 51.8302 87.5203 51.0417 85.7212C50.6491 84.8263 50.9467 83.8301 51.39 83.1316C51.3249 83.113 51.2608 83.0944 51.1967 83.0758C50.7421 83.8157 50.4496 84.8542 50.864 85.7987C51.7062 87.7207 54.5211 87.5389 55.3633 87.4366C56.7469 87.2702 58.1471 86.9478 59.4998 86.6357Z" fill="white"/>
<path opacity="0.8" d="M67.9219 100.58C67.06 100.247 66.1693 99.9022 65.2331 99.9911C63.591 100.146 62.1857 101.77 62.0999 103.611C62.042 104.866 62.5215 106.182 63.435 107.338C63.4898 107.304 63.5445 107.269 63.5993 107.234C62.7055 106.11 62.2363 104.833 62.2931 103.619C62.3737 101.871 63.7006 100.329 65.2506 100.183C66.1403 100.101 66.9722 100.42 67.8516 100.76C68.1657 100.881 68.485 101.004 68.8095 101.107C68.8261 101.045 68.8426 100.982 68.8571 100.919C68.5409 100.818 68.2288 100.698 67.9219 100.58Z" fill="white"/>
<path opacity="0.8" d="M22.3763 94.417C21.2499 93.4849 19.4994 93.2359 17.5743 93.734C15.8589 94.1773 14.3874 95.0567 13.3757 96.2192C13.4419 96.2409 13.507 96.2646 13.5741 96.2843C14.5579 95.1807 15.9746 94.3467 17.6218 93.921C19.485 93.4384 21.1735 93.674 22.2513 94.5658C22.7638 94.9895 23.1265 95.5403 23.39 96.1334C23.4562 96.1262 23.5233 96.1179 23.5905 96.1107C23.3156 95.4731 22.9312 94.8768 22.3763 94.417Z" fill="white"/>
<path opacity="0.8" d="M12.1917 81.6033C14.3028 81.0784 16.3623 80.3416 18.2626 79.2473C18.9808 78.8339 19.791 78.3069 20.3614 77.5329C20.968 76.7093 21.1695 75.7287 20.9008 74.9102C20.7954 74.5889 20.6084 74.3068 20.3748 74.0815C20.3252 74.1218 20.2756 74.1631 20.226 74.2034C20.4441 74.4111 20.6187 74.6726 20.7169 74.9712C20.9659 75.7307 20.7758 76.6453 20.2064 77.4182C19.6577 78.1633 18.8672 78.6769 18.1665 79.0799C16.3747 80.1122 14.4361 80.8262 12.4448 81.3419C12.3601 81.4287 12.2764 81.5155 12.1917 81.6033Z" fill="white"/>
</g>
<path d="M46.093 76.9916L46.0899 77.3223L46.0372 82.4612L46.031 83.0182C46.0207 83.8893 45.6642 84.6788 45.0875 85.2523C44.514 85.8217 43.7245 86.1793 42.8503 86.1855C41.0884 86.1948 39.6469 84.7801 39.6304 83.0151L39.5684 76.6641L46.093 76.9916Z" fill="#F9B384"/>
<path d="M46.09 77.3224L46.0373 82.4613C43.1811 81.2987 42.0051 78.2069 42.0051 78.2069L46.09 77.3224Z" fill="#102048"/>
<path d="M47.2193 68.3548C48.2423 69.5835 51.2318 76.5431 48.202 78.9178C44.7929 81.5901 39.6044 77.1983 39.6044 77.1983L38.908 69.0916L43.4113 67.9043L47.2193 68.3548Z" fill="#F9B384"/>
<path d="M36.614 67.9083C36.614 67.9083 26.6245 73.1185 34.7695 88.1363C35.8152 90.0656 38.133 90.9068 40.115 89.9664C42.2417 88.9568 43.0467 86.3589 41.8914 84.3077C40.5594 81.9413 39.2728 78.8929 39.8226 76.6257L36.614 67.9083Z" fill="#102048"/>
<path d="M39.4679 72.2854C40.5231 71.2302 40.5231 69.5192 39.4679 68.4639C38.4126 67.4087 36.7016 67.4087 35.6463 68.4639C34.5911 69.5192 34.5911 71.2302 35.6463 72.2854C36.7016 73.3407 38.4126 73.3407 39.4679 72.2854Z" fill="#FBC343"/>
<path d="M40.8819 73.6207C40.5894 71.9353 40.4117 70.779 42.1157 69.9099C42.1157 69.9099 48.1206 71.0022 49.2666 68.736C50.4126 66.4709 48.6662 62.8955 45.0091 65.3786C35.6469 63.5496 34.3913 72.3115 37.23 75.2317L40.0314 74.8019C40.5956 74.7161 40.979 74.1829 40.8819 73.6207Z" fill="#102048"/>
<path d="M45.5307 74.0247C45.751 74.0247 45.9296 73.8461 45.9296 73.6258C45.9296 73.4055 45.751 73.2269 45.5307 73.2269C45.3104 73.2269 45.1318 73.4055 45.1318 73.6258C45.1318 73.8461 45.3104 74.0247 45.5307 74.0247Z" fill="#102048"/>
<path d="M48.2329 72.693C48.4532 72.693 48.6317 72.5144 48.6317 72.2941C48.6317 72.0738 48.4532 71.8952 48.2329 71.8952C48.0126 71.8952 47.834 72.0738 47.834 72.2941C47.834 72.5144 48.0126 72.693 48.2329 72.693Z" fill="#102048"/>
<path d="M47.9561 74.8544C47.9282 74.8544 47.9003 74.8441 47.8786 74.8234C47.8331 74.78 47.8311 74.7087 47.8745 74.6633C48.0346 74.4948 48.2103 74.2582 48.1359 74.0856C48.0594 73.9069 47.736 73.8304 47.5872 73.8304C47.2689 73.8304 47.116 73.2641 47.0881 73.1504C47.0736 73.0895 47.1108 73.0285 47.1718 73.014C47.2328 72.9985 47.2937 73.0368 47.3082 73.0977C47.3661 73.3375 47.4983 73.6051 47.5872 73.6051C47.7401 73.6051 48.2062 73.6775 48.3436 73.9978C48.4418 74.2262 48.3395 74.5031 48.0377 74.8203C48.016 74.8431 47.9861 74.8544 47.9561 74.8544Z" fill="#102048"/>
<path d="M47.9768 76.3692C47.9551 76.3692 47.9334 76.363 47.9138 76.3496C47.1625 75.8422 46.403 76.2679 46.3958 76.2721C46.3421 76.3031 46.2728 76.2845 46.2418 76.2307C46.2108 76.177 46.2294 76.1078 46.2831 76.0768C46.3193 76.0561 47.1729 75.5777 48.0409 76.1625C48.0926 76.1977 48.106 76.2679 48.0709 76.3196C48.0492 76.3516 48.013 76.3692 47.9768 76.3692Z" fill="#102048"/>
<path d="M45.3561 71.8964C45.5835 72.3242 45.1877 72.41 44.7237 72.6559C44.2597 72.9019 43.7854 72.9928 43.6769 72.7882C43.5684 72.5836 43.8567 72.2199 44.3207 71.9729C44.7847 71.7259 45.1804 71.5658 45.3561 71.8964Z" fill="#102048"/>
<path d="M47.0466 71.1245C47.1468 71.5058 47.431 71.3394 47.8444 71.2309C48.2577 71.1224 48.5925 70.9147 48.545 70.7328C48.4974 70.551 48.1234 70.491 47.709 70.5995C47.2956 70.708 46.9691 70.83 47.0466 71.1245Z" fill="#102048"/>
<path opacity="0.4" d="M44.4893 76.3538C44.9671 75.9131 44.9972 75.1685 44.5565 74.6906C44.1158 74.2128 43.3711 74.1827 42.8933 74.6234C42.4154 75.0642 42.3854 75.8088 42.8261 76.2866C43.2668 76.7645 44.0114 76.7946 44.4893 76.3538Z" fill="#EB5D60"/>
<path d="M40.6527 76.596C41.1906 75.8988 40.9846 74.8382 40.1926 74.227C39.4005 73.6158 38.3223 73.6855 37.7844 74.3827C37.2464 75.0799 37.4524 76.1405 38.2445 76.7517C39.0365 77.3629 40.1147 77.2932 40.6527 76.596Z" fill="#F9B384"/>
<path d="M39.9186 76.0833C39.8566 76.0833 39.806 76.0327 39.806 75.9707C39.806 75.6369 39.6437 75.329 39.3709 75.145C39.1384 74.988 38.8604 74.9518 38.6279 75.0458C38.5701 75.0686 38.5039 75.0417 38.4802 74.9838C38.4564 74.926 38.4843 74.8598 38.5422 74.8361C38.8439 74.7131 39.2004 74.7575 39.496 74.957C39.8308 75.1822 40.0312 75.5604 40.0312 75.9696C40.0323 76.0337 39.9816 76.0833 39.9186 76.0833Z" fill="#102048"/>
<path d="M23.7193 84.2899L19.6411 88.7015L19.8308 88.8769L23.909 84.4652L23.7193 84.2899Z" fill="#102048"/>
<path d="M52.4536 103.252L52.3782 103.005C55.347 102.1 58.2291 101.018 60.8404 97.7529L61.0419 97.9141C58.3851 101.236 55.4638 102.335 52.4536 103.252Z" fill="#102048"/>
<path d="M54.2587 93.2483H29.0013C28.093 93.2483 27.3562 94.045 27.3562 95.0277V113.061C27.3562 114.044 28.093 114.84 29.0013 114.84H54.2587C55.167 114.84 55.9038 114.044 55.9038 113.061V95.0277C55.9038 94.045 55.167 93.2483 54.2587 93.2483Z" fill="#D3DFFF"/>
<path d="M42.9641 102.904C43.0602 102.904 43.1377 102.987 43.1377 103.092V104.995C43.1377 105.099 43.0602 105.183 42.9641 105.183H40.297C40.2009 105.183 40.1234 105.1 40.1234 104.995V103.092C40.1234 102.988 40.2009 102.904 40.297 102.904H42.9641ZM42.9641 102.387H40.297C39.9167 102.387 39.6067 102.703 39.6067 103.092V104.995C39.6067 105.384 39.9167 105.7 40.297 105.7H42.9641C43.3444 105.7 43.6544 105.384 43.6544 104.995V103.092C43.6544 102.703 43.3444 102.387 42.9641 102.387Z" fill="#1F3C88"/>
<path d="M152.284 133.483H0V134H152.284V133.483Z" fill="#102048"/>
</g>
<defs>
<clipPath id="clip0_905_46268">
<rect width="152.284" height="134" fill="white"/>
</clipPath>
</defs>
</svg>
