<svg width="58" height="66" viewBox="0 0 58 66" fill="none" xmlns="http://www.w3.org/2000/svg">
<g clip-path="url(#clip0_967_54025)">
<path d="M35.7679 63.4523C35.9532 63.7596 36.0085 64.1273 35.9219 64.4747C35.8352 64.8221 35.6136 65.1208 35.3058 65.3052C34.9978 65.4894 34.6287 65.544 34.2799 65.4571C33.931 65.3702 33.6308 65.1487 33.4454 64.8416C33.26 64.5344 33.2045 64.1666 33.2912 63.8191C33.3779 63.4717 33.5996 63.173 33.9076 62.9887C34.2156 62.8045 34.5846 62.7499 34.9335 62.8368C35.2824 62.9238 35.5825 63.1452 35.7679 63.4523Z" fill="url(#paint0_linear_967_54025)"/>
<path d="M43.2059 59.0012C43.3913 59.3084 43.4468 59.6761 43.3601 60.0236C43.2735 60.3711 43.0517 60.6698 42.7438 60.854C42.4357 61.038 42.0668 61.0926 41.7179 61.0057C41.3691 60.9187 41.0689 60.6974 40.8834 60.3904C40.698 60.0832 40.6425 59.7154 40.7292 59.368C40.8159 59.0205 41.0376 58.7218 41.3456 58.5376C41.6536 58.3533 42.0226 58.2987 42.3715 58.3856C42.7204 58.4726 43.0205 58.694 43.2059 59.0012Z" fill="url(#paint1_linear_967_54025)"/>
<path d="M50.6433 54.5503C50.8287 54.8574 50.8842 55.2251 50.7976 55.5725C50.7111 55.9198 50.4895 56.2185 50.1817 56.4028C49.8738 56.587 49.5047 56.6417 49.1558 56.5548C48.807 56.4678 48.5068 56.2464 48.3214 55.9392C48.136 55.632 48.0805 55.2643 48.1672 54.9168C48.2539 54.5693 48.4756 54.2706 48.7836 54.0864C48.9361 53.9952 49.1051 53.9348 49.2811 53.9088C49.4571 53.8828 49.6366 53.8915 49.8093 53.9346C49.982 53.9777 50.1446 54.0543 50.2877 54.1599C50.4308 54.2655 50.5516 54.3982 50.6433 54.5503Z" fill="url(#paint2_linear_967_54025)"/>
<path d="M58.0809 50.0996C58.2662 50.4068 58.3215 50.7745 58.2349 51.1219C58.1482 51.4693 57.9266 51.768 57.6188 51.9524C57.3108 52.1366 56.9417 52.1913 56.5929 52.1043C56.244 52.0174 55.9438 51.796 55.7584 51.4888C55.573 51.1816 55.5175 50.8138 55.6042 50.4664C55.6909 50.1189 55.9126 49.8202 56.2206 49.6359C56.5286 49.4517 56.8976 49.3971 57.2465 49.484C57.5954 49.571 57.8955 49.7924 58.0809 50.0996Z" fill="url(#paint3_linear_967_54025)"/>
<path d="M24.1141 60.9104C24.2995 61.2176 24.3549 61.5854 24.2683 61.9329C24.1816 62.2804 23.9599 62.5791 23.6519 62.7633C23.3439 62.9473 22.975 63.0018 22.6262 62.9148C22.2775 62.8278 21.9774 62.6064 21.7921 62.2993C21.7002 62.1473 21.6393 61.9788 21.6128 61.8034C21.5863 61.628 21.5947 61.4492 21.6376 61.2772C21.6804 61.1051 21.7569 60.9433 21.8626 60.8008C21.9683 60.6583 22.1012 60.538 22.2537 60.4468C22.5617 60.2626 22.9307 60.208 23.2796 60.2949C23.6285 60.3819 23.9286 60.6033 24.1141 60.9104Z" fill="url(#paint4_linear_967_54025)"/>
<path d="M31.5499 56.4606C31.7352 56.7679 31.7905 57.1356 31.7039 57.483C31.6172 57.8304 31.3956 58.1291 31.0878 58.3135C30.7798 58.4977 30.4107 58.5524 30.0619 58.4654C29.713 58.3785 29.4128 58.157 29.2274 57.8499C29.042 57.5427 28.9865 57.1749 29.0732 56.8274C29.1599 56.48 29.3816 56.1813 29.6896 55.997C29.9976 55.8128 30.3666 55.7582 30.7155 55.8451C31.0644 55.9321 31.3645 56.1535 31.5499 56.4606Z" fill="url(#paint5_linear_967_54025)"/>
<path d="M38.9879 52.0095C39.1733 52.3167 39.2288 52.6844 39.1421 53.0319C39.0554 53.3794 38.8337 53.6781 38.5257 53.8623C38.2177 54.0464 37.8487 54.1009 37.4999 54.014C37.1511 53.927 36.8509 53.7057 36.6654 53.3987C36.48 53.0915 36.4245 52.7237 36.5112 52.3763C36.5979 52.0288 36.8196 51.7301 37.1276 51.5459C37.4356 51.3616 37.8046 51.307 38.1535 51.3939C38.5023 51.4809 38.8025 51.7023 38.9879 52.0095Z" fill="url(#paint6_linear_967_54025)"/>
<path d="M46.4253 47.5586C46.6107 47.8657 46.6662 48.2334 46.5796 48.5808C46.4931 48.9281 46.2715 49.2268 45.9637 49.4111C45.6558 49.5954 45.2867 49.65 44.9378 49.5631C44.589 49.4761 44.2888 49.2547 44.1034 48.9475C43.918 48.6403 43.8625 48.2726 43.9492 47.9251C44.0359 47.5776 44.2576 47.2789 44.5656 47.0947C44.718 47.0035 44.8871 46.9431 45.0631 46.9171C45.2391 46.8911 45.4186 46.8998 45.5913 46.9429C45.764 46.986 45.9265 47.0625 46.0696 47.1682C46.2128 47.2738 46.3336 47.4065 46.4253 47.5586Z" fill="url(#paint7_linear_967_54025)"/>
<path d="M53.8627 43.1079C54.0479 43.4151 54.1033 43.7828 54.0166 44.1302C53.93 44.4776 53.7084 44.7764 53.4005 44.9607C53.0925 45.1449 52.7235 45.1996 52.3746 45.1126C52.0257 45.0257 51.7256 44.8043 51.5401 44.4971C51.3547 44.1899 51.2993 43.8221 51.3859 43.4747C51.4726 43.1272 51.6944 42.8285 52.0023 42.6443C52.3103 42.46 52.6793 42.4054 53.0282 42.4923C53.3771 42.5793 53.6773 42.8007 53.8627 43.1079Z" fill="url(#paint8_linear_967_54025)"/>
<path d="M19.8963 53.9192C20.0817 54.2264 20.1372 54.5942 20.0505 54.9417C19.9638 55.2892 19.7421 55.5879 19.4341 55.7721C19.1261 55.9561 18.7572 56.0106 18.4085 55.9236C18.0597 55.8366 17.7597 55.6152 17.5743 55.3081C17.4825 55.1561 17.4215 54.9876 17.395 54.8122C17.3685 54.6368 17.3769 54.458 17.4198 54.2859C17.4627 54.1139 17.5391 53.952 17.6448 53.8096C17.7506 53.6671 17.8835 53.5468 18.0359 53.4556C18.3439 53.2714 18.7129 53.2168 19.0618 53.3037C19.4107 53.3907 19.7109 53.6121 19.8963 53.9192Z" fill="url(#paint9_linear_967_54025)"/>
<path d="M27.3322 49.4692C27.5174 49.7764 27.5728 50.1441 27.4861 50.4916C27.3994 50.839 27.1778 51.1377 26.87 51.322C26.562 51.5062 26.193 51.5609 25.8441 51.474C25.4952 51.387 25.195 51.1656 25.0096 50.8584C24.8242 50.5512 24.7688 50.1835 24.8554 49.836C24.9421 49.4885 25.1638 49.1898 25.4718 49.0056C25.7798 48.8214 26.1488 48.7667 26.4977 48.8537C26.8466 48.9406 27.1467 49.162 27.3322 49.4692Z" fill="url(#paint10_linear_967_54025)"/>
<path d="M34.7701 45.0183C34.9555 45.3254 35.011 45.6932 34.9243 46.0407C34.8377 46.3882 34.616 46.6869 34.308 46.8711C33.9999 47.0551 33.631 47.1097 33.2821 47.0228C32.9333 46.9358 32.6331 46.7145 32.4476 46.4075C32.2622 46.1003 32.2067 45.7325 32.2934 45.3851C32.3801 45.0376 32.6018 44.7389 32.9098 44.5547C33.2178 44.3704 33.5868 44.3158 33.9357 44.4027C34.2846 44.4897 34.5847 44.7111 34.7701 45.0183Z" fill="url(#paint11_linear_967_54025)"/>
<path d="M42.2076 40.5674C42.3929 40.8745 42.4484 41.2422 42.3618 41.5895C42.2753 41.9369 42.0538 42.2356 41.746 42.4199C41.438 42.6041 41.0689 42.6588 40.7201 42.5719C40.3712 42.4849 40.071 42.2635 39.8856 41.9563C39.7002 41.6491 39.6447 41.2814 39.7314 40.9339C39.8181 40.5864 40.0398 40.2877 40.3478 40.1035C40.5003 40.0123 40.6693 39.9519 40.8453 39.9259C41.0213 39.8999 41.2008 39.9086 41.3735 39.9517C41.5462 39.9948 41.7088 40.0713 41.8519 40.177C41.995 40.2826 42.1158 40.4153 42.2076 40.5674Z" fill="url(#paint12_linear_967_54025)"/>
<path d="M49.6449 36.1164C49.8301 36.4236 49.8855 36.7913 49.7988 37.1388C49.7122 37.4862 49.4906 37.7849 49.1827 37.9692C48.8747 38.1535 48.5057 38.2081 48.1568 38.1212C47.8079 38.0342 47.5078 37.8128 47.3224 37.5056C47.137 37.1984 47.0815 36.8307 47.1682 36.4832C47.2549 36.1357 47.4766 35.837 47.7846 35.6528C48.0925 35.4686 48.4616 35.4139 48.8104 35.5009C49.1593 35.5878 49.4595 35.8092 49.6449 36.1164Z" fill="url(#paint13_linear_967_54025)"/>
<path d="M57.083 31.6653C57.2685 31.9725 57.3239 32.3403 57.2373 32.6878C57.1506 33.0352 56.9289 33.3339 56.6209 33.5182C56.3129 33.7022 55.944 33.7567 55.5952 33.6697C55.2465 33.5827 54.9464 33.3613 54.7611 33.0542C54.6692 32.9022 54.6083 32.7337 54.5818 32.5583C54.5553 32.3829 54.5637 32.2041 54.6066 32.032C54.6494 31.86 54.7259 31.6981 54.8316 31.5557C54.9373 31.4132 55.0702 31.2929 55.2227 31.2017C55.5307 31.0175 55.8997 30.9628 56.2486 31.0498C56.5975 31.1367 56.8976 31.3582 57.083 31.6653Z" fill="url(#paint14_linear_967_54025)"/>
<path d="M8.23963 51.3825C8.42486 51.6898 8.48023 52.0575 8.39357 52.4049C8.3069 52.7523 8.08531 53.051 7.77746 53.2354C7.46943 53.4194 7.10045 53.4739 6.75162 53.387C6.40279 53.3001 6.10264 53.0788 5.91711 52.7718C5.7317 52.4646 5.67623 52.0968 5.7629 51.7493C5.84958 51.4018 6.0713 51.1031 6.37929 50.9189C6.68727 50.7347 7.05629 50.68 7.40517 50.767C7.75406 50.8539 8.05422 51.0754 8.23963 51.3825Z" fill="url(#paint15_linear_967_54025)"/>
<path d="M15.6797 46.9302C15.8651 47.2374 15.9206 47.6052 15.8339 47.9527C15.7473 48.3001 15.5255 48.5988 15.2176 48.7831C14.9096 48.9671 14.5407 49.0216 14.1919 48.9346C13.8432 48.8476 13.5431 48.6262 13.3578 48.3191C13.2659 48.1671 13.205 47.9986 13.1785 47.8232C13.152 47.6478 13.1604 47.469 13.2032 47.2969C13.2461 47.1249 13.3226 46.963 13.4283 46.8206C13.534 46.6781 13.6669 46.5578 13.8194 46.4666C14.1274 46.2824 14.4964 46.2277 14.8453 46.3147C15.1942 46.4016 15.4943 46.6231 15.6797 46.9302Z" fill="url(#paint16_linear_967_54025)"/>
<path d="M23.1156 42.4804C23.3008 42.7877 23.3562 43.1554 23.2695 43.5028C23.1829 43.8502 22.9613 44.1489 22.6534 44.3333C22.3455 44.5175 21.9764 44.5721 21.6275 44.4852C21.2787 44.3982 20.9785 44.1768 20.7931 43.8697C20.6077 43.5625 20.5522 43.1947 20.6389 42.8472C20.7256 42.4997 20.9473 42.201 21.2553 42.0168C21.5633 41.8326 21.9323 41.7779 22.2812 41.8649C22.63 41.9518 22.9302 42.1733 23.1156 42.4804Z" fill="url(#paint17_linear_967_54025)"/>
<path d="M30.5536 38.0293C30.739 38.3364 30.7945 38.7042 30.7078 39.0517C30.6211 39.3992 30.3994 39.6979 30.0914 39.8821C29.7834 40.0661 29.4144 40.1207 29.0656 40.0337C28.7168 39.9468 28.4166 39.7255 28.2311 39.4185C28.0457 39.1113 27.9902 38.7435 28.0769 38.396C28.1635 38.0486 28.3853 37.7499 28.6933 37.5656C29.0012 37.3814 29.3703 37.3268 29.7191 37.4137C30.068 37.5007 30.3682 37.7221 30.5536 38.0293Z" fill="url(#paint18_linear_967_54025)"/>
<path d="M37.991 33.5784C38.1764 33.8855 38.2319 34.2531 38.1453 34.6005C38.0587 34.9479 37.8372 35.2466 37.5294 35.4309C37.2214 35.6151 36.8524 35.6698 36.5035 35.5828C36.1546 35.4959 35.8545 35.2745 35.6691 34.9673C35.4837 34.6601 35.4282 34.2923 35.5149 33.9449C35.6015 33.5974 35.8233 33.2987 36.1312 33.1145C36.2837 33.0233 36.4528 32.9629 36.6288 32.9369C36.8048 32.9108 36.9842 32.9196 37.157 32.9627C37.3297 33.0058 37.4922 33.0823 37.6353 33.188C37.7784 33.2936 37.8993 33.4263 37.991 33.5784Z" fill="url(#paint19_linear_967_54025)"/>
<path d="M45.4286 29.1274C45.6138 29.4346 45.6692 29.8023 45.5825 30.1498C45.4959 30.4972 45.2743 30.7959 44.9664 30.9802C44.6584 31.1645 44.2894 31.2191 43.9405 31.1322C43.5916 31.0452 43.2915 30.8238 43.1061 30.5166C42.9207 30.2095 42.8652 29.8417 42.9519 29.4942C43.0385 29.1467 43.2603 28.848 43.5683 28.6638C43.8762 28.4796 44.2453 28.4249 44.5941 28.5119C44.943 28.5988 45.2432 28.8202 45.4286 29.1274Z" fill="url(#paint20_linear_967_54025)"/>
<path d="M52.8665 24.6763C53.0519 24.9835 53.1074 25.3513 53.0207 25.6988C52.934 26.0462 52.7123 26.3449 52.4043 26.5292C52.0963 26.7132 51.7274 26.7677 51.3787 26.6807C51.0299 26.5937 50.7299 26.3723 50.5445 26.0652C50.4527 25.9132 50.3918 25.7447 50.3652 25.5693C50.3387 25.3939 50.3471 25.2151 50.39 25.043C50.4329 24.871 50.5093 24.7091 50.6151 24.5667C50.7208 24.4242 50.8537 24.3039 51.0062 24.2127C51.3141 24.0285 51.6832 23.9738 52.0321 24.0608C52.3809 24.1477 52.6811 24.3692 52.8665 24.6763Z" fill="url(#paint21_linear_967_54025)"/>
<path d="M60.3046 20.2253C60.4899 20.5326 60.5452 20.9005 60.4584 21.248C60.3717 21.5955 60.1499 21.8942 59.8418 22.0785C59.5338 22.2623 59.165 22.3167 58.8163 22.2297C58.4676 22.1427 58.1675 21.9215 57.982 21.6145C57.7967 21.3075 57.7412 20.9398 57.8278 20.5924C57.9143 20.245 58.1359 19.9463 58.4437 19.762C58.5962 19.6707 58.7653 19.6103 58.9413 19.5841C59.1174 19.558 59.297 19.5667 59.4698 19.6097C59.6426 19.6527 59.8053 19.7292 59.9485 19.8348C60.0917 19.9405 60.2128 20.0732 60.3046 20.2253Z" fill="url(#paint22_linear_967_54025)"/>
<path d="M4.0199 44.3879C4.2051 44.6951 4.26042 45.0627 4.17368 45.4101C4.08695 45.7574 3.86528 46.056 3.55739 46.2402C3.2495 46.4243 2.8806 46.479 2.53181 46.3922C2.18302 46.3053 1.88287 46.0841 1.69737 45.7771C1.51196 45.4699 1.4565 45.1022 1.54318 44.7547C1.62985 44.4072 1.85158 44.1085 2.15956 43.9243C2.46755 43.7401 2.83657 43.6854 3.18545 43.7724C3.53433 43.8593 3.83449 44.0807 4.0199 44.3879Z" fill="url(#paint23_linear_967_54025)"/>
<path d="M11.46 39.9356C11.5518 40.0877 11.6126 40.2562 11.6391 40.4316C11.6655 40.607 11.657 40.7858 11.614 40.9579C11.5711 41.1299 11.4945 41.2917 11.3887 41.4341C11.283 41.5765 11.15 41.6967 10.9975 41.7879C10.6897 41.972 10.3208 42.0266 9.97208 41.9397C9.62337 41.8528 9.32336 41.6315 9.13804 41.3245C9.04618 41.1724 8.98526 41.0039 8.95874 40.8285C8.93222 40.6531 8.94064 40.4743 8.98351 40.3023C9.02637 40.1303 9.10285 39.9684 9.20857 39.8259C9.31429 39.6835 9.44719 39.5632 9.59967 39.472C9.90765 39.2878 10.2767 39.2331 10.6256 39.3201C10.9744 39.407 11.2746 39.6284 11.46 39.9356Z" fill="url(#paint24_linear_967_54025)"/>
<path d="M18.8959 35.4858C19.0811 35.793 19.1364 36.1606 19.0497 36.508C18.9629 36.8553 18.7413 37.1539 18.4334 37.3381C18.2809 37.4293 18.1119 37.4898 17.9359 37.5159C17.7599 37.542 17.5804 37.5333 17.4077 37.4903C17.235 37.4473 17.0724 37.3709 16.9292 37.2653C16.7861 37.1597 16.6651 37.0271 16.5733 36.875C16.3879 36.5678 16.3325 36.2001 16.4192 35.8526C16.5058 35.5051 16.7276 35.2064 17.0355 35.0222C17.3435 34.838 17.7125 34.7833 18.0614 34.8703C18.4103 34.9572 18.7105 35.1786 18.8959 35.4858Z" fill="url(#paint25_linear_967_54025)"/>
<path d="M26.3339 31.0346C26.4256 31.1867 26.4865 31.3553 26.5129 31.5307C26.5394 31.7061 26.5309 31.8849 26.4879 32.0569C26.445 32.2289 26.3684 32.3907 26.2626 32.5331C26.1568 32.6755 26.0239 32.7958 25.8714 32.8869C25.5635 33.0711 25.1946 33.1257 24.8458 33.0389C24.497 32.9521 24.1968 32.7308 24.0113 32.4238C23.8259 32.1167 23.7705 31.7489 23.8571 31.4014C23.9438 31.0539 24.1655 30.7552 24.4735 30.571C24.7815 30.3868 25.1505 30.3321 25.4994 30.4191C25.8483 30.506 26.1485 30.7274 26.3339 31.0346Z" fill="url(#paint26_linear_967_54025)"/>
<path d="M33.7713 26.5838C33.9566 26.8908 34.012 27.2584 33.9254 27.6057C33.8388 27.953 33.6172 28.2516 33.3093 28.4357C33.1569 28.527 32.9879 28.5874 32.8119 28.6135C32.6359 28.6397 32.4564 28.631 32.2837 28.588C32.111 28.545 31.9484 28.4685 31.8052 28.3629C31.662 28.2574 31.5411 28.1247 31.4493 27.9727C31.2639 27.6655 31.2085 27.2977 31.2951 26.9502C31.3818 26.6028 31.6035 26.3041 31.9115 26.1198C32.064 26.0286 32.233 25.9683 32.409 25.9423C32.585 25.9162 32.7645 25.925 32.9372 25.9681C33.1099 26.0111 33.2725 26.0877 33.4156 26.1933C33.5587 26.299 33.6796 26.4317 33.7713 26.5838Z" fill="url(#paint27_linear_967_54025)"/>
<path d="M41.2086 22.1328C41.3938 22.4399 41.4491 22.8076 41.3624 23.1549C41.2757 23.5023 41.054 23.8009 40.7461 23.985C40.5937 24.0763 40.4246 24.1367 40.2487 24.1629C40.0727 24.189 39.8932 24.1803 39.7205 24.1373C39.5477 24.0943 39.3851 24.0178 39.242 23.9123C39.0988 23.8067 38.9779 23.6741 38.8861 23.522C38.7007 23.2148 38.6452 22.847 38.7319 22.4996C38.8186 22.1521 39.0403 21.8534 39.3483 21.6692C39.6563 21.4849 40.0253 21.4303 40.3742 21.5172C40.7231 21.6042 41.0232 21.8256 41.2086 22.1328Z" fill="url(#paint28_linear_967_54025)"/>
<path d="M48.6468 17.6817C48.7386 17.8338 48.7994 18.0023 48.8258 18.1777C48.8523 18.3531 48.8438 18.5319 48.8008 18.7039C48.7579 18.8759 48.6813 19.0378 48.5755 19.1802C48.4697 19.3226 48.3368 19.4428 48.1843 19.534C47.8764 19.7181 47.5076 19.7727 47.1589 19.6858C46.8102 19.5989 46.5101 19.3776 46.3248 19.0706C46.2329 18.9185 46.172 18.75 46.1455 18.5746C46.119 18.3992 46.1274 18.2204 46.1703 18.0484C46.2131 17.8764 46.2896 17.7145 46.3953 17.572C46.5011 17.4296 46.634 17.3093 46.7864 17.2181C47.0944 17.0339 47.4635 16.9792 47.8123 17.0661C48.1612 17.1531 48.4614 17.3745 48.6468 17.6817Z" fill="url(#paint29_linear_967_54025)"/>
<path d="M56.0846 13.2307C56.1763 13.3828 56.2371 13.5514 56.2635 13.7268C56.2899 13.9023 56.2813 14.0811 56.2383 14.2532C56.1953 14.4252 56.1187 14.5871 56.0128 14.7295C55.907 14.8719 55.7741 14.9921 55.6215 15.0833C55.3136 15.2672 54.9449 15.3217 54.5962 15.2349C54.2475 15.148 53.9475 14.9268 53.7621 14.6199C53.5767 14.3128 53.5212 13.9451 53.6078 13.5978C53.6944 13.2504 53.9159 12.9517 54.2237 12.7674C54.3762 12.6761 54.5453 12.6156 54.7214 12.5895C54.8974 12.5633 55.077 12.572 55.2498 12.615C55.4226 12.6581 55.5853 12.7346 55.7285 12.8402C55.8718 12.9458 55.9928 13.0785 56.0846 13.2307Z" fill="url(#paint30_linear_967_54025)"/>
<path d="M7.24223 32.9444C7.33401 33.0965 7.39487 33.265 7.4213 33.4404C7.44773 33.6158 7.43922 33.7946 7.39627 33.9666C7.35332 34.1387 7.27676 34.3005 7.17097 34.4429C7.06518 34.5853 6.93223 34.7055 6.77972 34.7967C6.47188 34.9808 6.10303 35.0354 5.75432 34.9485C5.4056 34.8616 5.10559 34.6403 4.92027 34.3333C4.82841 34.1812 4.76749 34.0127 4.74097 33.8373C4.71445 33.6619 4.72287 33.4831 4.76573 33.3111C4.8086 33.1391 4.88507 32.9772 4.9908 32.8347C5.09652 32.6923 5.22942 32.572 5.38189 32.4808C5.68988 32.2966 6.0589 32.2419 6.40778 32.3289C6.75666 32.4158 7.05682 32.6372 7.24223 32.9444Z" fill="url(#paint31_linear_967_54025)"/>
<path d="M14.6781 28.4943C14.8633 28.8015 14.9186 29.1692 14.8319 29.5165C14.7452 29.8639 14.5235 30.1624 14.2156 30.3466C14.0632 30.4379 13.8941 30.4983 13.7181 30.5244C13.5422 30.5506 13.3627 30.5419 13.1899 30.4989C13.0172 30.4559 12.8546 30.3794 12.7115 30.2738C12.5683 30.1683 12.4474 30.0356 12.3556 29.8836C12.1702 29.5764 12.1147 29.2086 12.2014 28.8611C12.2881 28.5137 12.5098 28.2149 12.8178 28.0307C13.1258 27.8465 13.4948 27.7919 13.8437 27.8788C14.1925 27.9657 14.4927 28.1872 14.6781 28.4943Z" fill="url(#paint32_linear_967_54025)"/>
<path d="M22.1161 24.0432C22.2079 24.1952 22.2687 24.3638 22.2952 24.5392C22.3216 24.7146 22.3131 24.8934 22.2701 25.0654C22.2272 25.2374 22.1506 25.3993 22.0448 25.5417C21.939 25.6841 21.8061 25.8043 21.6536 25.8954C21.3457 26.0796 20.9768 26.1343 20.628 26.0474C20.2792 25.9606 19.9791 25.7394 19.7936 25.4324C19.6082 25.1252 19.5527 24.7574 19.6394 24.41C19.726 24.0625 19.9478 23.7638 20.2558 23.5796C20.5637 23.3953 20.9328 23.3407 21.2816 23.4276C21.6305 23.5146 21.9307 23.736 22.1161 24.0432Z" fill="url(#paint33_linear_967_54025)"/>
<path d="M29.5535 19.5926C29.7388 19.8996 29.7943 20.2672 29.7076 20.6145C29.621 20.9618 29.3994 21.2604 29.0916 21.4445C28.9391 21.5358 28.7701 21.5962 28.5941 21.6223C28.4181 21.6485 28.2386 21.6398 28.0659 21.5968C27.8932 21.5538 27.7306 21.4773 27.5874 21.3717C27.4443 21.2662 27.3233 21.1335 27.2315 20.9815C27.0461 20.6743 26.9907 20.3065 27.0774 19.959C27.164 19.6116 27.3858 19.3128 27.6937 19.1286C27.8462 19.0374 28.0153 18.9771 28.1913 18.951C28.3673 18.925 28.5467 18.9338 28.7195 18.9769C28.8922 19.0199 29.0547 19.0965 29.1978 19.2021C29.3409 19.3078 29.4618 19.4405 29.5535 19.5926Z" fill="url(#paint34_linear_967_54025)"/>
<path d="M36.9908 15.1416C37.176 15.4487 37.2314 15.8164 37.1446 16.1637C37.0579 16.5111 36.8362 16.8097 36.5283 16.9938C36.3759 17.0851 36.2069 17.1455 36.0309 17.1716C35.8549 17.1978 35.6754 17.1891 35.5027 17.1461C35.33 17.1031 35.1674 17.0266 35.0242 16.921C34.881 16.8155 34.7601 16.6828 34.6683 16.5308C34.4829 16.2236 34.4274 15.8558 34.5141 15.5083C34.6008 15.1609 34.8225 14.8622 35.1305 14.6779C35.4385 14.4937 35.8075 14.4391 36.1564 14.526C36.5053 14.613 36.8054 14.8344 36.9908 15.1416Z" fill="url(#paint35_linear_967_54025)"/>
<path d="M44.429 10.6905C44.5208 10.8426 44.5816 11.0111 44.6081 11.1865C44.6345 11.3619 44.626 11.5407 44.5831 11.7127C44.5401 11.8847 44.4635 12.0466 44.3577 12.189C44.252 12.3314 44.119 12.4516 43.9665 12.5427C43.6587 12.7269 43.2898 12.7815 42.9411 12.6946C42.5924 12.6077 42.2924 12.3864 42.107 12.0794C42.0152 11.9273 41.9543 11.7588 41.9277 11.5834C41.9012 11.408 41.9096 11.2292 41.9525 11.0572C41.9954 10.8852 42.0718 10.7233 42.1776 10.5808C42.2833 10.4383 42.4162 10.3181 42.5687 10.2269C42.8766 10.0426 43.2457 9.98799 43.5946 10.0749C43.9434 10.1619 44.2436 10.3833 44.429 10.6905Z" fill="url(#paint36_linear_967_54025)"/>
<path d="M3.02363 25.9519C3.20904 26.2591 3.2645 26.6268 3.17783 26.9743C3.09115 27.3218 2.86944 27.6205 2.56146 27.8047C2.40898 27.8959 2.23991 27.9563 2.06392 27.9823C1.88792 28.0083 1.70845 27.9996 1.53574 27.9565C1.36303 27.9134 1.20049 27.8369 1.05738 27.7312C0.914265 27.6256 0.79339 27.4929 0.701676 27.3408C0.516358 27.0337 0.460904 26.6661 0.547537 26.3188C0.63417 25.9715 0.855796 25.673 1.16363 25.4888C1.31606 25.3976 1.4851 25.3371 1.66108 25.311C1.83706 25.2849 2.01653 25.2936 2.18926 25.3366C2.36199 25.3796 2.52458 25.456 2.66774 25.5616C2.81091 25.6672 2.93184 25.7998 3.02363 25.9519Z" fill="url(#paint37_linear_967_54025)"/>
<path d="M10.4595 21.5021C10.6449 21.8093 10.7004 22.177 10.6137 22.5245C10.527 22.872 10.3053 23.1707 9.99733 23.3549C9.68934 23.5391 9.32031 23.5938 8.97143 23.5068C8.62254 23.4199 8.32239 23.1985 8.13698 22.8913C8.04519 22.7392 7.98434 22.5707 7.95791 22.3953C7.93147 22.2199 7.93998 22.0411 7.98293 21.869C8.02588 21.697 8.10246 21.5352 8.20825 21.3928C8.31404 21.2504 8.44699 21.1302 8.5995 21.039C8.90739 20.8549 9.27628 20.8002 9.62507 20.887C9.97387 20.9738 10.274 21.1951 10.4595 21.5021Z" fill="url(#paint38_linear_967_54025)"/>
<path d="M17.8975 17.0509C18.0829 17.3581 18.1384 17.7259 18.0517 18.0733C17.965 18.4208 17.7433 18.7195 17.4353 18.9037C17.1273 19.088 16.7583 19.1426 16.4094 19.0557C16.0605 18.9687 15.7604 18.7473 15.575 18.4401C15.3898 18.133 15.3345 17.7653 15.4212 17.4179C15.5079 17.0706 15.7296 16.772 16.0375 16.5879C16.1899 16.4966 16.359 16.4362 16.5349 16.41C16.7109 16.3839 16.8904 16.3926 17.0631 16.4356C17.2359 16.4786 17.3984 16.5551 17.5416 16.6606C17.6848 16.7662 17.8057 16.8988 17.8975 17.0509Z" fill="url(#paint39_linear_967_54025)"/>
<path d="M25.3349 12.6001C25.4268 12.7521 25.4877 12.9206 25.5142 13.096C25.5407 13.2714 25.5323 13.4502 25.4895 13.6222C25.4466 13.7943 25.3701 13.9562 25.2644 14.0986C25.1587 14.2411 25.0258 14.3614 24.8733 14.4526C24.5653 14.6368 24.1963 14.6914 23.8474 14.6045C23.4985 14.5176 23.1984 14.2961 23.013 13.989C22.9212 13.8369 22.8603 13.6683 22.8339 13.4929C22.8074 13.3175 22.816 13.1387 22.8589 12.9667C22.9019 12.7947 22.9784 12.6329 23.0842 12.4904C23.19 12.348 23.323 12.2278 23.4755 12.1367C23.7833 11.9526 24.1522 11.8979 24.5009 11.9848C24.8496 12.0717 25.1496 12.2931 25.3349 12.6001Z" fill="url(#paint40_linear_967_54025)"/>
<path d="M32.7725 8.1493C32.9579 8.45648 33.0134 8.82425 32.9267 9.17173C32.84 9.5192 32.6183 9.8179 32.3103 10.0021C32.0023 10.1863 31.6333 10.241 31.2844 10.1541C30.9355 10.0671 30.6354 9.8457 30.45 9.53852C30.3582 9.38645 30.2973 9.21789 30.2709 9.04249C30.2445 8.86709 30.253 8.68828 30.2959 8.51627C30.3389 8.34426 30.4154 8.18242 30.5212 8.04C30.627 7.89759 30.76 7.77737 30.9125 7.68624C31.2204 7.50208 31.5893 7.4474 31.9381 7.53423C32.2869 7.62106 32.587 7.84231 32.7725 8.1493Z" fill="url(#paint41_linear_967_54025)"/>
<path d="M40.2104 3.69823C40.3958 4.00541 40.4513 4.37317 40.3646 4.72064C40.2779 5.06812 40.0562 5.36683 39.7482 5.55105C39.5958 5.64225 39.4267 5.7026 39.2507 5.72864C39.0747 5.75468 38.8952 5.74591 38.7225 5.70282C38.5498 5.65974 38.3873 5.58319 38.2441 5.47754C38.101 5.37189 37.9802 5.23923 37.8884 5.08711C37.7031 4.78008 37.6477 4.41246 37.7343 4.06515C37.821 3.71785 38.0426 3.4193 38.3504 3.23517C38.5028 3.14389 38.6719 3.08348 38.8478 3.05735C39.0238 3.03122 39.2033 3.03989 39.3761 3.0829C39.5488 3.1259 39.7114 3.20237 39.8545 3.30795C39.9977 3.41353 40.1186 3.54615 40.2104 3.69823Z" fill="url(#paint42_linear_967_54025)"/>
<path d="M6.2407 14.5091C6.42593 14.8163 6.48131 15.184 6.39464 15.5314C6.30798 15.8789 6.08637 16.1775 5.77852 16.3619C5.47054 16.5461 5.1015 16.6008 4.75262 16.5138C4.40374 16.4269 4.10358 16.2055 3.91817 15.8983C3.82626 15.7462 3.7653 15.5776 3.73877 15.4021C3.71224 15.2266 3.72067 15.0477 3.76356 14.8756C3.80645 14.7035 3.88297 14.5415 3.98874 14.399C4.09451 14.2565 4.22748 14.1361 4.38002 14.0449C4.68815 13.8608 5.05724 13.8063 5.40616 13.8933C5.75508 13.9803 6.05526 14.2018 6.2407 14.5091Z" fill="url(#paint43_linear_967_54025)"/>
<path d="M13.6787 10.0579C13.8641 10.3651 13.9196 10.7328 13.8329 11.0803C13.7462 11.4278 13.5245 11.7265 13.2165 11.9107C12.9085 12.0948 12.5395 12.1493 12.1907 12.0624C11.8419 11.9755 11.5417 11.7542 11.3562 11.4471C11.1707 11.1399 11.1152 10.7721 11.2018 10.4245C11.2884 10.0769 11.5101 9.77812 11.818 9.59371C11.9706 9.50247 12.1397 9.44209 12.3158 9.41603C12.4919 9.38998 12.6714 9.39875 12.8442 9.44186C13.017 9.48496 13.1796 9.56156 13.3228 9.66726C13.466 9.77296 13.5869 9.9057 13.6787 10.0579Z" fill="url(#paint44_linear_967_54025)"/>
<path d="M21.1161 5.60706C21.3015 5.91414 21.357 6.28179 21.2704 6.62917C21.1838 6.97656 20.9623 7.27523 20.6545 7.45954C20.3465 7.64376 19.9775 7.69842 19.6286 7.61147C19.2797 7.52453 18.9796 7.30312 18.7941 6.99594C18.7022 6.84384 18.6413 6.67523 18.6147 6.49975C18.5882 6.32428 18.5966 6.14537 18.6395 5.97325C18.6824 5.80114 18.7589 5.63918 18.8647 5.49665C18.9705 5.35411 19.1035 5.23379 19.256 5.14254C19.4085 5.0514 19.5777 4.99112 19.7537 4.96514C19.9297 4.93915 20.1092 4.94799 20.282 4.99112C20.4547 5.03426 20.6172 5.11085 20.7604 5.21653C20.9035 5.32222 21.0244 5.45492 21.1161 5.60706Z" fill="url(#paint45_linear_967_54025)"/>
<path d="M28.5537 1.15628C28.7389 1.46351 28.7943 1.83122 28.7076 2.17865C28.621 2.52607 28.3994 2.82476 28.0915 3.0091C27.7835 3.19333 27.4145 3.24798 27.0656 3.16104C26.7167 3.07409 26.4166 2.85268 26.2312 2.5455C26.1393 2.3934 26.0783 2.22479 26.0518 2.04931C26.0252 1.87384 26.0337 1.69493 26.0765 1.52281C26.1194 1.3507 26.196 1.18874 26.3017 1.04621C26.4075 0.903668 26.5405 0.783349 26.693 0.692103C27.0011 0.507999 27.3702 0.453479 27.7191 0.540523C28.0681 0.627566 28.3682 0.84905 28.5537 1.15628Z" fill="url(#paint46_linear_967_54025)"/>
</g>
<defs>
<linearGradient id="paint0_linear_967_54025" x1="33.9076" y1="62.9887" x2="35.2965" y2="65.3107" gradientUnits="userSpaceOnUse">
<stop stop-color="#21D4FD"/>
<stop offset="1" stop-color="#B721FF"/>
</linearGradient>
<linearGradient id="paint1_linear_967_54025" x1="41.3456" y1="58.5376" x2="42.7345" y2="60.8595" gradientUnits="userSpaceOnUse">
<stop stop-color="#21D4FD"/>
<stop offset="1" stop-color="#B721FF"/>
</linearGradient>
<linearGradient id="paint2_linear_967_54025" x1="48.7833" y1="54.0866" x2="50.1722" y2="56.4085" gradientUnits="userSpaceOnUse">
<stop stop-color="#21D4FD"/>
<stop offset="1" stop-color="#B721FF"/>
</linearGradient>
<linearGradient id="paint3_linear_967_54025" x1="56.2206" y1="49.636" x2="57.6095" y2="51.9579" gradientUnits="userSpaceOnUse">
<stop stop-color="#21D4FD"/>
<stop offset="1" stop-color="#B721FF"/>
</linearGradient>
<linearGradient id="paint4_linear_967_54025" x1="22.254" y1="60.4467" x2="23.6429" y2="62.7687" gradientUnits="userSpaceOnUse">
<stop stop-color="#21D4FD"/>
<stop offset="1" stop-color="#B721FF"/>
</linearGradient>
<linearGradient id="paint5_linear_967_54025" x1="29.6896" y1="55.997" x2="31.0785" y2="58.319" gradientUnits="userSpaceOnUse">
<stop stop-color="#21D4FD"/>
<stop offset="1" stop-color="#B721FF"/>
</linearGradient>
<linearGradient id="paint6_linear_967_54025" x1="37.1276" y1="51.5459" x2="38.5165" y2="53.8679" gradientUnits="userSpaceOnUse">
<stop stop-color="#21D4FD"/>
<stop offset="1" stop-color="#B721FF"/>
</linearGradient>
<linearGradient id="paint7_linear_967_54025" x1="44.5653" y1="47.0949" x2="45.9542" y2="49.4169" gradientUnits="userSpaceOnUse">
<stop stop-color="#21D4FD"/>
<stop offset="1" stop-color="#B721FF"/>
</linearGradient>
<linearGradient id="paint8_linear_967_54025" x1="52.0023" y1="42.6443" x2="53.3912" y2="44.9662" gradientUnits="userSpaceOnUse">
<stop stop-color="#21D4FD"/>
<stop offset="1" stop-color="#B721FF"/>
</linearGradient>
<linearGradient id="paint9_linear_967_54025" x1="18.0362" y1="53.4555" x2="19.4251" y2="55.7775" gradientUnits="userSpaceOnUse">
<stop stop-color="#21D4FD"/>
<stop offset="1" stop-color="#B721FF"/>
</linearGradient>
<linearGradient id="paint10_linear_967_54025" x1="25.4718" y1="49.0056" x2="26.8607" y2="51.3276" gradientUnits="userSpaceOnUse">
<stop stop-color="#21D4FD"/>
<stop offset="1" stop-color="#B721FF"/>
</linearGradient>
<linearGradient id="paint11_linear_967_54025" x1="32.9098" y1="44.5547" x2="34.2987" y2="46.8766" gradientUnits="userSpaceOnUse">
<stop stop-color="#21D4FD"/>
<stop offset="1" stop-color="#B721FF"/>
</linearGradient>
<linearGradient id="paint12_linear_967_54025" x1="40.3475" y1="40.1037" x2="41.7364" y2="42.4256" gradientUnits="userSpaceOnUse">
<stop stop-color="#21D4FD"/>
<stop offset="1" stop-color="#B721FF"/>
</linearGradient>
<linearGradient id="paint13_linear_967_54025" x1="47.7846" y1="35.6528" x2="49.1735" y2="37.9748" gradientUnits="userSpaceOnUse">
<stop stop-color="#21D4FD"/>
<stop offset="1" stop-color="#B721FF"/>
</linearGradient>
<linearGradient id="paint14_linear_967_54025" x1="55.223" y1="31.2016" x2="56.6119" y2="33.5235" gradientUnits="userSpaceOnUse">
<stop stop-color="#21D4FD"/>
<stop offset="1" stop-color="#B721FF"/>
</linearGradient>
<linearGradient id="paint15_linear_967_54025" x1="6.37928" y1="50.9189" x2="7.76818" y2="53.2409" gradientUnits="userSpaceOnUse">
<stop stop-color="#21D4FD"/>
<stop offset="1" stop-color="#B721FF"/>
</linearGradient>
<linearGradient id="paint16_linear_967_54025" x1="13.8197" y1="46.4664" x2="15.2086" y2="48.7884" gradientUnits="userSpaceOnUse">
<stop stop-color="#21D4FD"/>
<stop offset="1" stop-color="#B721FF"/>
</linearGradient>
<linearGradient id="paint17_linear_967_54025" x1="21.2553" y1="42.0168" x2="22.6442" y2="44.3388" gradientUnits="userSpaceOnUse">
<stop stop-color="#21D4FD"/>
<stop offset="1" stop-color="#B721FF"/>
</linearGradient>
<linearGradient id="paint18_linear_967_54025" x1="28.6932" y1="37.5656" x2="30.0821" y2="39.8876" gradientUnits="userSpaceOnUse">
<stop stop-color="#21D4FD"/>
<stop offset="1" stop-color="#B721FF"/>
</linearGradient>
<linearGradient id="paint19_linear_967_54025" x1="36.1309" y1="33.1146" x2="37.5199" y2="35.4366" gradientUnits="userSpaceOnUse">
<stop stop-color="#21D4FD"/>
<stop offset="1" stop-color="#B721FF"/>
</linearGradient>
<linearGradient id="paint20_linear_967_54025" x1="43.5682" y1="28.6638" x2="44.9571" y2="30.9858" gradientUnits="userSpaceOnUse">
<stop stop-color="#21D4FD"/>
<stop offset="1" stop-color="#B721FF"/>
</linearGradient>
<linearGradient id="paint21_linear_967_54025" x1="51.0064" y1="24.2125" x2="52.3953" y2="26.5345" gradientUnits="userSpaceOnUse">
<stop stop-color="#21D4FD"/>
<stop offset="1" stop-color="#B721FF"/>
</linearGradient>
<linearGradient id="paint22_linear_967_54025" x1="58.4442" y1="19.7617" x2="59.8331" y2="22.0837" gradientUnits="userSpaceOnUse">
<stop stop-color="#21D4FD"/>
<stop offset="1" stop-color="#B721FF"/>
</linearGradient>
<linearGradient id="paint23_linear_967_54025" x1="2.15955" y1="43.9243" x2="3.54811" y2="46.2457" gradientUnits="userSpaceOnUse">
<stop stop-color="#21D4FD"/>
<stop offset="1" stop-color="#B721FF"/>
</linearGradient>
<linearGradient id="paint24_linear_967_54025" x1="9.59994" y1="39.4718" x2="10.9885" y2="41.7932" gradientUnits="userSpaceOnUse">
<stop stop-color="#21D4FD"/>
<stop offset="1" stop-color="#B721FF"/>
</linearGradient>
<linearGradient id="paint25_linear_967_54025" x1="17.0355" y1="35.0222" x2="18.4241" y2="37.3436" gradientUnits="userSpaceOnUse">
<stop stop-color="#21D4FD"/>
<stop offset="1" stop-color="#B721FF"/>
</linearGradient>
<linearGradient id="paint26_linear_967_54025" x1="24.4735" y1="30.571" x2="25.8621" y2="32.8924" gradientUnits="userSpaceOnUse">
<stop stop-color="#21D4FD"/>
<stop offset="1" stop-color="#B721FF"/>
</linearGradient>
<linearGradient id="paint27_linear_967_54025" x1="31.9112" y1="26.12" x2="33.2998" y2="28.4414" gradientUnits="userSpaceOnUse">
<stop stop-color="#21D4FD"/>
<stop offset="1" stop-color="#B721FF"/>
</linearGradient>
<linearGradient id="paint28_linear_967_54025" x1="39.3483" y1="21.6692" x2="40.7368" y2="23.9906" gradientUnits="userSpaceOnUse">
<stop stop-color="#21D4FD"/>
<stop offset="1" stop-color="#B721FF"/>
</linearGradient>
<linearGradient id="paint29_linear_967_54025" x1="46.7867" y1="17.2179" x2="48.1753" y2="19.5393" gradientUnits="userSpaceOnUse">
<stop stop-color="#21D4FD"/>
<stop offset="1" stop-color="#B721FF"/>
</linearGradient>
<linearGradient id="paint30_linear_967_54025" x1="54.2243" y1="12.7671" x2="55.6128" y2="15.0885" gradientUnits="userSpaceOnUse">
<stop stop-color="#21D4FD"/>
<stop offset="1" stop-color="#B721FF"/>
</linearGradient>
<linearGradient id="paint31_linear_967_54025" x1="5.38217" y1="32.4806" x2="6.77073" y2="34.802" gradientUnits="userSpaceOnUse">
<stop stop-color="#21D4FD"/>
<stop offset="1" stop-color="#B721FF"/>
</linearGradient>
<linearGradient id="paint32_linear_967_54025" x1="12.8178" y1="28.0307" x2="14.2063" y2="30.3522" gradientUnits="userSpaceOnUse">
<stop stop-color="#21D4FD"/>
<stop offset="1" stop-color="#B721FF"/>
</linearGradient>
<linearGradient id="paint33_linear_967_54025" x1="20.2557" y1="23.5796" x2="21.6443" y2="25.901" gradientUnits="userSpaceOnUse">
<stop stop-color="#21D4FD"/>
<stop offset="1" stop-color="#B721FF"/>
</linearGradient>
<linearGradient id="paint34_linear_967_54025" x1="27.6934" y1="19.1288" x2="29.082" y2="21.4502" gradientUnits="userSpaceOnUse">
<stop stop-color="#21D4FD"/>
<stop offset="1" stop-color="#B721FF"/>
</linearGradient>
<linearGradient id="paint35_linear_967_54025" x1="35.1305" y1="14.6779" x2="36.5191" y2="16.9994" gradientUnits="userSpaceOnUse">
<stop stop-color="#21D4FD"/>
<stop offset="1" stop-color="#B721FF"/>
</linearGradient>
<linearGradient id="paint36_linear_967_54025" x1="42.5689" y1="10.2267" x2="43.9575" y2="12.5481" gradientUnits="userSpaceOnUse">
<stop stop-color="#21D4FD"/>
<stop offset="1" stop-color="#B721FF"/>
</linearGradient>
<linearGradient id="paint37_linear_967_54025" x1="1.16391" y1="25.4887" x2="2.55247" y2="27.8101" gradientUnits="userSpaceOnUse">
<stop stop-color="#21D4FD"/>
<stop offset="1" stop-color="#B721FF"/>
</linearGradient>
<linearGradient id="paint38_linear_967_54025" x1="8.5995" y1="21.039" x2="9.98806" y2="23.3605" gradientUnits="userSpaceOnUse">
<stop stop-color="#21D4FD"/>
<stop offset="1" stop-color="#B721FF"/>
</linearGradient>
<linearGradient id="paint39_linear_967_54025" x1="16.0375" y1="16.5879" x2="17.426" y2="18.9093" gradientUnits="userSpaceOnUse">
<stop stop-color="#21D4FD"/>
<stop offset="1" stop-color="#B721FF"/>
</linearGradient>
<linearGradient id="paint40_linear_967_54025" x1="23.4752" y1="12.1369" x2="24.8637" y2="14.4583" gradientUnits="userSpaceOnUse">
<stop stop-color="#21D4FD"/>
<stop offset="1" stop-color="#B721FF"/>
</linearGradient>
<linearGradient id="paint41_linear_967_54025" x1="30.9125" y1="7.68625" x2="32.301" y2="10.0077" gradientUnits="userSpaceOnUse">
<stop stop-color="#21D4FD"/>
<stop offset="1" stop-color="#B721FF"/>
</linearGradient>
<linearGradient id="paint42_linear_967_54025" x1="38.3507" y1="3.235" x2="39.7392" y2="5.55643" gradientUnits="userSpaceOnUse">
<stop stop-color="#21D4FD"/>
<stop offset="1" stop-color="#B721FF"/>
</linearGradient>
<linearGradient id="paint43_linear_967_54025" x1="4.38001" y1="14.0449" x2="5.76925" y2="16.3674" gradientUnits="userSpaceOnUse">
<stop stop-color="#21D4FD"/>
<stop offset="1" stop-color="#B721FF"/>
</linearGradient>
<linearGradient id="paint44_linear_967_54025" x1="11.818" y1="9.59372" x2="13.2072" y2="11.9163" gradientUnits="userSpaceOnUse">
<stop stop-color="#21D4FD"/>
<stop offset="1" stop-color="#B721FF"/>
</linearGradient>
<linearGradient id="paint45_linear_967_54025" x1="19.2557" y1="5.14272" x2="20.6449" y2="7.46526" gradientUnits="userSpaceOnUse">
<stop stop-color="#21D4FD"/>
<stop offset="1" stop-color="#B721FF"/>
</linearGradient>
<linearGradient id="paint46_linear_967_54025" x1="26.693" y1="0.692108" x2="28.0822" y2="3.01465" gradientUnits="userSpaceOnUse">
<stop stop-color="#21D4FD"/>
<stop offset="1" stop-color="#B721FF"/>
</linearGradient>
<clipPath id="clip0_967_54025">
<rect width="62" height="66" fill="white"/>
</clipPath>
</defs>
</svg>
