<svg width="173" height="44" viewBox="0 0 173 44" fill="none" xmlns="http://www.w3.org/2000/svg">
<path d="M22 9.2132e-07C17.6485 1.10348e-06 13.3948 1.29044 9.7768 3.70811C6.15878 6.12578 3.33899 9.56209 1.67405 13.5824C0.00911021 17.6028 -0.426191 22.0266 0.4232 26.2943C1.27259 30.5621 3.36852 34.4821 6.44591 37.5586C9.5233 40.6351 13.4439 42.7299 17.7119 43.578C21.9799 44.4262 26.4036 43.9896 30.4234 42.3235C34.4433 40.6574 37.8788 37.8366 40.2954 34.2179C42.712 30.5992 44.0013 26.3451 44 21.9936C44 19.1049 43.4309 16.2444 42.3252 13.5756C41.2195 10.9068 39.5989 8.48192 37.556 6.43954C35.513 4.39715 33.0877 2.77725 30.4186 1.67234C27.7494 0.56743 24.8888 -0.000835194 22 9.2132e-07ZM17.7477 23.2604C17.7477 27.9711 15.4942 30.1227 11.2164 30.1227C7.70255 30.1227 5.7992 28.8814 5.7992 26.8571C5.7992 24.9855 7.397 24.228 7.47339 24.3108C7.82056 24.7745 8.2713 25.1507 8.78966 25.4093C9.30801 25.6679 9.87963 25.8018 10.4589 25.8003C12.0058 25.8003 12.6615 25.1192 12.6615 23.1713V15.6215C12.6615 14.0492 13.419 13.2662 14.8131 13.2662H15.5451C16.9902 13.2662 17.7477 14.0492 17.7477 15.6215V23.2604ZM24.349 27.5446C24.349 29.2888 23.4641 29.8935 22.2228 29.8935H21.7199C20.4022 29.8935 19.4919 29.3397 19.4919 27.5446V19.441C19.4919 17.6713 20.4277 17.0856 21.669 17.0856H22.1719C23.4896 17.0856 24.349 17.6204 24.349 19.441V27.5446ZM21.9745 15.7934C20.3513 15.7934 19.3264 14.9086 19.3264 13.4954C19.3264 12.0822 20.3131 11.2164 21.8727 11.2164C23.4323 11.2164 24.5017 12.0758 24.5017 13.4954C24.5017 14.9149 23.5405 15.7934 21.9745 15.7934ZM32.5162 30.1227C28.3403 30.1227 25.6858 27.5764 25.6858 23.515C25.6858 19.5937 28.4421 16.9583 32.5926 16.9583C36.7431 16.9583 39.4039 19.6128 39.4039 23.5405C39.4039 27.4682 36.6667 30.1227 32.5162 30.1227ZM32.5162 20.6568C32.145 20.6509 31.7766 20.7217 31.4341 20.8649C31.0916 21.0081 30.7824 21.2206 30.526 21.489C30.2695 21.7574 30.0714 22.076 29.9439 22.4246C29.8164 22.7733 29.7624 23.1445 29.7853 23.515C29.7568 23.8883 29.8067 24.2635 29.9318 24.6164C30.0568 24.9693 30.2542 25.2921 30.5113 25.5643C30.7685 25.8364 31.0797 26.0518 31.4249 26.1966C31.7702 26.3414 32.1419 26.4124 32.5162 26.4051C32.8872 26.4073 33.2547 26.3338 33.5962 26.1889C33.9377 26.0441 34.2461 25.8311 34.5024 25.5629C34.7586 25.2947 34.9574 24.9769 35.0866 24.6292C35.2158 24.2814 35.2725 23.911 35.2535 23.5405C35.2789 23.1698 35.2275 22.7978 35.1025 22.4478C34.9775 22.0979 34.7815 21.7775 34.527 21.5068C34.2724 21.2361 33.9646 21.0209 33.623 20.8746C33.2814 20.7283 32.9133 20.6542 32.5417 20.6568H32.5162Z" fill="#133AB7"/>
<path d="M22.0064 9.21129e-07C17.6546 -0.00125808 13.4003 1.28811 9.78143 3.70502C6.16258 6.12192 3.34179 9.55779 1.67588 13.578C0.00996134 17.5983 -0.426248 22.0222 0.422423 26.2904C1.27109 30.5586 3.36652 34.4792 6.44366 37.5563C9.5208 40.6335 13.4414 42.7289 17.7096 43.5776C21.9778 44.4262 26.4017 43.99 30.422 42.3241C34.4422 40.6582 37.8781 37.8374 40.295 34.2186C42.7119 30.5997 44.0013 26.3454 44 21.9936C44 19.1054 43.4311 16.2454 42.3258 13.577C41.2206 10.9086 39.6005 8.48408 37.5582 6.44179C35.5159 4.39949 33.0914 2.77945 30.423 1.67417C27.7546 0.568883 24.8946 9.21129e-07 22.0064 9.21129e-07Z" fill="#03007F"/>
<path d="M15.5516 13.2469H14.8132C13.4255 13.2469 12.6616 14.0298 12.6616 15.6022V23.1901C12.6616 25.1381 12.025 25.8192 10.459 25.8192C9.87973 25.8207 9.30811 25.6868 8.78976 25.4281C8.2714 25.1695 7.82066 24.7933 7.47349 24.3296C7.3971 24.2278 5.80566 24.9662 5.80566 26.8759C5.80566 28.9066 7.71539 30.1415 11.2229 30.1415C15.5007 30.1415 17.7478 27.9899 17.7478 23.2856V15.6467C17.7478 14.0489 16.9903 13.2469 15.5516 13.2469ZM22.1783 17.0663H21.6691C20.3959 17.0663 19.492 17.652 19.492 19.4216V27.5443C19.492 29.3394 20.4023 29.8996 21.72 29.8996H22.2293C23.4642 29.8996 24.3554 29.2631 24.3554 27.5443V19.4407C24.3554 17.6201 23.4897 17.0663 22.1783 17.0663ZM21.8728 11.2162C20.3005 11.2162 19.3265 12.101 19.3265 13.4951C19.3265 14.8892 20.3514 15.7932 21.9746 15.7932C23.5979 15.7932 24.5209 14.9083 24.5209 13.4888C24.5209 12.0692 23.5152 11.2162 21.8728 11.2162ZM32.5672 16.9454C28.4422 16.9645 25.6922 19.6126 25.6922 23.5212C25.6922 27.4297 28.3467 30.1224 32.5227 30.1224C36.6986 30.1224 39.4104 27.5761 39.4104 23.5403C39.4104 19.5044 36.6986 16.9644 32.5927 16.9644L32.5672 16.9454ZM32.5163 26.3857C32.1426 26.393 31.7714 26.3221 31.4266 26.1777C31.0818 26.0333 30.771 25.8185 30.514 25.5471C30.2569 25.2756 30.0594 24.9536 29.9339 24.6014C29.8085 24.2493 29.7579 23.8749 29.7854 23.5021C29.7675 23.1319 29.825 22.762 29.9544 22.4147C30.0837 22.0675 30.2822 21.7501 30.5378 21.4818C30.7935 21.2135 31.1009 20.9999 31.4416 20.854C31.7822 20.7081 32.1489 20.6328 32.5195 20.6328C32.8901 20.6328 33.2568 20.7081 33.5974 20.854C33.938 20.9999 34.2455 21.2135 34.5011 21.4818C34.7568 21.7501 34.9553 22.0675 35.0846 22.4147C35.214 22.762 35.2714 23.1319 35.2536 23.5021C35.2779 23.8735 35.2259 24.246 35.1007 24.5965C34.9756 24.9471 34.7799 25.2682 34.5258 25.5402C34.2717 25.8122 33.9645 26.0293 33.6233 26.178C33.2821 26.3267 32.914 26.4039 32.5418 26.4048L32.5163 26.3857Z" fill="white"/>
<path d="M62.3823 17.8632C62.3432 17.3547 62.1215 16.9701 61.7174 16.7094C61.3263 16.4486 60.7331 16.3183 59.9378 16.3183C59.3121 16.3183 58.7971 16.4356 58.3929 16.6703C58.0018 16.9049 57.8063 17.2374 57.8063 17.6676C57.8063 17.9544 57.8519 18.1891 57.9432 18.3716C58.0344 18.5411 58.1974 18.691 58.4321 18.8214C58.6798 18.9387 59.0383 19.0626 59.5076 19.1929L61.3654 19.6818C62.291 19.9295 63.0537 20.1903 63.6534 20.4641C64.2661 20.7248 64.7811 21.1224 65.1983 21.6569C65.6155 22.1784 65.8241 22.8694 65.8241 23.7298C65.8241 24.6033 65.6024 25.366 65.1592 26.0178C64.7159 26.6697 64.0641 27.1781 63.2036 27.5432C62.3562 27.9082 61.3393 28.0907 60.1529 28.0907C59.1361 28.0907 58.1909 27.9473 57.3174 27.6605C56.4569 27.3606 55.7529 26.8978 55.2054 26.2721C54.6709 25.6332 54.4036 24.8445 54.4036 23.9058V23.8081H57.3956V23.8472C57.3956 24.5121 57.6694 24.9944 58.2169 25.2943C58.7775 25.5811 59.4815 25.7245 60.3289 25.7245C61.046 25.7245 61.6457 25.6006 62.1281 25.3529C62.6104 25.0922 62.8516 24.7076 62.8516 24.1992C62.8516 23.7559 62.6756 23.3909 62.3236 23.1041C61.9716 22.8172 61.3784 22.563 60.5441 22.3414L57.8649 21.6178C55.8572 21.0833 54.8534 19.8969 54.8534 18.0587C54.8534 17.1852 55.0881 16.4421 55.5574 15.8294C56.0398 15.2036 56.6721 14.7343 57.4543 14.4214C58.2495 14.1085 59.1165 13.9521 60.0552 13.9521C61.046 13.9521 61.939 14.0955 62.7343 14.3823C63.5295 14.6561 64.1618 15.0863 64.6312 15.6729C65.1135 16.2596 65.3547 16.9897 65.3547 17.8632H62.3823ZM77.0379 23.3974H69.9393C69.9784 24.2578 70.2065 24.9032 70.6237 25.3334C71.0409 25.7506 71.6406 25.9592 72.4228 25.9592C72.9574 25.9592 73.4006 25.8549 73.7526 25.6463C74.1046 25.4377 74.3197 25.1704 74.3979 24.8445H76.8619C76.5882 25.8875 76.0536 26.6827 75.2584 27.2303C74.4762 27.7778 73.4854 28.0516 72.2859 28.0516C71.243 28.0516 70.3369 27.8365 69.5677 27.4063C68.7985 26.963 68.2054 26.3438 67.7882 25.5485C67.384 24.7402 67.1819 23.8015 67.1819 22.7325C67.1819 21.7286 67.3905 20.8226 67.8077 20.0143C68.2379 19.1929 68.8311 18.5541 69.5873 18.0978C70.3565 17.6285 71.2299 17.3938 72.2077 17.3938C73.2507 17.3938 74.1307 17.635 74.8477 18.1174C75.5778 18.5867 76.1254 19.2386 76.4904 20.0729C76.8685 20.9073 77.0575 21.8525 77.0575 22.9085L77.0379 23.3974ZM74.2806 21.6374C74.1502 20.2033 73.4462 19.4863 72.1686 19.4863C71.5298 19.4863 71.0148 19.6753 70.6237 20.0534C70.2456 20.4315 70.0175 20.9595 69.9393 21.6374H74.2806ZM85.3902 20.0925C85.2989 20.0664 85.1816 20.0469 85.0382 20.0338C84.8947 20.0078 84.7253 19.9947 84.5297 19.9947C83.6041 19.9947 82.9066 20.2881 82.4373 20.8747C81.981 21.4614 81.7528 22.2436 81.7528 23.2214V27.7778H78.9759V17.6676H81.6159V19.5449H81.655C81.8897 18.8931 82.2613 18.3716 82.7697 17.9805C83.2912 17.5894 83.8909 17.3938 84.5688 17.3938C84.8817 17.3938 85.1555 17.4264 85.3902 17.4916V20.0925ZM88.7618 17.6676L90.776 24.5512H90.8151L92.8489 17.6676H95.6062L92.3014 27.7778H89.192L85.848 17.6676H88.7618ZM100.151 14.6756C100.151 14.9755 100.079 15.2427 99.9357 15.4774C99.8053 15.7121 99.6163 15.9011 99.3686 16.0445C99.1209 16.1749 98.8406 16.2401 98.5277 16.2401C98.2148 16.2401 97.9345 16.1749 97.6868 16.0445C97.4391 15.9011 97.2435 15.7121 97.1001 15.4774C96.9697 15.2427 96.9046 14.9755 96.9046 14.6756C96.9046 14.3758 96.9697 14.1085 97.1001 13.8738C97.2435 13.6392 97.4391 13.4566 97.6868 13.3263C97.9345 13.1829 98.2148 13.1112 98.5277 13.1112C98.8406 13.1112 99.1209 13.1829 99.3686 13.3263C99.6163 13.4566 99.8053 13.6392 99.9357 13.8738C100.079 14.1085 100.151 14.3758 100.151 14.6756ZM99.9161 17.6676V27.7778H97.1392V17.6676H99.9161ZM109.058 20.9138C109.005 20.4445 108.823 20.0925 108.51 19.8578C108.21 19.6232 107.793 19.5058 107.258 19.5058C106.502 19.5058 105.909 19.7861 105.479 20.3467C105.062 20.9073 104.853 21.6765 104.853 22.6543C104.853 23.6712 105.049 24.4729 105.44 25.0596C105.844 25.6463 106.431 25.9396 107.2 25.9396C107.747 25.9396 108.184 25.8027 108.51 25.5289C108.849 25.2552 109.051 24.8445 109.116 24.2969H111.795C111.704 25.0922 111.45 25.7701 111.033 26.3307C110.615 26.8913 110.068 27.3215 109.39 27.6214C108.712 27.9082 107.93 28.0516 107.043 28.0516C106.013 28.0516 105.12 27.83 104.364 27.3867C103.621 26.9304 103.054 26.3046 102.663 25.5094C102.272 24.7141 102.076 23.8146 102.076 22.8107C102.076 21.7156 102.298 20.7639 102.741 19.9556C103.184 19.1343 103.797 18.502 104.579 18.0587C105.375 17.6155 106.281 17.3938 107.298 17.3938C108.145 17.3938 108.895 17.5372 109.546 17.8241C110.198 18.1109 110.713 18.5215 111.091 19.0561C111.482 19.5775 111.698 20.1968 111.737 20.9138H109.058ZM123.081 23.3974H115.983C116.022 24.2578 116.25 24.9032 116.667 25.3334C117.084 25.7506 117.684 25.9592 118.466 25.9592C119.001 25.9592 119.444 25.8549 119.796 25.6463C120.148 25.4377 120.363 25.1704 120.441 24.8445H122.905C122.632 25.8875 122.097 26.6827 121.302 27.2303C120.52 27.7778 119.529 28.0516 118.329 28.0516C117.286 28.0516 116.38 27.8365 115.611 27.4063C114.842 26.963 114.249 26.3438 113.832 25.5485C113.427 24.7402 113.225 23.8015 113.225 22.7325C113.225 21.7286 113.434 20.8226 113.851 20.0143C114.281 19.1929 114.875 18.5541 115.631 18.0978C116.4 17.6285 117.273 17.3938 118.251 17.3938C119.294 17.3938 120.174 17.635 120.891 18.1174C121.621 18.5867 122.169 19.2386 122.534 20.0729C122.912 20.9073 123.101 21.8525 123.101 22.9085L123.081 23.3974ZM120.324 21.6374C120.194 20.2033 119.49 19.4863 118.212 19.4863C117.573 19.4863 117.058 19.6753 116.667 20.0534C116.289 20.4315 116.061 20.9595 115.983 21.6374H120.324ZM131.179 14.2649C132.418 14.2649 133.5 14.5322 134.426 15.0667C135.364 15.5882 136.081 16.3509 136.577 17.3547C137.085 18.3586 137.339 19.558 137.339 20.9529C137.339 22.374 137.092 23.5995 136.596 24.6294C136.101 25.6463 135.39 26.4285 134.465 26.9761C133.539 27.5106 132.444 27.7778 131.179 27.7778H125.293V14.2649H131.179ZM130.906 25.1769C131.544 25.1769 132.118 25.0401 132.626 24.7663C133.135 24.4795 133.533 24.0427 133.819 23.4561C134.119 22.8564 134.269 22.1002 134.269 21.1876C134.269 19.6884 133.943 18.5932 133.291 17.9023C132.639 17.2113 131.681 16.8658 130.417 16.8658H128.363V25.1769H130.906ZM148.843 23.3974H141.745C141.784 24.2578 142.012 24.9032 142.429 25.3334C142.846 25.7506 143.446 25.9592 144.228 25.9592C144.763 25.9592 145.206 25.8549 145.558 25.6463C145.91 25.4377 146.125 25.1704 146.203 24.8445H148.667C148.394 25.8875 147.859 26.6827 147.064 27.2303C146.282 27.7778 145.291 28.0516 144.091 28.0516C143.049 28.0516 142.142 27.8365 141.373 27.4063C140.604 26.963 140.011 26.3438 139.594 25.5485C139.19 24.7402 138.987 23.8015 138.987 22.7325C138.987 21.7286 139.196 20.8226 139.613 20.0143C140.043 19.1929 140.637 18.5541 141.393 18.0978C142.162 17.6285 143.035 17.3938 144.013 17.3938C145.056 17.3938 145.936 17.635 146.653 18.1174C147.383 18.5867 147.931 19.2386 148.296 20.0729C148.674 20.9073 148.863 21.8525 148.863 22.9085L148.843 23.3974ZM146.086 21.6374C145.956 20.2033 145.252 19.4863 143.974 19.4863C143.335 19.4863 142.82 19.6753 142.429 20.0534C142.051 20.4315 141.823 20.9595 141.745 21.6374H146.086ZM156.55 20.3663C156.524 19.9752 156.368 19.6949 156.081 19.5254C155.794 19.3429 155.377 19.2516 154.829 19.2516C154.321 19.2516 153.936 19.3364 153.676 19.5058C153.428 19.6623 153.304 19.8904 153.304 20.1903C153.304 20.4249 153.376 20.6205 153.519 20.7769C153.663 20.9204 153.871 21.0442 154.145 21.1485C154.432 21.2528 154.816 21.3571 155.299 21.4614L156.433 21.7156C157.463 21.9503 158.226 22.3153 158.721 22.8107C159.216 23.2931 159.464 23.9254 159.464 24.7076C159.464 25.4898 159.256 26.1352 158.838 26.6436C158.434 27.139 157.893 27.4975 157.215 27.7192C156.537 27.9408 155.781 28.0516 154.947 28.0516C154.047 28.0516 153.252 27.9278 152.561 27.6801C151.87 27.4324 151.323 27.0673 150.918 26.5849C150.527 26.0895 150.332 25.4833 150.332 24.7663H152.972C152.985 25.2226 153.174 25.5746 153.539 25.8223C153.917 26.07 154.393 26.1938 154.966 26.1938C155.462 26.1938 155.872 26.0961 156.198 25.9005C156.524 25.7049 156.687 25.4116 156.687 25.0205C156.687 24.6815 156.537 24.4012 156.237 24.1796C155.938 23.9449 155.462 23.7559 154.81 23.6125L153.695 23.3583C152.952 23.1888 152.346 22.9802 151.877 22.7325C151.42 22.4718 151.081 22.1589 150.86 21.7938C150.638 21.4288 150.527 20.9855 150.527 20.4641C150.527 19.7992 150.71 19.2386 151.075 18.7823C151.44 18.326 151.948 17.9805 152.6 17.7458C153.252 17.5112 154.015 17.3938 154.888 17.3938C156.218 17.3938 157.248 17.6481 157.978 18.1565C158.721 18.6649 159.119 19.4015 159.171 20.3663H156.55ZM164.392 21.3245H164.431L167.756 17.6676H171.002L166.758 22.0089C167.123 22.0872 167.482 22.2827 167.834 22.5956C168.186 22.9085 168.636 23.4626 169.183 24.2578C169.744 25.0401 170.493 26.2134 171.432 27.7778H168.108C167.391 26.5002 166.882 25.6202 166.582 25.1378C166.282 24.6555 166.015 24.3165 165.78 24.1209C165.559 23.9254 165.305 23.8276 165.018 23.8276L164.392 24.4534V27.7778H161.615V13.8152H164.392V21.3245Z" fill="#000093"/>
</svg>
