<svg width="174" height="134" viewBox="0 0 174 134" fill="none" xmlns="http://www.w3.org/2000/svg">
<path d="M160.008 60.4926H140.428C139.217 60.4926 138.234 61.4749 138.234 62.6866V72.463C138.234 73.6747 139.217 74.657 140.428 74.657H160.008C161.219 74.657 162.201 73.6747 162.201 72.463V62.6866C162.201 61.4749 161.219 60.4926 160.008 60.4926Z" fill="#60A8FF"/>
<path d="M150.218 80.1946L153.32 72.8404H147.116L150.218 80.1946Z" fill="#60A8FF"/>
<path d="M150.143 65.1439H155.751V65.9644L158.498 64.3804L155.751 62.7963V63.6169H150.143V65.1439Z" fill="#223A7A"/>
<path d="M158.498 68.3646H152.895V67.5485L150.143 69.1325L152.895 70.7166V69.896H158.498V68.3646Z" fill="white"/>
<path d="M146.703 69.8083L146.44 69.9048C145.927 69.3064 145.502 68.6387 145.176 67.9215C144.903 67.1862 144.755 66.4106 144.737 65.6266L144.93 65.5432L143.746 62.7086C143.515 62.887 143.32 63.1073 143.171 63.358C142.499 64.4945 142.565 66.2321 143.241 67.9303C143.917 69.6284 144.636 71.1466 145.953 72.0988C146.224 72.3228 146.537 72.4897 146.874 72.5892C147.211 72.6888 147.565 72.719 147.914 72.678L146.703 69.8083Z" fill="#223A7A"/>
<path d="M147.554 69.4748L147.186 69.6065L148.401 72.5113C148.527 72.4699 148.649 72.4171 148.765 72.3534C148.917 72.2711 149.032 72.1366 149.091 71.9751C149.15 71.8135 149.148 71.636 149.086 71.4758L148.454 69.8829C148.387 69.7109 148.255 69.5718 148.087 69.4955C147.919 69.4193 147.728 69.4118 147.554 69.4748Z" fill="#223A7A"/>
<path d="M144.663 62.1952C144.499 62.256 144.34 62.3309 144.189 62.419L145.4 65.315L145.808 65.1483C145.977 65.0755 146.111 64.9405 146.183 64.7714C146.255 64.6023 146.259 64.412 146.194 64.24L145.558 62.634C145.496 62.4581 145.368 62.3135 145.2 62.2314C145.033 62.1493 144.84 62.1363 144.663 62.1952Z" fill="#223A7A"/>
<path d="M34.8449 121.108V88.4265C34.8449 88.4265 34.4807 79.6198 39.1144 77.0792C43.7481 74.5385 63.2482 75.8988 63.2482 75.8988V121.095L34.8449 121.108Z" fill="#1C83FF"/>
<path d="M69.3607 45.3015C69.3607 45.3015 68.1803 55.2007 67.724 56.0169L67.2852 56.8331L65.0254 58.3776C65.0254 58.3776 69.3827 64.5515 74.736 65.5476C80.0893 66.5436 79.6417 63.3536 79.6417 63.3536L78.8212 61.6247L79.9138 52.1862C79.9138 52.1862 70.1769 47.7543 69.3607 45.3015Z" fill="#FF9D8C"/>
<path d="M62.1863 59.1938L65.7274 57.6492C65.7274 57.6492 67.996 61.3702 73.2615 63.5511C78.5271 65.7319 78.6192 64.4594 78.8913 63.5511C79.0405 62.9188 79.0086 62.2573 78.7992 61.6423L79.1897 58.4654L81.2959 59.1675L88.6063 118.295L69.8126 119.204L62.1863 59.1938Z" fill="white"/>
<path d="M79.5276 58.5268C79.5276 58.5268 80.8001 61.4623 81.9805 68.3646C83.1608 75.2669 84.249 86.8819 84.5211 94.8724C84.7932 102.863 84.9599 121.108 84.9599 121.108H108.655C108.927 121.108 110.564 112.122 110.564 112.122C110.564 112.122 100.226 103.253 99.6903 101.801C99.3261 100.836 99.5104 82.8888 97.9659 74.6263C96.4213 66.3637 94.4248 64.7007 90.2386 62.6339C85.9253 60.5145 79.5276 58.5268 79.5276 58.5268Z" fill="#223A7A"/>
<path d="M91.8755 110.709C91.8173 110.709 91.7615 110.686 91.7203 110.644C91.6792 110.603 91.6561 110.547 91.6561 110.489C91.6561 109.84 91.5376 100.616 91.4279 91.6955C91.3182 82.7748 91.1997 73.5556 91.1997 72.9018C91.1997 72.8436 91.2228 72.7878 91.264 72.7467C91.3051 72.7056 91.3609 72.6824 91.4191 72.6824C91.4773 72.6824 91.5331 72.7056 91.5742 72.7467C91.6154 72.7878 91.6385 72.8436 91.6385 72.9018C91.6385 73.5513 91.757 82.7748 91.8667 91.6911C91.9764 100.608 92.0949 109.835 92.0949 110.489C92.0937 110.547 92.0703 110.602 92.0293 110.643C91.9884 110.684 91.9333 110.708 91.8755 110.709Z" fill="#8593B6"/>
<path d="M44.6653 108.488L44.4854 121.108H72.0813C72.0813 121.108 73.2617 110.397 72.8097 109.397C72.3578 108.396 44.6653 108.488 44.6653 108.488Z" fill="#223A7A"/>
<g style="mix-blend-mode:multiply">
<g style="mix-blend-mode:multiply">
<path d="M75.3811 55.7448C76.5554 56.6275 77.8575 57.3259 79.2425 57.816L79.8919 52.2037C79.8919 52.2037 72.5947 48.8601 70.1199 46.3721C70.6377 49.198 71.9102 52.9409 75.3811 55.7448Z" fill="#8E9BBB"/>
</g>
</g>
<path d="M88.4265 26.872C89.6482 29.1235 90.4188 31.5918 90.6951 34.1384C91.0593 38.1315 90.6951 48.3906 87.426 52.7478C84.157 57.1051 77.3337 55.8194 74.2621 53.1866C71.4275 50.7733 68.6323 48.1054 67.9083 42.8398C67.1843 37.5742 69.4485 27.5872 75.8944 25.4985C82.3404 23.4098 88.4265 26.872 88.4265 26.872Z" fill="#FF9D8C"/>
<path d="M96.6188 115.404C96.6188 115.404 96.2985 115.404 95.8114 115.404H95.4385L93.8237 115.36H93.4375C92.8671 115.36 92.38 115.417 91.9237 115.391C91.8271 115.391 91.6867 115.391 91.5726 115.391C91.5245 115.395 91.476 115.395 91.4279 115.391C91.2166 115.343 91.0139 115.263 90.8267 115.154C87.7474 114.37 84.5871 113.949 81.4101 113.899C77.3556 113.899 73.718 114.193 73.1256 113.697C72.5332 113.201 72.169 108.098 75.6311 107.764L79.8875 109.379C79.8875 109.379 89.6068 108.225 93.1699 110.853C96.7329 113.482 96.6188 115.404 96.6188 115.404Z" fill="#FF9D8C"/>
<path d="M91.9062 115.36C91.8097 115.36 91.6692 115.36 91.5551 115.36C91.4436 115.184 91.319 115.017 91.1822 114.86C90.0852 113.741 87.4348 113.017 86.4739 112.784C86.4317 112.774 86.3953 112.747 86.3723 112.71C86.3494 112.673 86.3417 112.629 86.351 112.587C86.3562 112.565 86.3655 112.545 86.3784 112.527C86.3913 112.51 86.4077 112.495 86.4264 112.483C86.4452 112.472 86.466 112.464 86.4877 112.461C86.5094 112.458 86.5315 112.459 86.5529 112.464C87.9526 112.802 90.9408 113.666 91.7658 115.097C91.7921 115.136 91.8623 115.29 91.9062 115.36Z" fill="#223A7A"/>
<path d="M93.8192 115.338C93.6919 115.338 93.5603 115.338 93.4331 115.338C92.2351 113.144 90.2781 112.53 87.8559 111.749L87.7111 111.7C87.6907 111.693 87.6718 111.683 87.6555 111.668C87.6393 111.654 87.626 111.637 87.6164 111.617C87.6068 111.598 87.6012 111.577 87.5997 111.556C87.5983 111.534 87.6011 111.512 87.608 111.492C87.6149 111.471 87.6258 111.453 87.64 111.436C87.6542 111.42 87.6715 111.407 87.6909 111.397C87.7102 111.388 87.7313 111.382 87.7528 111.38C87.7744 111.379 87.796 111.382 87.8165 111.389L87.9569 111.437C90.5151 112.244 92.5774 112.903 93.8192 115.338Z" fill="#223A7A"/>
<path d="M95.807 115.386H95.4341C94.7735 114.204 93.8694 113.176 92.7816 112.37C91.6938 111.563 90.4472 110.997 89.1242 110.709C89.1023 110.705 89.0812 110.698 89.0624 110.686C89.0435 110.675 89.0272 110.659 89.0145 110.641C89.0018 110.623 88.9929 110.603 88.9883 110.581C88.9838 110.56 88.9837 110.537 88.9881 110.516C88.9976 110.474 89.0222 110.438 89.057 110.413C89.0919 110.389 89.1346 110.378 89.1768 110.384C92.4546 110.998 95.1006 113.67 95.807 115.386Z" fill="#223A7A"/>
<path d="M70.0848 38.3597C71.5559 37.5142 72.7414 36.2492 73.4899 34.7264C74.3287 33.1648 74.7503 31.4131 74.7141 29.6408C74.7141 29.6408 77.2591 29.2327 81.0723 30.3692C84.8854 31.5057 89.4094 33.0458 93.2358 30.8694C97.0621 28.693 97.0489 25.1957 95.1884 23.7433C93.1041 22.1154 88.9706 23.1071 88.9706 23.1071C88.9706 23.1071 90.5591 21.5625 89.6947 20.6542C88.8302 19.7459 85.7016 20.9262 85.7016 20.9262C85.7016 20.9262 81.8884 17.8854 74.6702 18.2496C67.452 18.6138 64.0031 23.6512 63.595 29.2853C63.1869 34.9195 65.2273 40.5405 65.2273 40.5405L70.0848 38.3597Z" fill="#223A7A"/>
<g style="mix-blend-mode:multiply">
<g style="mix-blend-mode:multiply">
<path d="M84.7274 39.7244C84.3193 40.7292 84.3281 41.9184 84.2272 42.9715C84.1482 43.8052 83.9946 44.7749 84.7581 45.3366C85.1223 45.6043 86.8424 46.3283 85.956 46.9163C85.5498 47.0852 85.104 47.1354 84.6704 47.0611C84.4027 47.0611 84.135 47.0611 83.8718 47.0172C83.6085 46.9733 83.3057 46.9119 83.0249 46.9075C82.9894 46.9089 82.9552 46.9215 82.9274 46.9436C82.8996 46.9657 82.8796 46.9962 82.8703 47.0304C82.861 47.0647 82.8629 47.1011 82.8757 47.1342C82.8885 47.1674 82.9116 47.1955 82.9415 47.2147C83.4548 47.4813 84.0261 47.617 84.6045 47.6096C85.0775 47.663 85.5558 47.5793 85.9824 47.3682C86.1381 47.3122 86.2774 47.2183 86.3877 47.095C86.498 46.9716 86.5759 46.8227 86.6142 46.6618C86.6155 46.4668 86.566 46.2749 86.4706 46.1049C86.3752 45.9348 86.2372 45.7925 86.0701 45.692C85.7279 45.4375 85.3066 45.319 84.96 45.0689C84.4773 44.7267 84.5212 44.1475 84.5519 43.6077C84.6309 42.3177 84.9293 41.0496 85.0433 39.7639C85.0433 39.5708 84.7888 39.5708 84.7274 39.7244Z" fill="#8E9BBB"/>
</g>
</g>
<path d="M88.4397 42.7389C88.3036 43.5068 87.7464 44.0553 87.1979 43.95C86.6494 43.8446 86.3203 43.1513 86.4431 42.3878C86.566 41.6243 87.1365 41.0714 87.685 41.1768C88.2334 41.2821 88.5757 41.9754 88.4397 42.7389Z" fill="#223A7A"/>
<path d="M81.4934 42.1334C81.3706 42.9583 80.787 43.5595 80.1771 43.4498C79.5671 43.3401 79.1985 42.6204 79.3214 41.7955C79.4443 40.9705 80.0279 40.3738 80.6378 40.4791C81.2477 40.5844 81.6163 41.3084 81.4934 42.1334Z" fill="#223A7A"/>
<path d="M86.8206 39.5883C87.2594 39.6585 87.6763 39.5883 88.1019 39.6146L88.4091 39.6454H88.374H88.4398L88.6021 39.6761C88.6899 39.698 88.7776 39.7331 88.8698 39.7551C88.9547 39.7753 89.0414 39.7871 89.1287 39.7902L89.2691 39.7682H89.1813C89.2398 39.7717 89.2984 39.7717 89.3569 39.7682C89.4745 39.7325 89.5738 39.6529 89.6343 39.5458C89.6948 39.4388 89.7117 39.3126 89.6816 39.1934C89.6634 39.1265 89.6321 39.0638 89.5894 39.0091C89.5894 38.9828 89.5499 38.9608 89.5324 38.9389L89.585 38.9959L89.528 38.9214C89.504 38.8819 89.4709 38.8488 89.4315 38.8248L89.3261 38.7458C89.2061 38.6709 89.074 38.6175 88.9356 38.5879C88.6801 38.5238 88.418 38.49 88.1546 38.4869C87.896 38.4898 87.638 38.5103 87.3823 38.5484C87.1448 38.5757 86.9175 38.66 86.7197 38.7941C86.646 38.8389 86.5871 38.9044 86.5505 38.9824C86.5138 39.0605 86.5009 39.1476 86.5135 39.2329C86.5249 39.3159 86.56 39.394 86.6144 39.4577C86.6688 39.5215 86.7404 39.5683 86.8206 39.5927V39.5883Z" fill="#223A7A"/>
<path d="M81.9806 38.3728C81.9229 38.3378 81.8628 38.307 81.8007 38.2807C81.7524 38.2588 81.612 38.1842 81.7173 38.2412L81.5988 38.1798C81.4239 38.0939 81.2399 38.0276 81.0503 37.9823C80.6346 37.8786 80.2038 37.8489 79.7778 37.8946C79.3335 37.9292 78.903 38.0642 78.5185 38.2895C78.46 38.3209 78.4055 38.3592 78.3561 38.4036L78.2683 38.522V38.4825C78.209 38.5237 78.1607 38.5789 78.1278 38.6432C78.0949 38.7075 78.0783 38.7789 78.0797 38.8511C78.0797 38.9187 78.098 38.9851 78.1328 39.043C78.1676 39.101 78.2175 39.1484 78.2771 39.1802C78.3466 39.2094 78.4212 39.2245 78.4965 39.2245C78.5719 39.2245 78.6465 39.2094 78.7159 39.1802H78.4877C78.6005 39.2044 78.7172 39.2044 78.83 39.1802C78.83 39.1802 78.9529 39.1495 78.8739 39.1802C78.7949 39.211 78.9967 39.1802 79.0187 39.1802C79.0406 39.1802 79.181 39.1802 79.0187 39.1802H79.0977L79.3039 39.1583C79.6023 39.1583 79.9007 39.1232 80.2034 39.1144C80.5062 39.1056 80.7651 39.1144 81.0459 39.1144H81.4014C81.4672 39.1144 81.4409 39.1144 81.4014 39.1144H81.476L81.6251 39.1627C81.7229 39.1852 81.8255 39.1736 81.9157 39.1296C82.0059 39.0857 82.0784 39.0122 82.121 38.9213C82.1573 38.8273 82.1601 38.7236 82.129 38.6277C82.0978 38.5318 82.0345 38.4495 81.9499 38.3948L81.9806 38.3728Z" fill="#223A7A"/>
<path d="M84.135 50.9927C84.5852 50.1595 85.309 49.5071 86.1842 49.1454C85.4251 49.0664 81.8357 48.7373 80.9186 49.2507C79.905 49.8255 81.1073 52.1424 83.2048 52.2564C83.4102 52.2676 83.6163 52.2558 83.8191 52.2213C83.8369 51.7941 83.9445 51.3755 84.135 50.9927Z" fill="#223A7A"/>
<path d="M67.5439 46.122C67.5439 46.122 67.9081 47.5262 69.9968 49.1629C71.5829 50.309 73.3024 51.2579 75.1176 51.9887L75.3589 50.9312C75.3589 50.9312 72.2259 49.571 70.7735 48.0703C69.3211 46.5696 69.1412 45.7578 69.1412 45.7578L67.5439 46.122Z" fill="#DEE1EB"/>
<path d="M75.7145 50.1502C76.3474 50.1133 76.9723 50.306 77.4745 50.6929C77.9767 51.0798 78.3224 51.635 78.4482 52.2564C78.5666 53.134 77.7593 54.0818 75.8724 53.2349C73.5249 52.1818 74.0339 50.2248 75.7145 50.1502Z" fill="#223A7A"/>
<path d="M68.8606 35.7268C68.8606 35.7268 69.5846 30.5095 73.0818 26.9509C79.7559 20.189 85.4296 20.5971 85.4296 20.5971C85.4296 20.5971 85.3813 19.6449 83.2356 18.9165C81.2347 18.2364 80.3308 18.6006 80.3308 18.6006C80.3308 18.6006 74.837 19.0394 70.2077 24.1821C65.5784 29.3248 65.0913 35.8673 65.0913 35.8673L68.8606 35.7268Z" fill="#DEE1EB"/>
<path d="M68.3602 35.0906C63.9722 34.349 61.5501 37.7673 61.3702 41.2338C61.1902 44.7003 63.7089 47.276 67.0438 47.0259C74.578 46.4379 73.7179 35.9989 68.3602 35.0906Z" fill="white"/>
<path d="M66.1839 43.6735C65.6323 43.682 65.0892 43.5372 64.615 43.2551C64.1409 42.9731 63.7543 42.565 63.4985 42.0763C63.2051 41.547 63.0619 40.9476 63.0843 40.3429C63.1067 39.7381 63.2939 39.151 63.6257 38.6449C63.6378 38.627 63.6533 38.6117 63.6713 38.5998C63.6894 38.588 63.7095 38.5798 63.7307 38.5757C63.7519 38.5716 63.7737 38.5717 63.7948 38.5761C63.816 38.5804 63.836 38.5889 63.8539 38.601C63.8718 38.6131 63.8871 38.6286 63.8989 38.6466C63.9108 38.6646 63.919 38.6848 63.9231 38.706C63.9272 38.7272 63.927 38.749 63.9227 38.7701C63.9183 38.7912 63.9099 38.8113 63.8978 38.8292C63.603 39.2832 63.4371 39.8088 63.4177 40.3498C63.3984 40.8908 63.5264 41.4268 63.7881 41.9008C64.0199 42.3521 64.3773 42.7268 64.8171 42.9798C65.257 43.2328 65.7606 43.3533 66.2673 43.3268C66.7396 43.3252 67.2041 43.2069 67.6198 42.9826C68.0354 42.7584 68.3893 42.435 68.65 42.0412C68.9561 41.5684 69.148 41.0308 69.2105 40.4711C69.2729 39.9113 69.2042 39.3446 69.0098 38.816C68.8293 38.3198 68.4936 37.8951 68.0525 37.605C67.6113 37.3148 67.0884 37.1748 66.5613 37.2056C66.5399 37.2087 66.5182 37.2075 66.4973 37.2021C66.4764 37.1967 66.4568 37.1871 66.4397 37.1741C66.4225 37.161 66.4081 37.1446 66.3974 37.1259C66.3866 37.1073 66.3797 37.0866 66.377 37.0652C66.3719 37.0223 66.3838 36.9791 66.41 36.9447C66.4361 36.9103 66.4747 36.8874 66.5174 36.8809C67.1199 36.8344 67.7209 36.9875 68.2277 37.3167C68.7345 37.6458 69.1188 38.1326 69.3213 38.7019C69.5298 39.278 69.6027 39.8944 69.5342 40.5033C69.4657 41.1121 69.2577 41.6969 68.9264 42.2123C68.6366 42.6465 68.2454 43.0036 67.7868 43.2528C67.3281 43.5021 66.8156 43.6359 66.2936 43.6428L66.1839 43.6735Z" fill="#818FB3"/>
<path d="M63.0024 57.9213C63.0024 57.9213 49.7507 61.1903 45.1214 66.4559C40.4921 71.7215 38.3113 97.6851 38.2191 102.499C38.127 107.312 41.4882 109.309 43.4847 110.669C45.4812 112.029 54.2879 114.482 61.3701 114.846C68.4523 115.211 75.1703 114.846 75.1703 114.846C75.2525 113.514 75.6159 112.215 76.2366 111.033C77.2458 108.927 78.5271 108.488 78.5271 108.488L72.4453 106.294C72.4453 106.294 71.3791 87.2066 69.7204 77.9919C67.816 67.3642 63.0024 57.9213 63.0024 57.9213Z" fill="#223A7A"/>
<path d="M84.9731 103.262C84.9442 103.268 84.9143 103.268 84.8854 103.262C84.8325 103.238 84.7913 103.194 84.7707 103.14C84.7502 103.086 84.7519 103.026 84.7757 102.973C86.0175 100.169 87.3032 94.6706 88.0272 90.8091L88.0886 90.4976C88.308 89.3611 88.5801 87.9482 88.0359 86.9872C87.7551 86.4914 87.1276 85.4119 86.5265 84.3764C85.9253 83.3408 85.311 82.2833 85.1443 81.9805C84.8239 81.3882 85.8332 79.7866 87.29 77.6321C87.6805 77.0441 88.0228 76.5395 88.2202 76.1972C88.7424 75.3196 88.3958 74.4727 87.9965 73.5205L87.8429 73.1651C87.4831 72.2875 87.0706 71.3836 86.6713 70.5323L86.1842 69.4704C85.9692 69.0009 85.7454 68.527 85.5392 68.04C84.2836 65.063 82.8551 62.162 81.2609 59.3518C81.2319 59.301 81.2239 59.2409 81.2387 59.1843C81.2535 59.1277 81.2898 59.0791 81.3399 59.049C81.3646 59.0341 81.3919 59.0244 81.4204 59.0203C81.4489 59.0163 81.478 59.018 81.5058 59.0253C81.5336 59.0327 81.5597 59.0456 81.5824 59.0632C81.6052 59.0809 81.6242 59.1029 81.6383 59.128C83.2505 61.9474 84.6966 64.8587 85.9692 67.8469L86.6142 69.273L87.1013 70.3305C87.5006 71.2081 87.9131 72.0857 88.2817 72.994L88.4177 73.3187C88.8258 74.2928 89.247 75.2977 88.6195 76.3903C88.4133 76.7457 88.071 77.2679 87.6717 77.8515C86.9126 78.9836 85.3286 81.3399 85.548 81.7436C85.7103 82.042 86.2983 83.06 86.9214 84.1306C87.5445 85.2013 88.1588 86.25 88.4353 86.7634C89.0583 87.878 88.7687 89.3743 88.5362 90.581L88.4747 90.8881C88.2115 92.2967 86.8117 99.4929 85.1925 103.148C85.1717 103.187 85.1396 103.219 85.1004 103.239C85.0613 103.259 85.0169 103.267 84.9731 103.262Z" fill="#8593B6"/>
<path d="M72.0462 104.035C72.0175 104.035 71.9889 104.029 71.9625 104.018C71.936 104.007 71.9122 103.99 71.8926 103.969C70.8571 102.929 65.8855 94.3152 65.5125 92.696C65.3107 91.8184 65.8197 89.5586 66.3111 87.3822C66.6929 85.6972 67.0878 83.9552 66.9781 83.4856C66.807 82.7792 65.5345 81.7305 64.3058 80.7344C62.8183 79.5189 61.2825 78.264 60.9841 77.1319C60.6463 75.8462 60.9359 67.803 61.1289 62.4804C61.1948 60.5629 61.2518 59.0534 61.2518 58.5312C61.2518 58.473 61.2749 58.4172 61.3161 58.3761C61.3572 58.3349 61.413 58.3118 61.4712 58.3118C61.5294 58.3118 61.5852 58.3349 61.6263 58.3761C61.6675 58.4172 61.6906 58.473 61.6906 58.5312C61.6906 59.0753 61.6336 60.5936 61.5677 62.5111C61.3878 67.4871 61.0895 75.8155 61.4098 77.0397C61.6731 78.0314 63.2176 79.2951 64.5823 80.4141C65.9469 81.533 67.2151 82.551 67.4038 83.3979C67.5398 83.9683 67.1668 85.5919 66.7412 87.4963C66.3024 89.5279 65.7626 91.8228 65.9426 92.617C66.3068 94.2011 71.2081 102.657 72.2042 103.679C72.2246 103.699 72.2409 103.723 72.2519 103.749C72.263 103.776 72.2687 103.804 72.2687 103.833C72.2687 103.861 72.263 103.89 72.2519 103.916C72.2409 103.942 72.2246 103.966 72.2042 103.986C72.1826 104.005 72.1574 104.019 72.1303 104.027C72.1031 104.035 72.0745 104.038 72.0462 104.035Z" fill="#8593B6"/>
<path d="M54.2003 100.265H54.1696C54.1407 100.261 54.1128 100.252 54.0876 100.237C54.0624 100.223 54.0403 100.203 54.0228 100.18C54.0052 100.157 53.9924 100.13 53.9853 100.102C53.9781 100.073 53.9766 100.044 53.9809 100.015C54.1433 98.8742 56.662 76.1445 56.7761 74.4025C56.7802 74.3443 56.8072 74.2901 56.8512 74.2519C56.8952 74.2136 56.9527 74.1944 57.0108 74.1985C57.069 74.2025 57.1232 74.2296 57.1615 74.2736C57.1997 74.3176 57.219 74.375 57.2149 74.4332C57.0964 76.1884 54.5821 98.9357 54.4154 100.077C54.408 100.129 54.3823 100.176 54.3428 100.211C54.3034 100.245 54.2528 100.265 54.2003 100.265Z" fill="#8593B6"/>
<path d="M72.2655 106.439C72.238 106.445 72.2096 106.445 72.1821 106.439C71.6248 106.215 69.1588 105.382 66.0389 104.329C59.7378 102.205 51.1198 99.2955 49.4656 98.4443C49.4143 98.4163 49.3761 98.3695 49.3588 98.3138C49.3416 98.2581 49.3469 98.1978 49.3734 98.1459C49.4005 98.095 49.4465 98.0568 49.5015 98.0395C49.5565 98.0223 49.6161 98.0274 49.6674 98.0537C51.2778 98.8918 60.2468 101.915 66.175 103.916C69.3036 104.969 71.7784 105.803 72.3489 106.035C72.4022 106.058 72.4446 106.1 72.4668 106.154C72.489 106.207 72.4892 106.267 72.4673 106.321C72.4479 106.357 72.4188 106.387 72.3831 106.408C72.3475 106.429 72.3068 106.44 72.2655 106.439Z" fill="#8593B6"/>
<path d="M69.2334 115.491C63.6914 115.491 52.9409 114.491 44.7748 111.604C44.746 111.594 44.7194 111.579 44.6964 111.559C44.6734 111.54 44.6546 111.515 44.6409 111.488C44.6273 111.461 44.6191 111.432 44.6168 111.401C44.6146 111.371 44.6183 111.341 44.6278 111.312C44.6374 111.283 44.6524 111.256 44.6723 111.234C44.6921 111.211 44.7162 111.192 44.7433 111.178C44.7704 111.164 44.7999 111.156 44.8302 111.154C44.8604 111.152 44.8908 111.155 44.9196 111.165C55.2358 114.816 69.6678 115.439 72.3533 114.838C72.3821 114.831 72.4119 114.831 72.4409 114.836C72.4699 114.841 72.4977 114.852 72.5225 114.868C72.5474 114.884 72.5689 114.904 72.5858 114.929C72.6026 114.953 72.6146 114.98 72.6209 115.009C72.6273 115.038 72.6279 115.067 72.6227 115.096C72.6175 115.126 72.6067 115.153 72.5908 115.178C72.5749 115.203 72.5543 115.224 72.5301 115.241C72.5059 115.258 72.4786 115.27 72.4498 115.276C71.3867 115.448 70.3099 115.52 69.2334 115.491Z" fill="#8593B6"/>
<path d="M166.91 83.5251L149.555 117.9L98.9531 118.265L114.57 83.038L166.91 83.5251Z" fill="#F6F7FA"/>
<path d="M65.3765 118.05V115.298H98.1283L113.201 82.2526H165.593L166.91 83.5251H115.737L100.077 118.023C100.077 118.023 65.3765 117.958 65.3765 118.05Z" fill="#D9DEE8"/>
<path d="M140.635 102.494C140.064 104.21 136.962 105.531 133.706 105.452C130.45 105.373 128.274 103.916 128.844 102.2C129.415 100.485 132.521 99.1595 135.777 99.2429C139.033 99.3262 141.205 100.779 140.635 102.494Z" fill="#D9DEE8"/>
<path d="M100.077 118.243C100.045 118.242 100.013 118.234 99.9844 118.221C99.9315 118.197 99.8903 118.153 99.8697 118.099C99.8491 118.044 99.8509 117.984 99.8747 117.931L115.592 83.3057H166.932C166.99 83.3057 167.046 83.3288 167.087 83.3699C167.128 83.4111 167.151 83.4669 167.151 83.5251C167.15 83.5829 167.127 83.6381 167.086 83.679C167.045 83.7199 166.99 83.7433 166.932 83.7445H115.878L100.274 118.115C100.257 118.154 100.229 118.186 100.194 118.208C100.159 118.231 100.118 118.243 100.077 118.243Z" fill="white"/>
<path d="M63.0946 120.656H2.90479V134H63.0946V120.656Z" fill="#596B9B"/>
<path d="M171.048 120.656H62.7524V134H171.048V120.656Z" fill="#7A89AF"/>
<g style="mix-blend-mode:multiply">
<path d="M63.0947 120.656H62.7524H2.90479V123.105H62.7524H63.0947H171.048V120.656H63.0947Z" fill="#BDC4D7"/>
</g>
<path d="M65.7275 118.023H0V121.292H65.7275V118.023Z" fill="#6F7FA9"/>
<path d="M173.68 118.023H65.3853V121.292H173.68V118.023Z" fill="#9CA6C3"/>
<path d="M47.8993 32.6334H26.6527C25.3368 32.6334 24.27 33.7001 24.27 35.016V45.6218C24.27 46.9377 25.3368 48.0044 26.6527 48.0044H47.8993C49.2152 48.0044 50.2819 46.9377 50.2819 45.6218V35.016C50.2819 33.7001 49.2152 32.6334 47.8993 32.6334Z" fill="white"/>
<path d="M56.3328 40.3167L48.3555 36.9511V43.6867L56.3328 40.3167Z" fill="white"/>
<path d="M32.2341 41.7867C33.046 41.7867 33.7041 41.1286 33.7041 40.3167C33.7041 39.5049 33.046 38.8467 32.2341 38.8467C31.4223 38.8467 30.7642 39.5049 30.7642 40.3167C30.7642 41.1286 31.4223 41.7867 32.2341 41.7867Z" fill="#223A7A"/>
<path d="M37.2759 41.7867C38.0877 41.7867 38.7459 41.1286 38.7459 40.3167C38.7459 39.5049 38.0877 38.8467 37.2759 38.8467C36.464 38.8467 35.8059 39.5049 35.8059 40.3167C35.8059 41.1286 36.464 41.7867 37.2759 41.7867Z" fill="#223A7A"/>
<path d="M42.3132 41.7867C43.1251 41.7867 43.7832 41.1286 43.7832 40.3167C43.7832 39.5049 43.1251 38.8467 42.3132 38.8467C41.5014 38.8467 40.8433 39.5049 40.8433 40.3167C40.8433 41.1286 41.5014 41.7867 42.3132 41.7867Z" fill="#223A7A"/>
<path d="M156.076 1.68784e-06H107.018C105.505 1.68784e-06 104.055 0.600995 102.985 1.67077C101.915 2.74055 101.314 4.19148 101.314 5.70437V28.9606C101.314 30.4735 101.915 31.9245 102.985 32.9942C104.055 34.064 105.505 34.665 107.018 34.665H111.406C111.529 36.7712 111.226 39.9306 109.462 43.9236C113.835 41.9401 117.532 38.7219 120.099 34.665H156.08C157.593 34.665 159.044 34.064 160.114 32.9942C161.184 31.9245 161.785 30.4735 161.785 28.9606V5.70437C161.785 4.95489 161.637 4.21276 161.35 3.52039C161.063 2.82802 160.642 2.19897 160.112 1.66922C159.582 1.13946 158.953 0.719374 158.26 0.432961C157.568 0.146548 156.825 -0.000574833 156.076 1.68784e-06Z" fill="#F7AB20"/>
<path d="M135.15 11.0928H110.818C110.497 11.0917 110.19 10.9637 109.963 10.7368C109.736 10.51 109.608 10.2026 109.607 9.88174C109.608 9.56089 109.736 9.25352 109.963 9.02665C110.19 8.79978 110.497 8.67181 110.818 8.67065H135.15C135.47 8.67181 135.778 8.79978 136.005 9.02665C136.232 9.25352 136.36 9.56089 136.361 9.88174C136.36 10.2026 136.232 10.51 136.005 10.7368C135.778 10.9637 135.47 11.0917 135.15 11.0928Z" fill="white"/>
<path d="M152.596 18.1443H110.349C110.152 18.1443 109.963 18.0661 109.824 17.9271C109.685 17.788 109.607 17.5994 109.607 17.4027C109.607 17.206 109.685 17.0174 109.824 16.8783C109.963 16.7393 110.152 16.6611 110.349 16.6611H152.596C152.793 16.6611 152.981 16.7393 153.121 16.8783C153.26 17.0174 153.338 17.206 153.338 17.4027C153.338 17.5001 153.319 17.5965 153.281 17.6865C153.244 17.7765 153.189 17.8582 153.121 17.9271C153.052 17.9959 152.97 18.0506 152.88 18.0878C152.79 18.1251 152.694 18.1443 152.596 18.1443Z" fill="white"/>
<path d="M152.596 22.2646H110.349C110.152 22.2646 109.963 22.1864 109.824 22.0474C109.685 21.9083 109.607 21.7197 109.607 21.523C109.607 21.3263 109.685 21.1377 109.824 20.9986C109.963 20.8596 110.152 20.7814 110.349 20.7814H152.596C152.793 20.7814 152.981 20.8596 153.121 20.9986C153.26 21.1377 153.338 21.3263 153.338 21.523C153.338 21.6204 153.319 21.7168 153.281 21.8068C153.244 21.8968 153.189 21.9785 153.121 22.0474C153.052 22.1162 152.97 22.1709 152.88 22.2081C152.79 22.2454 152.694 22.2646 152.596 22.2646Z" fill="white"/>
<path d="M143.381 26.6526H110.349C110.152 26.6526 109.963 26.5744 109.824 26.4354C109.685 26.2963 109.607 26.1077 109.607 25.911C109.607 25.7143 109.685 25.5257 109.824 25.3866C109.963 25.2476 110.152 25.1694 110.349 25.1694H143.381C143.578 25.1694 143.767 25.2476 143.906 25.3866C144.045 25.5257 144.123 25.7143 144.123 25.911C144.123 26.1077 144.045 26.2963 143.906 26.4354C143.767 26.5744 143.578 26.6526 143.381 26.6526Z" fill="white"/>
<path d="M152.263 11.0928H140.657C140.336 11.0917 140.028 10.9637 139.802 10.7368C139.575 10.51 139.447 10.2026 139.446 9.88174C139.447 9.56089 139.575 9.25352 139.802 9.02665C140.028 8.79978 140.336 8.67181 140.657 8.67065H152.263C152.584 8.67181 152.891 8.79978 153.118 9.02665C153.345 9.25352 153.473 9.56089 153.474 9.88174C153.473 10.2026 153.345 10.51 153.118 10.7368C152.891 10.9637 152.584 11.0917 152.263 11.0928Z" fill="white"/>
<path d="M123.008 53.8536H109.831C109.346 53.8536 108.953 54.2466 108.953 54.7312V63.7354C108.953 64.22 109.346 64.6129 109.831 64.6129H123.008C123.493 64.6129 123.886 64.22 123.886 63.7354V54.7312C123.886 54.2466 123.493 53.8536 123.008 53.8536Z" fill="white"/>
<path d="M116.51 60.8393C116.435 60.8377 116.362 60.8115 116.303 60.7647L109.129 54.8409C109.096 54.8121 109.068 54.777 109.048 54.7376C109.029 54.6982 109.017 54.6553 109.013 54.6113C109.01 54.5673 109.016 54.523 109.029 54.4811C109.043 54.4392 109.065 54.4005 109.094 54.367C109.123 54.3336 109.158 54.3062 109.197 54.2863C109.237 54.2665 109.28 54.2546 109.324 54.2513C109.368 54.2481 109.412 54.2535 109.454 54.2673C109.496 54.2812 109.534 54.3031 109.568 54.3319L116.523 60.0802L123.302 54.1784C123.335 54.1495 123.373 54.1274 123.414 54.1133C123.455 54.0991 123.498 54.0932 123.542 54.0958C123.585 54.0985 123.628 54.1096 123.667 54.1287C123.706 54.1478 123.741 54.1743 123.77 54.2069C123.798 54.2394 123.82 54.2773 123.835 54.3184C123.849 54.3596 123.855 54.403 123.852 54.4464C123.849 54.4898 123.838 54.5323 123.819 54.5714C123.8 54.6104 123.774 54.6454 123.741 54.6742L116.751 60.7559C116.719 60.7856 116.68 60.8084 116.639 60.8227C116.597 60.837 116.553 60.8427 116.51 60.8393Z" fill="#6F7FA9"/>
<path d="M109.344 64.3628C109.279 64.364 109.216 64.3459 109.162 64.3109C109.107 64.2758 109.065 64.2254 109.039 64.1661C109.014 64.1067 109.007 64.0412 109.019 63.9777C109.031 63.9143 109.062 63.8559 109.107 63.8099L114.122 58.5444C114.184 58.4827 114.268 58.4481 114.355 58.4481C114.442 58.4481 114.526 58.4827 114.588 58.5444C114.649 58.6061 114.684 58.6897 114.684 58.7769C114.684 58.8641 114.649 58.9478 114.588 59.0095L109.572 64.2751C109.542 64.3045 109.506 64.3275 109.467 64.3426C109.428 64.3577 109.386 64.3646 109.344 64.3628Z" fill="#6F7FA9"/>
<path d="M123.504 64.1697C123.46 64.1703 123.416 64.162 123.376 64.1454C123.335 64.1289 123.298 64.1043 123.267 64.0732L118.274 59.0665C118.212 59.0048 118.177 58.9212 118.177 58.834C118.177 58.7467 118.212 58.6631 118.274 58.6014C118.304 58.5704 118.34 58.5457 118.38 58.5288C118.42 58.512 118.463 58.5033 118.506 58.5033C118.549 58.5033 118.592 58.512 118.632 58.5288C118.672 58.5457 118.708 58.5704 118.739 58.6014L123.737 63.6081C123.798 63.6705 123.833 63.7549 123.833 63.8428C123.833 63.9308 123.798 64.0151 123.737 64.0776C123.706 64.1078 123.67 64.1315 123.63 64.1473C123.59 64.1631 123.547 64.1708 123.504 64.1697Z" fill="#6F7FA9"/>
<path d="M124.57 57.9212C127.001 57.9212 128.971 55.9508 128.971 53.5201C128.971 51.0894 127.001 49.119 124.57 49.119C122.14 49.119 120.169 51.0894 120.169 53.5201C120.169 55.9508 122.14 57.9212 124.57 57.9212Z" fill="#FF5F42"/>
<path d="M123.617 53.2856C123.773 53.3789 123.895 53.4956 123.982 53.6356C124.072 53.7723 124.117 53.9156 124.117 54.0656C124.117 54.2556 124.063 54.4306 123.957 54.5906C123.853 54.7506 123.712 54.8773 123.532 54.9706C123.355 55.0639 123.16 55.1106 122.947 55.1106C122.733 55.1106 122.537 55.0639 122.357 54.9706C122.18 54.8773 122.038 54.7506 121.932 54.5906C121.828 54.4306 121.777 54.2556 121.777 54.0656C121.777 53.7456 121.938 53.4856 122.262 53.2856C122.145 53.2189 122.048 53.1289 121.972 53.0156C121.898 52.9023 121.862 52.7689 121.862 52.6156C121.862 52.4323 121.91 52.2639 122.007 52.1106C122.103 51.9573 122.233 51.8356 122.397 51.7456C122.563 51.6556 122.747 51.6106 122.947 51.6106C123.147 51.6106 123.328 51.6556 123.492 51.7456C123.658 51.8356 123.788 51.9573 123.882 52.1106C123.978 52.2639 124.027 52.4323 124.027 52.6156C124.027 52.7823 123.987 52.9206 123.907 53.0306C123.83 53.1373 123.733 53.2223 123.617 53.2856ZM122.947 52.1606C122.807 52.1606 122.69 52.2056 122.597 52.2956C122.507 52.3823 122.462 52.4923 122.462 52.6256C122.462 52.7623 122.507 52.8756 122.597 52.9656C122.69 53.0523 122.807 53.0956 122.947 53.0956C123.083 53.0956 123.197 53.0506 123.287 52.9606C123.38 52.8706 123.427 52.7589 123.427 52.6256C123.427 52.4923 123.38 52.3823 123.287 52.2956C123.197 52.2056 123.083 52.1606 122.947 52.1606ZM122.947 54.5606C123.107 54.5606 123.242 54.5123 123.352 54.4156C123.462 54.3156 123.517 54.1956 123.517 54.0556C123.517 53.9123 123.462 53.7923 123.352 53.6956C123.242 53.5956 123.107 53.5456 122.947 53.5456C122.787 53.5456 122.652 53.5956 122.542 53.6956C122.432 53.7923 122.377 53.9123 122.377 54.0556C122.377 54.1956 122.432 54.3156 122.542 54.4156C122.652 54.5123 122.787 54.5606 122.947 54.5606ZM125.791 52.7606C126.011 52.7606 126.21 52.8123 126.386 52.9156C126.566 53.0156 126.706 53.1539 126.806 53.3306C126.91 53.5073 126.961 53.7039 126.961 53.9206C126.961 54.1439 126.898 54.3506 126.771 54.5406C126.645 54.7306 126.476 54.8823 126.266 54.9956C126.056 55.1056 125.83 55.1606 125.586 55.1606C125.456 55.1606 125.321 55.1406 125.181 55.1006C125.045 55.0606 124.933 55.0056 124.846 54.9356C124.806 54.9023 124.773 54.8556 124.746 54.7956C124.72 54.7356 124.706 54.6789 124.706 54.6256C124.706 54.5656 124.731 54.5123 124.781 54.4656C124.835 54.4156 124.903 54.3906 124.986 54.3906C125.046 54.3906 125.121 54.4223 125.211 54.4856C125.351 54.5723 125.475 54.6156 125.581 54.6156C125.718 54.6156 125.846 54.5839 125.966 54.5206C126.086 54.4573 126.181 54.3723 126.251 54.2656C126.325 54.1589 126.361 54.0439 126.361 53.9206C126.361 53.7406 126.3 53.5939 126.176 53.4806C126.053 53.3673 125.906 53.3106 125.736 53.3106C125.66 53.3106 125.591 53.3206 125.531 53.3406C125.471 53.3606 125.4 53.3906 125.316 53.4306C125.256 53.4606 125.208 53.4823 125.171 53.4956C125.138 53.5089 125.103 53.5156 125.066 53.5156C124.936 53.5156 124.843 53.4806 124.786 53.4106C124.733 53.3406 124.706 53.2573 124.706 53.1606C124.706 53.1273 124.708 53.1039 124.711 53.0906L124.866 51.8506C124.88 51.7806 124.913 51.7239 124.966 51.6806C125.023 51.6339 125.09 51.6106 125.166 51.6106H126.611C126.691 51.6106 126.758 51.6373 126.811 51.6906C126.865 51.7439 126.891 51.8106 126.891 51.8906C126.891 51.9673 126.865 52.0323 126.811 52.0856C126.758 52.1356 126.691 52.1606 126.611 52.1606H125.371L125.276 52.8856C125.34 52.8489 125.42 52.8189 125.516 52.7956C125.613 52.7723 125.705 52.7606 125.791 52.7606Z" fill="white"/>
<path d="M168.797 44.3624H143.074C142.105 44.3624 141.319 45.1483 141.319 46.1176V50.1414C141.319 51.1108 142.105 51.8966 143.074 51.8966H168.797C169.766 51.8966 170.552 51.1108 170.552 50.1414V46.1176C170.552 45.1483 169.766 44.3624 168.797 44.3624Z" fill="#223A7A"/>
<path d="M144.93 50.1063C144.878 50.1087 144.826 50.0989 144.778 50.0775C144.73 50.0562 144.687 50.024 144.654 49.9834C144.618 49.9413 144.591 49.8924 144.574 49.8397C144.558 49.7869 144.552 49.7313 144.557 49.6763L144.671 48.6978C144.671 48.6758 144.671 48.6583 144.671 48.6495C144.671 48.6407 144.636 48.6495 144.61 48.6495L143.807 49.2287C143.765 49.2636 143.715 49.2888 143.662 49.3025C143.609 49.3161 143.554 49.3179 143.5 49.3077C143.445 49.2978 143.392 49.2757 143.347 49.243C143.301 49.2104 143.264 49.168 143.237 49.119C143.202 49.0688 143.181 49.011 143.174 48.9506C143.167 48.8902 143.175 48.829 143.197 48.7724C143.219 48.7238 143.251 48.6801 143.29 48.644C143.329 48.6078 143.375 48.5798 143.425 48.5617L144.325 48.1536C144.351 48.1536 144.364 48.1536 144.364 48.1185C144.364 48.0834 144.364 48.0878 144.325 48.0791L143.425 47.6754C143.372 47.6554 143.325 47.6237 143.286 47.5826C143.247 47.5416 143.218 47.4923 143.201 47.4384C143.186 47.3854 143.18 47.3297 143.186 47.2747C143.192 47.2196 143.21 47.1664 143.237 47.1181C143.264 47.0692 143.302 47.0267 143.348 46.9934C143.393 46.9601 143.445 46.9368 143.5 46.925C143.607 46.9096 143.717 46.9346 143.807 46.9952L144.61 47.5876C144.636 47.5876 144.654 47.5876 144.671 47.5876C144.689 47.5876 144.671 47.5613 144.671 47.5349L144.557 46.5608C144.551 46.5054 144.557 46.4493 144.575 46.3963C144.592 46.3433 144.62 46.2947 144.658 46.2537C144.696 46.2121 144.742 46.1795 144.793 46.1583C144.845 46.137 144.901 46.1276 144.957 46.1308C145.012 46.1298 145.066 46.1411 145.116 46.1638C145.166 46.1865 145.21 46.2202 145.246 46.2622C145.281 46.3043 145.306 46.3537 145.32 46.4069C145.334 46.4601 145.336 46.5157 145.325 46.5696L145.216 47.5437C145.216 47.57 145.216 47.5876 145.216 47.5964C145.226 47.6021 145.237 47.6052 145.248 47.6052C145.26 47.6052 145.271 47.6021 145.281 47.5964L146.08 47.0172C146.124 46.9822 146.175 46.9568 146.229 46.9425C146.284 46.9281 146.34 46.9252 146.396 46.9338C146.45 46.9445 146.501 46.9675 146.545 47.0009C146.59 47.0344 146.625 47.0775 146.65 47.1269C146.685 47.1768 146.707 47.2344 146.715 47.2948C146.723 47.3552 146.715 47.4165 146.694 47.4735C146.646 47.5692 146.565 47.6441 146.466 47.6841L145.562 48.0878C145.54 48.0878 145.527 48.0878 145.527 48.1273C145.527 48.1668 145.527 48.1536 145.562 48.1624L146.466 48.5705C146.519 48.591 146.567 48.6229 146.606 48.6638C146.646 48.7047 146.676 48.7537 146.694 48.8075C146.712 48.8607 146.717 48.9172 146.709 48.9727C146.702 49.0282 146.682 49.0812 146.65 49.1278C146.626 49.1772 146.59 49.2201 146.546 49.2529C146.502 49.2857 146.45 49.3075 146.396 49.3165C146.342 49.3273 146.286 49.327 146.231 49.3157C146.177 49.3044 146.126 49.2823 146.08 49.2506L145.281 48.6583C145.271 48.6525 145.26 48.6494 145.248 48.6494C145.237 48.6494 145.226 48.6525 145.216 48.6583C145.21 48.6652 145.207 48.6737 145.207 48.6824C145.207 48.6911 145.21 48.6996 145.216 48.7065L145.325 49.6851C145.335 49.7399 145.332 49.7964 145.316 49.8498C145.3 49.9032 145.272 49.952 145.233 49.9922C145.194 50.0315 145.146 50.062 145.094 50.0817C145.042 50.1013 144.986 50.1097 144.93 50.1063Z" fill="white"/>
<path d="M150.249 50.1063C150.196 50.1084 150.144 50.0984 150.096 50.0771C150.048 50.0558 150.006 50.0238 149.972 49.9835C149.937 49.9412 149.911 49.8921 149.895 49.8393C149.879 49.7865 149.874 49.7311 149.88 49.6763L149.99 48.6978C149.99 48.6759 149.99 48.6583 149.99 48.6495C149.99 48.6408 149.955 48.6495 149.928 48.6495L149.125 49.2287C149.083 49.2639 149.034 49.2893 148.981 49.303C148.928 49.3166 148.872 49.3183 148.818 49.3077C148.708 49.276 148.614 49.2021 148.557 49.102C148.501 49.0019 148.486 48.8835 148.515 48.7724C148.563 48.6767 148.644 48.6018 148.744 48.5618L149.648 48.1537C149.669 48.1537 149.683 48.1537 149.683 48.1186C149.683 48.0835 149.683 48.0879 149.648 48.0791L148.744 47.6754C148.692 47.6541 148.645 47.622 148.606 47.5811C148.568 47.5402 148.538 47.4916 148.52 47.4384C148.492 47.3305 148.506 47.216 148.559 47.1181C148.587 47.0697 148.624 47.0275 148.668 46.9943C148.713 46.961 148.764 46.9374 148.818 46.9251C148.926 46.9069 149.036 46.9321 149.125 46.9953L149.928 47.5876C149.955 47.5876 149.977 47.5876 149.99 47.5876C150.003 47.5876 149.99 47.5613 149.99 47.535L149.88 46.5609C149.875 46.5058 149.88 46.4502 149.897 46.3974C149.913 46.3445 149.941 46.2957 149.977 46.2537C150.014 46.2127 150.061 46.1804 150.112 46.1592C150.164 46.138 150.219 46.1283 150.275 46.1308C150.329 46.129 150.382 46.1391 150.431 46.1603C150.481 46.1816 150.525 46.2135 150.56 46.2537C150.597 46.2949 150.624 46.3441 150.638 46.3974C150.653 46.4507 150.655 46.5067 150.644 46.5609L150.534 47.535C150.534 47.5613 150.534 47.5789 150.534 47.5876C150.534 47.5876 150.569 47.5876 150.595 47.5876L151.398 47.0084C151.442 46.973 151.493 46.9473 151.547 46.9329C151.602 46.9186 151.659 46.9159 151.714 46.9251C151.768 46.9358 151.819 46.9588 151.862 46.9923C151.905 47.0258 151.94 47.0688 151.964 47.1181C152 47.1676 152.023 47.2253 152.031 47.2858C152.038 47.3464 152.031 47.4079 152.008 47.4648C151.96 47.5604 151.879 47.6354 151.78 47.6754L150.881 48.0791C150.854 48.0791 150.841 48.0923 150.841 48.1186C150.841 48.1186 150.841 48.1449 150.881 48.1537L151.78 48.5618C151.833 48.5818 151.882 48.6134 151.921 48.6544C151.96 48.6954 151.99 48.7447 152.008 48.7987C152.027 48.8518 152.032 48.9085 152.025 48.9642C152.017 49.0198 151.997 49.0729 151.964 49.119C151.941 49.1681 151.906 49.2109 151.862 49.2437C151.819 49.2765 151.768 49.2985 151.714 49.3077C151.66 49.3191 151.604 49.3191 151.549 49.3078C151.495 49.2964 151.444 49.274 151.398 49.2419L150.591 48.6627C150.565 48.6627 150.547 48.6627 150.53 48.6627C150.512 48.6627 150.53 48.689 150.53 48.711L150.639 49.6895C150.649 49.7443 150.646 49.8008 150.63 49.8542C150.614 49.9076 150.586 49.9564 150.547 49.9966C150.508 50.0346 150.461 50.064 150.409 50.0828C150.358 50.1017 150.303 50.1097 150.249 50.1063Z" fill="white"/>
<path d="M155.571 50.1063C155.518 50.1084 155.465 50.0984 155.417 50.0772C155.368 50.0559 155.325 50.0238 155.291 49.9835C155.255 49.9411 155.229 49.8921 155.213 49.8393C155.197 49.7865 155.192 49.7311 155.198 49.6763L155.312 48.6978C155.312 48.6758 155.312 48.6583 155.312 48.6495C155.303 48.6437 155.293 48.6405 155.282 48.6405C155.271 48.6405 155.26 48.6437 155.251 48.6495L154.448 49.2287C154.406 49.2637 154.356 49.2888 154.303 49.3025C154.25 49.3161 154.195 49.3179 154.141 49.3077C154.086 49.2978 154.033 49.2757 153.988 49.2431C153.942 49.2104 153.905 49.1681 153.878 49.119C153.843 49.0692 153.821 49.0113 153.814 48.9507C153.807 48.8902 153.815 48.8289 153.838 48.7724C153.86 48.7238 153.892 48.6802 153.931 48.644C153.97 48.6078 154.016 48.5798 154.066 48.5618L154.966 48.1537C154.992 48.1537 155.005 48.1537 155.005 48.1186C155.005 48.0835 155.005 48.0879 154.966 48.0791L154.066 47.6754C154.013 47.6554 153.966 47.6237 153.927 47.5826C153.888 47.5416 153.859 47.4923 153.842 47.4384C153.827 47.3854 153.821 47.3297 153.827 47.2747C153.833 47.2197 153.851 47.1664 153.878 47.1181C153.905 47.0692 153.943 47.0267 153.989 46.9934C154.034 46.9602 154.086 46.9369 154.141 46.925C154.248 46.9096 154.358 46.9346 154.448 46.9952L155.251 47.5876C155.26 47.5935 155.271 47.5966 155.282 47.5966C155.293 47.5966 155.303 47.5935 155.312 47.5876C155.312 47.5876 155.312 47.5613 155.312 47.535L155.198 46.5608C155.192 46.5054 155.198 46.4493 155.216 46.3963C155.233 46.3433 155.262 46.2947 155.299 46.2537C155.336 46.2128 155.382 46.1805 155.433 46.1593C155.483 46.138 155.538 46.1283 155.593 46.1308C155.649 46.1291 155.704 46.1399 155.754 46.1624C155.805 46.1848 155.849 46.2184 155.885 46.2605C155.921 46.3027 155.947 46.3523 155.961 46.4058C155.975 46.4593 155.977 46.5153 155.966 46.5696L155.857 47.5437C155.857 47.5701 155.857 47.5876 155.857 47.5964C155.866 47.6023 155.876 47.6054 155.887 47.6054C155.898 47.6054 155.909 47.6023 155.918 47.5964L156.721 47.0172C156.765 46.9823 156.816 46.9568 156.87 46.9425C156.925 46.9282 156.981 46.9252 157.037 46.9338C157.091 46.9445 157.142 46.9675 157.186 47.001C157.231 47.0344 157.266 47.0775 157.291 47.1269C157.326 47.1769 157.348 47.2345 157.356 47.2948C157.364 47.3552 157.356 47.4165 157.335 47.4735C157.287 47.5692 157.206 47.6441 157.107 47.6842L156.203 48.0879C156.181 48.0879 156.168 48.0879 156.168 48.1273C156.168 48.1668 156.168 48.1537 156.203 48.1625L157.107 48.5705C157.16 48.5911 157.208 48.6229 157.247 48.6638C157.287 48.7047 157.317 48.7538 157.335 48.8075C157.353 48.8607 157.358 48.9172 157.35 48.9727C157.343 49.0282 157.323 49.0813 157.291 49.1278C157.267 49.1772 157.231 49.2201 157.187 49.2529C157.143 49.2857 157.091 49.3075 157.037 49.3165C156.983 49.3273 156.927 49.3271 156.872 49.3158C156.818 49.3045 156.767 49.2823 156.721 49.2507L155.918 48.6583C155.909 48.6524 155.898 48.6493 155.887 48.6493C155.876 48.6493 155.866 48.6524 155.857 48.6583C155.851 48.6652 155.848 48.6737 155.848 48.6824C155.848 48.6912 155.851 48.6996 155.857 48.7066L155.966 49.6851C155.976 49.7399 155.973 49.7964 155.957 49.8498C155.941 49.9032 155.913 49.952 155.874 49.9922C155.835 50.0316 155.787 50.062 155.735 50.0817C155.683 50.1014 155.627 50.1098 155.571 50.1063Z" fill="white"/>
<path d="M160.889 50.1063C160.837 50.1084 160.785 50.0984 160.737 50.0771C160.689 50.0558 160.647 50.0237 160.613 49.9835C160.578 49.9411 160.551 49.8921 160.535 49.8393C160.52 49.7865 160.515 49.7311 160.521 49.6763L160.631 48.6978C160.631 48.6758 160.631 48.6583 160.631 48.6495C160.631 48.6407 160.595 48.6495 160.569 48.6495L159.766 49.2287C159.724 49.2639 159.675 49.2893 159.621 49.3029C159.568 49.3166 159.513 49.3182 159.459 49.3077C159.348 49.276 159.255 49.2021 159.198 49.102C159.141 49.0018 159.126 48.8835 159.156 48.7724C159.205 48.6912 159.279 48.6281 159.367 48.5925L160.271 48.1844C160.293 48.1844 160.306 48.1844 160.306 48.1493C160.306 48.1142 160.306 48.1186 160.271 48.1098L159.367 47.7061C159.315 47.6848 159.268 47.6526 159.229 47.6118C159.191 47.5709 159.161 47.5223 159.143 47.4691C159.115 47.3612 159.129 47.2467 159.182 47.1488C159.21 47.1004 159.247 47.0582 159.292 47.0249C159.336 46.9917 159.387 46.9681 159.441 46.9558C159.549 46.9376 159.659 46.9628 159.749 47.026L160.552 47.6183C160.578 47.6183 160.6 47.6183 160.613 47.6183C160.626 47.6183 160.613 47.592 160.613 47.5657L160.503 46.5916C160.497 46.5364 160.502 46.4805 160.518 46.4276C160.535 46.3746 160.563 46.3258 160.6 46.2844C160.638 46.2434 160.684 46.2111 160.735 46.1899C160.787 46.1687 160.842 46.159 160.898 46.1615C160.952 46.1597 161.005 46.1698 161.055 46.191C161.104 46.2123 161.148 46.2442 161.183 46.2844C161.22 46.3256 161.247 46.3748 161.261 46.4281C161.276 46.4814 161.278 46.5374 161.267 46.5916L161.157 47.5657C161.157 47.592 161.157 47.6096 161.157 47.6183C161.157 47.6183 161.192 47.6183 161.218 47.6183L162.021 47.0391C162.065 47.0037 162.116 46.978 162.171 46.9636C162.225 46.9493 162.282 46.9466 162.337 46.9558C162.391 46.9665 162.442 46.9895 162.485 47.023C162.529 47.0565 162.564 47.0995 162.588 47.1488C162.622 47.1988 162.644 47.2564 162.652 47.3168C162.66 47.3771 162.653 47.4384 162.631 47.4955C162.584 47.5911 162.502 47.666 162.403 47.7061L161.504 48.1098C161.477 48.1098 161.464 48.123 161.464 48.1493C161.464 48.1493 161.464 48.1756 161.504 48.1844L162.438 48.5925C162.492 48.6125 162.54 48.6441 162.579 48.6851C162.619 48.7261 162.649 48.7754 162.667 48.8294C162.685 48.8825 162.691 48.9392 162.683 48.9949C162.675 49.0505 162.655 49.1036 162.623 49.1497C162.599 49.1988 162.564 49.2416 162.52 49.2744C162.477 49.3072 162.426 49.3292 162.373 49.3384C162.318 49.3498 162.262 49.3498 162.208 49.3385C162.153 49.3271 162.102 49.3047 162.057 49.2726L161.254 48.6802C161.227 48.6802 161.21 48.6802 161.192 48.6802C161.175 48.6802 161.192 48.7066 161.192 48.7285L161.302 49.707C161.312 49.7618 161.309 49.8183 161.293 49.8717C161.277 49.9251 161.248 49.974 161.21 50.0142C161.166 50.052 161.115 50.0798 161.06 50.0957C161.004 50.1116 160.946 50.1152 160.889 50.1063Z" fill="white"/>
<path d="M166.212 50.1063C166.159 50.1087 166.106 50.0989 166.057 50.0776C166.009 50.0563 165.966 50.0241 165.931 49.9834C165.896 49.9411 165.87 49.8921 165.854 49.8393C165.838 49.7865 165.833 49.7311 165.839 49.6763L165.953 48.6978C165.953 48.6758 165.953 48.6583 165.953 48.6495C165.944 48.6436 165.933 48.6405 165.923 48.6405C165.912 48.6405 165.901 48.6436 165.892 48.6495L165.071 49.2419C165.003 49.2873 164.923 49.311 164.841 49.3096C164.759 49.3083 164.679 49.2821 164.613 49.2345C164.546 49.1869 164.495 49.1201 164.468 49.043C164.44 48.966 164.436 48.8823 164.457 48.8031C164.506 48.7066 164.589 48.6316 164.69 48.5925L165.589 48.1844C165.615 48.1844 165.624 48.1844 165.624 48.1493C165.624 48.1142 165.624 48.1185 165.589 48.1098L164.69 47.7061C164.637 47.6861 164.589 47.6544 164.55 47.6133C164.512 47.5723 164.483 47.523 164.466 47.4691C164.449 47.4163 164.443 47.3604 164.449 47.3052C164.455 47.25 164.473 47.1967 164.501 47.1488C164.528 47.1004 164.565 47.0582 164.61 47.0249C164.654 46.9917 164.705 46.9681 164.76 46.9557C164.869 46.9392 164.98 46.9642 165.071 47.0259L165.874 47.6183C165.883 47.6242 165.894 47.6273 165.905 47.6273C165.916 47.6273 165.927 47.6242 165.936 47.6183C165.936 47.6183 165.936 47.592 165.936 47.5657L165.822 46.5915C165.816 46.5361 165.821 46.48 165.839 46.427C165.856 46.374 165.885 46.3254 165.923 46.2844C165.959 46.2435 166.005 46.2112 166.056 46.19C166.107 46.1687 166.161 46.159 166.217 46.1615C166.272 46.1598 166.327 46.1706 166.377 46.1931C166.428 46.2155 166.473 46.2491 166.509 46.2912C166.544 46.3334 166.57 46.383 166.584 46.4365C166.598 46.49 166.6 46.546 166.589 46.6003L166.475 47.5744C166.475 47.6008 166.475 47.6183 166.475 47.6271C166.485 47.633 166.495 47.6361 166.506 47.6361C166.517 47.6361 166.528 47.633 166.537 47.6271L167.34 47.0479C167.384 47.013 167.435 46.9875 167.489 46.9732C167.543 46.9589 167.6 46.9559 167.656 46.9645C167.71 46.9752 167.761 46.9982 167.805 47.0317C167.849 47.0651 167.885 47.1082 167.91 47.1576C167.945 47.2075 167.967 47.2652 167.975 47.3255C167.982 47.3859 167.975 47.4472 167.954 47.5042C167.905 47.6007 167.822 47.6757 167.722 47.7149L166.822 48.1186C166.796 48.1186 166.787 48.1186 166.787 48.158C166.787 48.1975 166.787 48.1844 166.822 48.1931L167.722 48.6012C167.776 48.6209 167.824 48.6524 167.865 48.6934C167.905 48.7344 167.935 48.7839 167.954 48.8382C167.972 48.8914 167.977 48.9479 167.969 49.0034C167.962 49.0589 167.941 49.112 167.91 49.1585C167.886 49.2079 167.85 49.2508 167.806 49.2836C167.762 49.3164 167.71 49.3382 167.656 49.3472C167.601 49.358 167.545 49.3578 167.491 49.3465C167.437 49.3351 167.385 49.313 167.34 49.2814L166.537 48.689C166.528 48.6831 166.517 48.68 166.506 48.68C166.495 48.68 166.485 48.6831 166.475 48.689C166.475 48.689 166.475 48.7153 166.475 48.7373L166.589 49.7158C166.6 49.7706 166.597 49.8271 166.581 49.8805C166.565 49.9339 166.536 49.9827 166.497 50.0229C166.417 50.0868 166.314 50.1167 166.212 50.1063Z" fill="#67ACFF"/>
</svg>
