<svg width="173" height="46" viewBox="0 0 173 46" fill="none" xmlns="http://www.w3.org/2000/svg">
<path d="M0 0H173V30C173 38.8366 165.837 46 157 46H16C7.16344 46 0 38.8366 0 30V0Z" fill="white"/>
<path d="M34 5C30.4397 5 26.9594 6.05581 23.9992 8.03391C21.039 10.012 18.7319 12.8235 17.3697 16.1129C16.0075 19.4023 15.6513 23.0217 16.3463 26.5135C17.0412 30.0053 18.7561 33.2126 21.2739 35.7298C23.7918 38.2469 26.9996 39.9608 30.4916 40.6548C33.9836 41.3487 37.6029 40.9915 40.8919 39.6283C44.1809 38.2652 46.9917 35.9572 48.969 32.9965C50.9462 30.0357 52.001 26.5551 52 22.9948C52 20.6312 51.5344 18.2908 50.6297 16.1073C49.7251 13.9237 48.3991 11.9397 46.7276 10.2687C45.0561 8.59767 43.0717 7.27229 40.8879 6.36828C38.7041 5.46426 36.3635 4.99932 34 5ZM30.5208 24.0312C30.5208 27.8854 28.6771 29.6458 25.1771 29.6458C22.3021 29.6458 20.7448 28.6302 20.7448 26.974C20.7448 25.4427 22.0521 24.8229 22.1146 24.8906C22.3986 25.27 22.7674 25.5778 23.1915 25.7894C23.6156 26.001 24.0833 26.1106 24.5573 26.1094C25.8229 26.1094 26.3594 25.5521 26.3594 23.9583V17.7812C26.3594 16.4948 26.9792 15.8542 28.1198 15.8542H28.7188C29.901 15.8542 30.5208 16.4948 30.5208 17.7812V24.0312ZM35.9219 27.5365C35.9219 28.9635 35.1979 29.4583 34.1823 29.4583H33.7708C32.6927 29.4583 31.9479 29.0052 31.9479 27.5365V20.9062C31.9479 19.4583 32.7135 18.9792 33.7292 18.9792H34.1406C35.2188 18.9792 35.9219 19.4167 35.9219 20.9062V27.5365ZM33.9792 17.9219C32.651 17.9219 31.8125 17.1979 31.8125 16.0417C31.8125 14.8854 32.6198 14.1771 33.8958 14.1771C35.1719 14.1771 36.0469 14.8802 36.0469 16.0417C36.0469 17.2031 35.2604 17.9219 33.9792 17.9219ZM42.6042 29.6458C39.1875 29.6458 37.0156 27.5625 37.0156 24.2396C37.0156 21.0312 39.2708 18.875 42.6667 18.875C46.0625 18.875 48.2396 21.0469 48.2396 24.2604C48.2396 27.474 46 29.6458 42.6042 29.6458ZM42.6042 21.901C42.3005 21.8962 41.9991 21.9541 41.7188 22.0713C41.4386 22.1885 41.1856 22.3623 40.9758 22.5819C40.766 22.8015 40.6038 23.0621 40.4996 23.3474C40.3953 23.6327 40.3511 23.9364 40.3698 24.2396C40.3465 24.545 40.3873 24.8519 40.4896 25.1407C40.5919 25.4294 40.7534 25.6936 40.9638 25.9162C41.1742 26.1389 41.4288 26.3151 41.7113 26.4335C41.9938 26.552 42.2979 26.6101 42.6042 26.6042C42.9077 26.606 43.2084 26.5458 43.4878 26.4273C43.7672 26.3088 44.0195 26.1345 44.2292 25.9151C44.4389 25.6956 44.6015 25.4357 44.7072 25.1512C44.8129 24.8666 44.8594 24.5635 44.8437 24.2604C44.8646 23.9571 44.8225 23.6527 44.7202 23.3664C44.6179 23.0801 44.4576 22.818 44.2493 22.5965C44.041 22.375 43.7893 22.1989 43.5097 22.0792C43.2302 21.9596 42.929 21.8989 42.625 21.901H42.6042Z" fill="#133AB7"/>
<path d="M34.0052 5C30.4447 4.99897 26.9639 6.05391 24.003 8.03138C21.0421 10.0088 18.7342 12.82 17.3712 16.1093C16.0082 19.3986 15.6513 23.0182 16.3456 26.5103C17.04 30.0025 18.7544 33.2103 21.2721 35.7279C23.7897 38.2456 26.9975 39.96 30.4897 40.6544C33.9818 41.3487 37.6014 40.9918 40.8907 39.6288C44.18 38.2658 46.9912 35.9579 48.9686 32.997C50.9461 30.0361 52.001 26.5553 52 22.9948C52 20.6317 51.5345 18.2917 50.6302 16.1085C49.7259 13.9253 48.4004 11.9415 46.7294 10.2706C45.0585 8.59958 43.0747 7.2741 40.8915 6.36977C38.7083 5.46545 36.3683 5 34.0052 5Z" fill="#03007F"/>
<path d="M28.724 15.8383H28.1198C26.9844 15.8383 26.3594 16.479 26.3594 17.7654V23.9738C26.3594 25.5675 25.8385 26.1248 24.5573 26.1248C24.0833 26.126 23.6156 26.0164 23.1915 25.8048C22.7674 25.5932 22.3986 25.2855 22.1146 24.906C22.0521 24.8227 20.75 25.4269 20.75 26.9894C20.75 28.6508 22.3125 29.6613 25.1823 29.6613C28.6823 29.6613 30.5208 27.9008 30.5208 24.0519V17.8019C30.5208 16.4946 29.901 15.8383 28.724 15.8383ZM34.1458 18.9633H33.7292C32.6875 18.9633 31.9479 19.4425 31.9479 20.8904V27.5363C31.9479 29.005 32.6927 29.4633 33.7708 29.4633H34.1875C35.1979 29.4633 35.9271 28.9425 35.9271 27.5363V20.906C35.9271 19.4165 35.2187 18.9633 34.1458 18.9633ZM33.8958 14.1769C32.6094 14.1769 31.8125 14.9008 31.8125 16.0415C31.8125 17.1821 32.651 17.9217 33.9792 17.9217C35.3073 17.9217 36.0625 17.1977 36.0625 16.0363C36.0625 14.8748 35.2396 14.1769 33.8958 14.1769ZM42.6458 18.8644C39.2708 18.88 37.0208 21.0467 37.0208 24.2446C37.0208 27.4425 39.1927 29.6456 42.6094 29.6456C46.026 29.6456 48.2448 27.5623 48.2448 24.2602C48.2448 20.9581 46.026 18.88 42.6667 18.88L42.6458 18.8644ZM42.6042 26.5883C42.2984 26.5942 41.9947 26.5363 41.7126 26.4181C41.4305 26.2999 41.1762 26.1242 40.9659 25.9021C40.7556 25.6801 40.5939 25.4166 40.4913 25.1284C40.3886 24.8403 40.3473 24.534 40.3698 24.229C40.3552 23.9261 40.4022 23.6235 40.508 23.3393C40.6138 23.0552 40.7763 22.7955 40.9854 22.576C41.1946 22.3565 41.4461 22.1818 41.7248 22.0624C42.0035 21.943 42.3036 21.8814 42.6068 21.8814C42.91 21.8814 43.21 21.943 43.4887 22.0624C43.7674 22.1818 44.019 22.3565 44.2281 22.576C44.4373 22.7955 44.5997 23.0552 44.7055 23.3393C44.8113 23.6235 44.8584 23.9261 44.8437 24.229C44.8637 24.5329 44.8211 24.8376 44.7187 25.1244C44.6163 25.4112 44.4562 25.674 44.2483 25.8966C44.0404 26.1191 43.7891 26.2967 43.5099 26.4184C43.2307 26.54 42.9295 26.6032 42.625 26.604L42.6042 26.5883Z" fill="white"/>
<path d="M67.04 19.888C67.008 19.472 66.8267 19.1573 66.496 18.944C66.176 18.7307 65.6907 18.624 65.04 18.624C64.528 18.624 64.1067 18.72 63.776 18.912C63.456 19.104 63.296 19.376 63.296 19.728C63.296 19.9627 63.3333 20.1547 63.408 20.304C63.4827 20.4427 63.616 20.5653 63.808 20.672C64.0107 20.768 64.304 20.8693 64.688 20.976L66.208 21.376C66.9653 21.5787 67.5893 21.792 68.08 22.016C68.5813 22.2293 69.0027 22.5547 69.344 22.992C69.6853 23.4187 69.856 23.984 69.856 24.688C69.856 25.4027 69.6747 26.0267 69.312 26.56C68.9493 27.0933 68.416 27.5093 67.712 27.808C67.0187 28.1067 66.1867 28.256 65.216 28.256C64.384 28.256 63.6107 28.1387 62.896 27.904C62.192 27.6587 61.616 27.28 61.168 26.768C60.7307 26.2453 60.512 25.6 60.512 24.832V24.752H62.96V24.784C62.96 25.328 63.184 25.7227 63.632 25.968C64.0907 26.2027 64.6667 26.32 65.36 26.32C65.9467 26.32 66.4373 26.2187 66.832 26.016C67.2267 25.8027 67.424 25.488 67.424 25.072C67.424 24.7093 67.28 24.4107 66.992 24.176C66.704 23.9413 66.2187 23.7333 65.536 23.552L63.344 22.96C61.7013 22.5227 60.88 21.552 60.88 20.048C60.88 19.3333 61.072 18.7253 61.456 18.224C61.8507 17.712 62.368 17.328 63.008 17.072C63.6587 16.816 64.368 16.688 65.136 16.688C65.9467 16.688 66.6773 16.8053 67.328 17.04C67.9787 17.264 68.496 17.616 68.88 18.096C69.2747 18.576 69.472 19.1733 69.472 19.888H67.04ZM79.031 24.416H73.223C73.255 25.12 73.4417 25.648 73.783 26C74.1243 26.3413 74.615 26.512 75.255 26.512C75.6923 26.512 76.055 26.4267 76.343 26.256C76.631 26.0853 76.807 25.8667 76.871 25.6H78.887C78.663 26.4533 78.2257 27.104 77.575 27.552C76.935 28 76.1243 28.224 75.143 28.224C74.2897 28.224 73.5483 28.048 72.919 27.696C72.2897 27.3333 71.8043 26.8267 71.463 26.176C71.1323 25.5147 70.967 24.7467 70.967 23.872C70.967 23.0507 71.1377 22.3093 71.479 21.648C71.831 20.976 72.3163 20.4533 72.935 20.08C73.5643 19.696 74.279 19.504 75.079 19.504C75.9323 19.504 76.6523 19.7013 77.239 20.096C77.8363 20.48 78.2843 21.0133 78.583 21.696C78.8923 22.3787 79.047 23.152 79.047 24.016L79.031 24.416ZM76.775 22.976C76.6683 21.8027 76.0923 21.216 75.047 21.216C74.5243 21.216 74.103 21.3707 73.783 21.68C73.4737 21.9893 73.287 22.4213 73.223 22.976H76.775ZM85.8646 21.712C85.79 21.6907 85.694 21.6747 85.5766 21.664C85.4593 21.6427 85.3206 21.632 85.1606 21.632C84.4033 21.632 83.8326 21.872 83.4486 22.352C83.0753 22.832 82.8886 23.472 82.8886 24.272V28H80.6166V19.728H82.7766V21.264H82.8086C83.0006 20.7307 83.3046 20.304 83.7206 19.984C84.1473 19.664 84.638 19.504 85.1926 19.504C85.4486 19.504 85.6726 19.5307 85.8646 19.584V21.712ZM88.6233 19.728L90.2713 25.36H90.3033L91.9673 19.728H94.2233L91.5193 28H88.9753L86.2393 19.728H88.6233ZM97.9415 17.28C97.9415 17.5253 97.8828 17.744 97.7655 17.936C97.6588 18.128 97.5042 18.2827 97.3015 18.4C97.0988 18.5067 96.8695 18.56 96.6135 18.56C96.3575 18.56 96.1282 18.5067 95.9255 18.4C95.7228 18.2827 95.5628 18.128 95.4455 17.936C95.3388 17.744 95.2855 17.5253 95.2855 17.28C95.2855 17.0347 95.3388 16.816 95.4455 16.624C95.5628 16.432 95.7228 16.2827 95.9255 16.176C96.1282 16.0587 96.3575 16 96.6135 16C96.8695 16 97.0988 16.0587 97.3015 16.176C97.5042 16.2827 97.6588 16.432 97.7655 16.624C97.8828 16.816 97.9415 17.0347 97.9415 17.28ZM97.7495 19.728V28H95.4775V19.728H97.7495ZM105.229 22.384C105.186 22 105.037 21.712 104.781 21.52C104.536 21.328 104.194 21.232 103.757 21.232C103.138 21.232 102.653 21.4613 102.301 21.92C101.96 22.3787 101.789 23.008 101.789 23.808C101.789 24.64 101.949 25.296 102.269 25.776C102.6 26.256 103.08 26.496 103.709 26.496C104.157 26.496 104.514 26.384 104.781 26.16C105.058 25.936 105.224 25.6 105.277 25.152H107.469C107.394 25.8027 107.186 26.3573 106.845 26.816C106.504 27.2747 106.056 27.6267 105.501 27.872C104.946 28.1067 104.306 28.224 103.581 28.224C102.738 28.224 102.008 28.0427 101.389 27.68C100.781 27.3067 100.317 26.7947 99.9969 26.144C99.6769 25.4933 99.5169 24.7573 99.5169 23.936C99.5169 23.04 99.6982 22.2613 100.061 21.6C100.424 20.928 100.925 20.4107 101.565 20.048C102.216 19.6853 102.957 19.504 103.789 19.504C104.482 19.504 105.096 19.6213 105.629 19.856C106.162 20.0907 106.584 20.4267 106.893 20.864C107.213 21.2907 107.389 21.7973 107.421 22.384H105.229ZM116.703 24.416H110.895C110.927 25.12 111.114 25.648 111.455 26C111.796 26.3413 112.287 26.512 112.927 26.512C113.364 26.512 113.727 26.4267 114.015 26.256C114.303 26.0853 114.479 25.8667 114.543 25.6H116.559C116.335 26.4533 115.898 27.104 115.247 27.552C114.607 28 113.796 28.224 112.815 28.224C111.962 28.224 111.22 28.048 110.591 27.696C109.962 27.3333 109.476 26.8267 109.135 26.176C108.804 25.5147 108.639 24.7467 108.639 23.872C108.639 23.0507 108.81 22.3093 109.151 21.648C109.503 20.976 109.988 20.4533 110.607 20.08C111.236 19.696 111.951 19.504 112.751 19.504C113.604 19.504 114.324 19.7013 114.911 20.096C115.508 20.48 115.956 21.0133 116.255 21.696C116.564 22.3787 116.719 23.152 116.719 24.016L116.703 24.416ZM114.447 22.976C114.34 21.8027 113.764 21.216 112.719 21.216C112.196 21.216 111.775 21.3707 111.455 21.68C111.146 21.9893 110.959 22.4213 110.895 22.976H114.447ZM123.329 16.944C124.342 16.944 125.227 17.1627 125.985 17.6C126.753 18.0267 127.339 18.6507 127.745 19.472C128.161 20.2933 128.369 21.2747 128.369 22.416C128.369 23.5787 128.166 24.5813 127.761 25.424C127.355 26.256 126.774 26.896 126.017 27.344C125.259 27.7813 124.363 28 123.329 28H118.513V16.944H123.329ZM123.105 25.872C123.627 25.872 124.097 25.76 124.513 25.536C124.929 25.3013 125.254 24.944 125.489 24.464C125.734 23.9733 125.857 23.3547 125.857 22.608C125.857 21.3813 125.59 20.4853 125.057 19.92C124.523 19.3547 123.739 19.072 122.705 19.072H121.025V25.872H123.105ZM137.781 24.416H131.973C132.005 25.12 132.192 25.648 132.533 26C132.874 26.3413 133.365 26.512 134.005 26.512C134.442 26.512 134.805 26.4267 135.093 26.256C135.381 26.0853 135.557 25.8667 135.621 25.6H137.637C137.413 26.4533 136.976 27.104 136.325 27.552C135.685 28 134.874 28.224 133.893 28.224C133.04 28.224 132.298 28.048 131.669 27.696C131.04 27.3333 130.554 26.8267 130.213 26.176C129.882 25.5147 129.717 24.7467 129.717 23.872C129.717 23.0507 129.888 22.3093 130.229 21.648C130.581 20.976 131.066 20.4533 131.685 20.08C132.314 19.696 133.029 19.504 133.829 19.504C134.682 19.504 135.402 19.7013 135.989 20.096C136.586 20.48 137.034 21.0133 137.333 21.696C137.642 22.3787 137.797 23.152 137.797 24.016L137.781 24.416ZM135.525 22.976C135.418 21.8027 134.842 21.216 133.797 21.216C133.274 21.216 132.853 21.3707 132.533 21.68C132.224 21.9893 132.037 22.4213 131.973 22.976H135.525ZM144.087 21.936C144.065 21.616 143.937 21.3867 143.703 21.248C143.468 21.0987 143.127 21.024 142.679 21.024C142.263 21.024 141.948 21.0933 141.735 21.232C141.532 21.36 141.431 21.5467 141.431 21.792C141.431 21.984 141.489 22.144 141.607 22.272C141.724 22.3893 141.895 22.4907 142.119 22.576C142.353 22.6613 142.668 22.7467 143.063 22.832L143.991 23.04C144.833 23.232 145.457 23.5307 145.863 23.936C146.268 24.3307 146.471 24.848 146.471 25.488C146.471 26.128 146.3 26.656 145.959 27.072C145.628 27.4773 145.185 27.7707 144.631 27.952C144.076 28.1333 143.457 28.224 142.775 28.224C142.039 28.224 141.388 28.1227 140.823 27.92C140.257 27.7173 139.809 27.4187 139.479 27.024C139.159 26.6187 138.999 26.1227 138.999 25.536H141.159C141.169 25.9093 141.324 26.1973 141.623 26.4C141.932 26.6027 142.321 26.704 142.791 26.704C143.196 26.704 143.532 26.624 143.799 26.464C144.065 26.304 144.199 26.064 144.199 25.744C144.199 25.4667 144.076 25.2373 143.831 25.056C143.585 24.864 143.196 24.7093 142.663 24.592L141.751 24.384C141.143 24.2453 140.647 24.0747 140.263 23.872C139.889 23.6587 139.612 23.4027 139.431 23.104C139.249 22.8053 139.159 22.4427 139.159 22.016C139.159 21.472 139.308 21.0133 139.607 20.64C139.905 20.2667 140.321 19.984 140.855 19.792C141.388 19.6 142.012 19.504 142.727 19.504C143.815 19.504 144.657 19.712 145.255 20.128C145.863 20.544 146.188 21.1467 146.231 21.936H144.087ZM150.503 22.72H150.535L153.255 19.728H155.911L152.439 23.28C152.737 23.344 153.031 23.504 153.319 23.76C153.607 24.016 153.975 24.4693 154.423 25.12C154.881 25.76 155.495 26.72 156.263 28H153.543C152.956 26.9547 152.54 26.2347 152.295 25.84C152.049 25.4453 151.831 25.168 151.639 25.008C151.457 24.848 151.249 24.768 151.015 24.768L150.503 25.28V28H148.231V16.576H150.503V22.72Z" fill="#000093"/>
</svg>
