<svg width="206" height="105" viewBox="0 0 206 105" fill="none" xmlns="http://www.w3.org/2000/svg">
<path d="M0.505859 103.859L25.9919 103.78L51.4779 103.752L102.45 103.702L153.422 103.752L178.908 103.78L204.394 103.859L178.908 103.934L153.422 103.962L102.45 104.012L51.4779 103.962L25.9919 103.934L0.505859 103.859Z" fill="#263238"/>
<path d="M174.718 101.385H32.1291C28.8992 101.385 26.2832 98.7856 26.2832 95.576V5.80916C26.2832 2.5995 28.8992 -0.00012207 32.1291 -0.00012207H174.718C177.948 -0.00012207 180.564 2.5995 180.564 5.80916V95.576C180.564 98.7817 177.948 101.385 174.718 101.385Z" fill="#A5A5A5"/>
<path d="M180.263 103.706H27.3946C23.4505 103.706 20.2527 100.528 20.2527 96.6088V94.8345H187.401V96.6088C187.405 100.532 184.207 103.706 180.263 103.706Z" fill="#A5A5A5"/>
<path d="M175.99 4.0271H30.4238V89.6433H175.99V4.0271Z" fill="#676F73"/>
<path d="M88.2129 93.8856L90.2873 97.163H119.477L121.403 93.8856H88.2129Z" fill="#676F73"/>
<path d="M171.978 89.372H34.7371C34.0108 89.372 33.425 88.7859 33.425 88.0682V8.22946C33.425 7.50779 34.0149 6.92566 34.7371 6.92566H171.978C172.704 6.92566 173.29 7.51177 173.29 8.22946V88.0642C173.294 88.7859 172.704 89.372 171.978 89.372Z" fill="#EBEBEB"/>
<path d="M173.141 89.4917H33.2725L33.4249 13.0858H173.141V89.4917Z" fill="#FAFAFA"/>
<path d="M44.8961 10.1116C44.8961 10.7256 44.3946 11.2201 43.7807 11.2201C43.1628 11.2201 42.6653 10.7217 42.6653 10.1116C42.6653 9.50159 43.1668 9.0032 43.7807 9.0032C44.3946 8.99921 44.8961 9.4976 44.8961 10.1116Z" fill="#676F73"/>
<path d="M38.1232 10.1116C38.1232 10.7256 37.6216 11.2201 37.0077 11.2201C36.3899 11.2201 35.8923 10.7217 35.8923 10.1116C35.8923 9.50159 36.3939 9.0032 37.0077 9.0032C37.6256 8.99921 38.1232 9.4976 38.1232 10.1116Z" fill="#676F73"/>
<path d="M41.3732 10.1116C41.3732 10.7256 40.8716 11.2201 40.2578 11.2201C39.6399 11.2201 39.1423 10.7217 39.1423 10.1116C39.1423 9.50159 39.6439 9.0032 40.2578 9.0032C40.8756 8.99921 41.3732 9.4976 41.3732 10.1116Z" fill="#676F73"/>
<path d="M179.236 93.8856C179.236 93.9414 144.995 93.9852 102.761 93.9852C60.516 93.9852 26.2791 93.9414 26.2791 93.8856C26.2791 93.8297 60.516 93.7859 102.761 93.7859C144.995 93.7859 179.236 93.8297 179.236 93.8856Z" fill="#676F73"/>
<path d="M117.094 31.7748V47.4781H112.629V31.7748C112.629 25.8032 108.064 20.9475 102.45 20.9475C96.835 20.9475 92.2708 25.8032 92.2708 31.7748V47.4781H87.8052V31.7748C87.8052 23.2226 94.3744 16.2677 102.45 16.2677C110.525 16.2677 117.094 23.2226 117.094 31.7748Z" fill="#455A64"/>
<path d="M87.8052 35.8578L92.2708 36.0366V47.4781H87.8052V35.8578Z" fill="#263238"/>
<path d="M117.094 37.0429V47.478H112.628V36.8612L117.094 37.0429Z" fill="#263238"/>
<path d="M122.819 38.5366H82.0833V75.263H122.819V38.5366Z" fill="#FFC903"/>
<path opacity="0.1" d="M122.816 38.5366H102.45V75.263H122.816V38.5366Z" fill="black"/>
<path d="M104.173 58.2448L105.879 66.2838H98.6428L100.349 58.2448C99.3305 57.6047 98.6428 56.4888 98.6428 55.2056C98.6428 53.2016 100.265 51.61 102.261 51.61C104.257 51.61 105.879 53.2016 105.879 55.2056C105.877 56.4888 105.192 57.6047 104.173 58.2448Z" fill="#263238"/>
<path d="M94.3997 92.0539L94.2662 92.7286C94.1153 93.4956 93.3696 93.9944 92.5978 93.8445L52.0796 85.9842L52.7557 82.5356L93.2739 90.3959C94.0457 90.5458 94.5506 91.2898 94.3997 92.0539Z" fill="#FFC903"/>
<path opacity="0.1" d="M52.7585 82.5319L52.0808 85.9818L56.9736 86.9309L57.6513 83.4811L52.7585 82.5319Z" fill="black"/>
<path d="M37.2727 78.144L36.0714 84.2597C35.6478 86.4194 36.144 88.5474 37.2901 90.2429C38.4363 91.9326 40.2324 93.1926 42.4057 93.6136C46.7581 94.4585 50.9713 91.6356 51.8185 87.3162L53.0198 81.2004C53.4434 79.0407 52.9473 76.9127 51.8011 75.2201C50.655 73.5304 48.8589 72.2704 46.6798 71.8494C42.3331 71.0045 38.12 73.8246 37.2727 78.144ZM50.5012 79.6779C50.1443 81.4974 48.5455 82.8094 46.5666 83.1237C48.2786 84.1559 49.2651 85.9667 48.9082 87.7862C48.4294 90.2169 45.7309 91.748 42.8786 91.1944C40.0293 90.6408 38.1084 88.2158 38.5842 85.7851C38.9411 83.9656 40.5399 82.6536 42.5188 82.3394C40.8069 81.31 39.8203 79.4963 40.1772 77.6768C40.656 75.2403 43.3516 73.7179 46.201 74.2715C49.0562 74.8222 50.98 77.2414 50.5012 79.6779Z" fill="#FFC903"/>
<path d="M54.6622 81.2927L53.3738 87.8496C53.3042 88.2043 52.9589 88.4321 52.6049 88.3658L52.2915 88.3052C51.9375 88.236 51.7054 87.8929 51.775 87.5411L53.0634 80.9841C53.133 80.6295 53.4783 80.4017 53.8323 80.468L54.1457 80.5286C54.4997 80.5949 54.7318 80.938 54.6622 81.2927Z" fill="#FFC903"/>
<path d="M56.2636 81.6011L54.9753 88.1581C54.9057 88.5127 54.5604 88.7405 54.2064 88.6742L53.893 88.6137C53.5361 88.5444 53.3069 88.2013 53.3736 87.8495L54.6619 81.2926C54.7316 80.9379 55.0768 80.7102 55.4308 80.7765L55.7442 80.837C56.1011 80.9062 56.3332 81.2494 56.2636 81.6011Z" fill="#FFC903"/>
<path d="M83.5942 87.048L84.8042 87.2816L85.489 83.7984L86.5191 83.9973L86.1622 85.8139L87.3663 86.0475L87.7233 84.2309L88.6344 84.4097L88.0715 87.2816L89.2785 87.5151L89.8443 84.6432L91.1385 84.8941L90.3869 88.732L91.594 88.9655L92.3455 85.1305L93.5729 85.367L92.6096 90.2688L81.8271 88.1783L82.7905 83.2765L84.279 83.5648L83.5942 87.048Z" fill="#FFC903"/>
<path d="M129.426 67.6466C129.426 67.6466 121.525 73.9931 121.519 73.9959C120.002 75.2012 118.693 76.2854 118.069 76.9082C118.066 76.9111 118.06 76.914 118.06 76.9197C117.825 77.1562 117.689 77.3234 117.68 77.4042C117.68 77.4099 117.677 77.4157 117.677 77.4215C117.733 78.1135 127.073 90.4431 127.546 90.766C128.016 91.089 128.976 89.777 128.997 89.01C129.017 88.2401 127.566 81.9312 127.566 81.9312L135.403 75.5155L129.426 67.6466Z" fill="#C95F50"/>
<path d="M123.141 72.6927C123.141 72.6927 121.525 73.9903 121.519 73.9961C120.002 75.2013 118.693 76.2855 118.069 76.9083C118.066 76.9112 118.06 76.9141 118.06 76.9199C117.84 77.1679 117.704 77.3409 117.68 77.4043C117.68 77.4101 117.677 77.4158 117.677 77.4216C117.733 78.1136 127.073 90.4432 127.546 90.7662C128.016 91.0891 128.976 89.7771 128.997 89.0101C129.017 88.2403 127.566 81.9313 127.566 81.9313L129.232 80.6309L123.141 72.6927Z" fill="#BFBFBF"/>
<path d="M127.546 90.7635C127.073 90.4435 117.733 78.111 117.678 77.419C117.651 77.1566 119.381 75.6976 121.519 73.9964C121.542 73.9791 121.566 73.9618 121.586 73.9445L127.703 81.8335L127.563 81.9316C127.563 81.9316 129.014 88.2405 128.994 89.0104C128.976 89.7716 128.016 91.0865 127.546 90.7635Z" fill="#102048"/>
<path d="M127.92 90.2649C126.397 88.1485 120.051 79.7519 118.385 77.7768C118.371 77.7595 118.359 77.7681 118.371 77.7854C119.833 79.9163 126.246 88.2609 127.885 90.2909C127.923 90.3313 127.955 90.3082 127.92 90.2649Z" fill="#F2F2F2"/>
<path d="M128.048 82.6177C127.581 81.6863 126.698 80.778 125.637 80.5935C125.596 80.5848 125.584 80.6454 125.613 80.6656C126.481 81.2797 127.215 81.9112 127.94 82.6926C127.993 82.7474 128.08 82.684 128.048 82.6177Z" fill="#F2F2F2"/>
<path d="M128.138 83.4741C127.67 82.5399 126.788 81.6345 125.726 81.4499C125.686 81.4413 125.674 81.5018 125.703 81.522C126.571 82.1362 127.305 82.7677 128.03 83.5491C128.082 83.6039 128.17 83.5404 128.138 83.4741Z" fill="#F2F2F2"/>
<path d="M128.225 84.3332C127.758 83.399 126.875 82.4936 125.813 82.3091C125.773 82.3004 125.761 82.361 125.79 82.3812C126.658 82.9953 127.392 83.6268 128.117 84.4082C128.17 84.463 128.26 84.3996 128.225 84.3332Z" fill="#F2F2F2"/>
<path d="M133.7 60.0834C133.14 62.8313 121.67 73.7913 121.67 73.7913L129.667 82.9635C129.667 82.9635 145.951 66.8104 145.101 60.7408C144.361 55.4612 136.407 34.2305 136.407 34.2305H127.23C127.233 34.2334 134.252 57.3845 133.7 60.0834Z" fill="#37474F"/>
<path d="M133.7 60.0834C133.14 62.8313 121.67 73.7913 121.67 73.7913L129.667 82.9635C129.667 82.9635 145.951 66.8104 145.101 60.7408C144.361 55.4612 136.407 34.2305 136.407 34.2305H127.23C127.233 34.2334 134.252 57.3845 133.7 60.0834Z" fill="#37474F"/>
<path d="M130.575 80.7838C129.513 79.4689 129.835 79.8323 128.759 78.5289C128.231 77.8917 124.763 73.7078 124.168 73.1975C124.154 73.1859 124.134 73.2032 124.142 73.2205C124.543 73.8924 128.083 78.0186 128.622 78.6443C129.725 79.9245 129.423 79.5468 130.537 80.8155C130.561 80.8415 130.595 80.8097 130.575 80.7838Z" fill="#263238"/>
<path d="M134.841 58.7456C134.71 58.0593 134.559 57.3759 134.414 56.6925C134.115 55.297 133.799 53.9071 133.468 52.5202C132.807 49.7694 132.093 47.033 131.312 44.3139C130.529 41.5862 129.702 38.8614 128.75 36.1855C128.631 35.8539 128.512 35.5252 128.39 35.1965C128.382 35.1706 128.341 35.1821 128.35 35.208C129.174 37.8896 130.024 40.5626 130.799 43.2557C131.568 45.9402 132.281 48.6391 132.955 51.3495C133.291 52.7105 133.605 54.0773 133.912 55.444C134.063 56.1159 134.211 56.7877 134.353 57.4624C134.498 58.1458 134.696 58.8436 134.736 59.5443C134.78 60.2305 134.553 60.8389 134.196 61.4185C133.851 61.9779 133.448 62.5056 133.056 63.0303C132.273 64.0857 124.804 72.3583 124.563 72.5832C124.543 72.6005 124.572 72.6264 124.592 72.6091C125.593 71.7153 131.93 64.8988 132.737 63.8435C133.134 63.3216 133.523 62.791 133.903 62.2576C134.26 61.7588 134.617 61.2484 134.814 60.6602C135.026 60.0373 134.962 59.3857 134.841 58.7456Z" fill="#263238"/>
<path d="M134.82 34.2305L133.155 55.9572C131.565 48.5208 127.233 34.2305 127.233 34.2305H134.82Z" fill="#263238"/>
<path d="M130.886 78.9672C130.886 78.9672 132.868 88.5517 132.868 88.5604C132.894 90.4894 132.952 92.182 133.065 93.0556C133.065 93.0614 133.065 93.0643 133.068 93.0701C133.108 93.3988 133.161 93.6093 133.219 93.6641C133.224 93.6698 133.224 93.6727 133.23 93.6756C133.813 94.0562 149.343 94.2955 149.888 94.1225C150.434 93.9524 149.981 92.3953 149.384 91.908C148.783 91.4207 142.881 88.6872 142.881 88.6872L140.803 79.1084L130.886 78.9672Z" fill="#C95F50"/>
<path d="M149.886 94.1228C149.34 94.2958 133.811 94.0565 133.228 93.6759C133.222 93.673 133.219 93.6672 133.216 93.6644C133.158 93.6096 133.106 93.3991 133.065 93.0704C133.062 93.0646 133.062 93.0588 133.062 93.0559C132.949 92.1851 132.894 90.4926 132.865 88.5636C132.865 88.5607 132.522 86.894 132.522 86.894H142.49L142.878 88.6875C142.878 88.6875 148.783 91.4239 149.384 91.9112C149.976 92.3956 150.434 93.9527 149.886 94.1228Z" fill="#BFBFBF"/>
<path d="M149.886 94.1226C149.34 94.2956 133.811 94.0563 133.227 93.6728C133.001 93.5315 132.905 91.2795 132.868 88.5576C132.868 88.5287 132.868 88.4999 132.868 88.4711L142.887 88.5143L142.881 88.6844C142.881 88.6844 148.783 91.4179 149.384 91.9052C149.976 92.3925 150.431 93.9525 149.886 94.1226Z" fill="#102048"/>
<path d="M149.72 93.5197C147.103 93.4159 136.541 93.24 133.944 93.3352C133.924 93.3352 133.924 93.3496 133.944 93.3525C136.535 93.5111 147.1 93.6033 149.717 93.563C149.775 93.563 149.775 93.5226 149.72 93.5197Z" fill="#F2F2F2"/>
<path d="M143.723 88.7273C142.695 88.5197 141.433 88.6581 140.635 89.3761C140.603 89.4049 140.644 89.4482 140.679 89.4366C141.7 89.1339 142.652 88.9436 143.717 88.8571C143.789 88.8513 143.795 88.7417 143.723 88.7273Z" fill="#F2F2F2"/>
<path d="M144.457 89.1859C143.43 88.9783 142.167 89.1167 141.369 89.8347C141.338 89.8635 141.378 89.9068 141.413 89.8953C142.434 89.5925 143.386 89.4022 144.451 89.3157C144.526 89.307 144.532 89.2004 144.457 89.1859Z" fill="#F2F2F2"/>
<path d="M145.194 89.6415C144.167 89.4339 142.904 89.5723 142.107 90.2903C142.075 90.3191 142.115 90.3624 142.15 90.3508C143.171 90.0481 144.123 89.8578 145.188 89.7713C145.263 89.7655 145.269 89.6559 145.194 89.6415Z" fill="#F2F2F2"/>
<path d="M135.523 34.2336C135.511 34.424 135 36.1713 134.733 38.7837C134.542 40.6926 134.301 42.3794 134.046 42.5899C133.756 42.8263 132.305 43.7519 131.817 44.0489C131.817 44.0489 136.338 57.6702 137.504 62.2088C139.196 68.7917 143.247 88.5375 143.247 88.5375L132.453 88.5346C132.453 88.5346 129.171 69.7346 127.735 63.4688C126.504 58.097 121.792 41.9814 121.792 41.9814C120.077 37.7918 122.172 34.2308 122.172 34.2308C122.172 34.2308 135.526 34.225 135.523 34.2336Z" fill="#37474F"/>
<path d="M142.861 86.45C141.164 86.4414 141.651 86.4212 139.956 86.4298C139.127 86.4356 133.672 86.4702 132.897 86.6115C132.879 86.6144 132.879 86.6432 132.897 86.6461C133.674 86.7614 139.13 86.6317 139.959 86.6086C141.654 86.5654 141.169 86.5596 142.864 86.4991C142.893 86.4991 142.893 86.45 142.861 86.45Z" fill="#263238"/>
<path d="M134.812 42.0508C133.759 42.6015 132.772 43.308 131.835 44.0317C131.797 44.0605 131.835 44.1182 131.876 44.0923C132.885 43.4637 133.918 42.8524 134.89 42.169C134.969 42.1171 134.893 42.0104 134.812 42.0508Z" fill="#263238"/>
<path d="M133.988 34.6403C133.979 34.6028 133.912 34.6057 133.918 34.6461C134.127 35.9205 134.22 37.0566 134.298 38.2648C134.336 38.827 134.365 41.9527 133.364 41.8806C133.196 41.8691 133.088 41.722 133.025 41.4856C132.949 41.2001 133.004 40.8253 133.007 40.5283C133.013 39.8709 133.001 39.2163 132.955 38.5589C132.871 37.3363 132.685 36.1281 132.351 34.9459C132.34 34.9085 132.285 34.92 132.29 34.9604C132.552 36.6328 132.769 38.308 132.778 40.0006C132.781 40.8137 132.566 42.0738 133.422 42.068C134.295 42.0623 134.533 39.9689 134.551 39.4037C134.6 37.8265 134.351 36.1714 133.988 34.6403Z" fill="#263238"/>
<path d="M133.402 41.9585C133.347 42.1776 133.309 42.4025 133.283 42.6274C133.263 42.8004 133.228 42.9907 133.274 43.1637C133.283 43.1955 133.329 43.1926 133.344 43.1666C133.434 43.0051 133.451 42.8033 133.489 42.6245C133.532 42.4169 133.579 42.2093 133.617 42.0017C133.643 41.8633 133.437 41.8229 133.402 41.9585Z" fill="#263238"/>
<path d="M123.327 41.9065C124.433 41.794 124.996 41.745 126.064 41.3932C127.053 41.0674 127.981 40.5282 128.716 39.767C129.113 39.3546 129.496 38.8789 129.731 38.3541C129.74 38.3339 129.775 38.3483 129.766 38.3685C129.592 38.8789 129.38 39.3575 129.046 39.7843C128.713 40.211 128.318 40.583 127.877 40.8915C126.934 41.5547 126.035 41.8949 124.909 42.0305C124.273 42.1054 123.942 42.1083 123.31 42.0045C123.252 41.9959 123.275 41.9122 123.327 41.9065Z" fill="#263238"/>
<path d="M131.202 80.5419C131.173 80.2939 131.139 80.0459 131.104 79.7979C131.037 79.3222 130.956 78.8493 130.883 78.3735C130.735 77.4191 130.57 76.4705 130.402 75.5189C130.062 73.6245 129.673 71.7359 129.258 69.8559C129.026 68.7919 128.753 67.7423 128.469 66.6927C128.449 66.6206 128.344 66.6552 128.359 66.7273C128.533 67.6875 128.701 68.6506 128.898 69.605C129.096 70.5594 129.293 71.5109 129.482 72.4654C129.859 74.354 130.21 76.2456 130.584 78.1313C130.692 78.6648 130.787 79.1982 130.892 79.7316C130.944 79.9969 130.999 80.2622 131.054 80.5275C131.112 80.7927 131.194 81.0522 131.237 81.3175C131.24 81.3435 131.281 81.3319 131.275 81.306C131.234 81.058 131.231 80.7985 131.202 80.5419Z" fill="#263238"/>
<path d="M138.645 66.2889C138.285 64.5098 137.8 62.7509 137.313 61.0035C136.332 57.4828 135.177 54.0141 134.025 50.5482C133.695 49.5505 133.361 48.55 133.03 47.5494C132.865 47.0506 132.049 44.3574 131.948 44.1008C131.936 44.0749 131.899 44.0864 131.904 44.1123C132.137 45.0293 132.459 46.3672 132.728 47.2755C132.995 48.1722 133.286 49.0632 133.567 49.9571C134.118 51.7131 134.678 53.4662 135.215 55.228C136.274 58.7083 137.325 62.1886 138.184 65.7237C138.424 66.7127 138.662 67.7017 138.883 68.6994C139.103 69.6913 139.289 70.6919 139.498 71.6867C139.504 71.7126 139.55 71.7068 139.547 71.678C139.367 69.8672 139.005 68.0737 138.645 66.2889Z" fill="#263238"/>
<path d="M131.933 75.5995C131.339 72.2028 130.628 68.8263 129.839 65.47C129.046 62.0964 128.164 58.7458 127.192 55.4212C126.22 52.0966 125.144 48.8008 123.986 45.5339C123.438 43.9855 122.88 42.4342 122.521 40.831C122.164 39.2451 121.984 37.5295 122.355 35.9292C122.451 35.5226 122.57 35.1247 122.724 34.7383C122.735 34.7124 122.695 34.6893 122.683 34.7152C121.386 37.7198 122.228 41.0098 123.217 43.974C123.76 45.5973 124.337 47.2092 124.871 48.8354C125.419 50.505 125.945 52.1802 126.446 53.8642C127.442 57.2003 128.367 60.5566 129.197 63.936C130.024 67.3154 130.764 70.7179 131.414 74.1376C132.067 77.5689 132.612 81.0146 133.17 84.4603C133.242 84.9102 133.3 85.36 133.358 85.8098C133.361 85.8357 133.402 85.8329 133.399 85.8098C132.978 82.3929 132.525 78.9904 131.933 75.5995Z" fill="#263238"/>
<path d="M131.713 19.9924C132.981 24.603 136.642 30.1709 138.378 30.935C139.895 31.604 146.92 29.0204 149.572 27.3422C150.326 26.8636 147.207 22.5471 146.299 22.847C143.333 23.8302 140.101 25.2835 139.852 25.1998C139.347 25.0297 136.196 21.189 133.903 18.6083C131.335 15.7162 131.208 18.1527 131.713 19.9924Z" fill="#F9B384"/>
<path d="M154.592 23.4437C155.19 23.1958 159.789 23.0487 159.786 22.0597C159.783 21.0678 153.933 21.3446 153.933 21.3446L154.592 23.4437Z" fill="#F9B384"/>
<path d="M145.771 23.559C146.575 22.5671 147.283 21.4945 147.982 21.2984C148.466 21.1629 153.672 21.3849 154.487 21.3359C155.3 21.2869 158.204 21.3618 158.271 22.0711C158.367 23.0746 154.931 23.0631 154.563 23.5763C153.298 25.3439 148.484 27.9591 148.484 27.9591L145.771 23.559Z" fill="#F9B384"/>
<path d="M158.346 22.0857C158.309 21.9012 158.164 21.7455 158.013 21.6388C157.656 21.3908 157.189 21.3707 156.771 21.336C156.138 21.2841 155.494 21.2668 154.861 21.3216C154.847 21.3216 154.847 21.3418 154.861 21.3447C155.337 21.3505 155.813 21.3562 156.289 21.3966C156.716 21.4312 157.168 21.4629 157.58 21.5927C157.766 21.6532 157.949 21.7368 158.076 21.8897C158.164 21.9906 158.219 22.1319 158.175 22.2703C158.036 22.7057 157.171 22.8354 156.771 22.9248C156.248 23.0402 155.706 23.144 155.181 23.2507C155.157 23.2564 155.169 23.291 155.192 23.2853C155.738 23.1786 156.312 23.1353 156.861 23.0373C157.305 22.9565 157.781 22.8672 158.137 22.5759C158.285 22.4548 158.387 22.2847 158.346 22.0857Z" fill="#263238"/>
<path d="M145.572 22.9479L149.689 28.9426C149.689 28.9426 143.3 32.1202 140.862 32.0625C138.538 32.0077 137.694 31.6675 136.963 30.9783C136.51 30.5516 133.922 26.9242 131.815 20.8949C130.045 15.8345 132.663 16.5813 134.998 19.3811C136.162 20.7767 139.885 24.9375 140.07 24.9231C140.256 24.9116 145.572 22.9479 145.572 22.9479Z" fill="#3535F3"/>
<path d="M144.303 23.9227C144.921 24.8108 145.513 25.7162 146.096 26.6244C146.383 27.0714 147.451 28.8879 147.762 29.4012C147.773 29.4214 147.718 29.456 147.704 29.4358C147.382 28.9802 146.218 27.1665 145.939 26.7167C145.371 25.7998 144.811 24.8771 144.277 23.9371C144.268 23.9198 144.291 23.9083 144.303 23.9227Z" fill="#263238"/>
<path opacity="0.1" d="M142.1 31.9126C141.63 32.0164 141.21 32.0741 140.864 32.0654C138.54 32.0106 137.699 31.6704 136.965 30.9812C136.509 30.5574 133.924 26.9271 131.814 20.8979C131.408 19.7329 131.231 18.8766 131.231 18.2826C131.231 18.2249 131.234 18.1701 131.237 18.1182C131.24 18.0634 131.243 18.0144 131.251 17.9625C131.257 17.9193 131.263 17.876 131.272 17.8385C131.318 17.6136 131.405 17.4521 131.527 17.3455C132.955 19.2572 139.715 28.3227 142.1 31.9126Z" fill="black"/>
<path d="M157.227 20.486H141.604V21.3193H157.227V20.486Z" fill="#C7C7C7"/>
<path d="M157.227 20.4856V21.3218H147.738L148.38 20.4856H157.227Z" fill="#A6A6A6"/>
<path d="M149.07 21.3217H159.519L164.957 12.1437H154.508L149.07 21.3217Z" fill="#C7C7C7"/>
<path d="M156.623 16.7255C156.429 17.1494 156.571 17.5963 156.942 17.7232C157.314 17.8501 157.775 17.6079 157.969 17.184C158.164 16.7601 158.022 16.3132 157.65 16.1863C157.279 16.0594 156.818 16.3017 156.623 16.7255Z" fill="white"/>
<path d="M121.174 37.3909C121.212 37.4312 137.53 37.3159 137.678 37.1486C137.884 36.9122 134.019 19.3809 132.322 17.227C131.959 16.7656 130.775 16.6503 129.771 16.7829C129.493 16.8175 129.229 16.8752 128.999 16.9473C128.994 16.9502 128.985 16.953 128.973 16.9559C128.741 17.0338 128.544 17.1289 128.408 17.2385C125.636 19.4847 123.362 27.2584 122.836 29.594C121.966 33.4377 121.037 37.2409 121.174 37.3909Z" fill="#BFBFBF"/>
<path d="M128.796 16.9905C128.796 16.9905 129.861 24.2077 130.111 26.0762C130.36 27.9447 130.122 37.8262 130.122 37.8262L119.883 38.6855C119.883 38.6855 122.03 32.1228 122.05 31.7076C122.05 31.7076 123.748 23.8213 125.5 20.5659C126.791 18.1669 128.796 16.9905 128.796 16.9905Z" fill="#3A6BEA"/>
<path d="M132.206 17.1146C132.206 17.1146 133.587 24.4155 133.712 25.0181C133.837 25.6208 135.606 37.4861 135.606 37.4861L138.169 37.5409L136.776 32.12C136.779 32.1229 133.805 18.2363 132.206 17.1146Z" fill="#3A6BEA"/>
<path d="M131.628 19.4501C130.848 19.5395 129.377 18.464 128.965 17.3222C128.936 17.2443 129.168 16.5033 129.409 15.5892C129.551 15.0356 129.696 14.4128 129.789 13.8361C129.806 13.7179 133.288 15.2864 133.288 15.2864C133.288 15.2864 132.737 16.4398 132.583 17.4461C132.571 17.5298 132.566 17.6105 132.571 17.6855C132.571 17.697 132.571 17.7114 132.571 17.7258C132.571 18.1872 132.464 19.355 131.628 19.4501Z" fill="#F9B384"/>
<path d="M132.571 17.6858C132.568 17.6973 132.571 17.7117 132.568 17.7261C132.452 17.7233 132.328 17.7117 132.194 17.6858C130.058 17.3023 129.919 14.5486 129.916 13.8566C130.549 14.0498 133.288 15.2868 133.288 15.2868C133.288 15.2868 132.737 16.4401 132.583 17.4464C132.574 17.5301 132.568 17.6108 132.571 17.6858Z" fill="#263238"/>
<path d="M129.829 9.24262C129.269 10.4825 129.484 14.2886 130.299 15.2315C131.483 16.6012 133.656 16.9904 134.887 15.5227C136.079 14.1012 135.714 9.14458 134.779 8.26225C133.404 6.96182 130.653 7.41164 129.829 9.24262Z" fill="#F9B384"/>
<path d="M132.65 11.9359C132.647 11.9272 132.63 11.9503 132.632 11.9589C132.653 12.2156 132.635 12.5126 132.406 12.6077C132.4 12.6106 132.4 12.625 132.409 12.6221C132.691 12.5702 132.711 12.1752 132.65 11.9359Z" fill="#263238"/>
<path d="M132.406 11.6793C131.988 11.6678 132 12.4982 132.386 12.5069C132.766 12.5184 132.754 11.688 132.406 11.6793Z" fill="#263238"/>
<path d="M134.24 11.9243C134.243 11.9157 134.26 11.9359 134.26 11.9474C134.254 12.204 134.292 12.4981 134.527 12.5818C134.536 12.5846 134.533 12.5962 134.524 12.5962C134.24 12.5587 134.193 12.1665 134.24 11.9243Z" fill="#263238"/>
<path d="M134.467 11.6535C134.882 11.616 134.925 12.4464 134.54 12.4781C134.162 12.5127 134.119 11.6852 134.467 11.6535Z" fill="#263238"/>
<path d="M132.072 11.3044C132.185 11.2756 132.284 11.2295 132.394 11.1891C132.516 11.143 132.621 11.1199 132.699 11.0074C132.743 10.9469 132.722 10.8431 132.667 10.7969C132.539 10.6874 132.377 10.7076 132.226 10.7566C132.064 10.8114 131.95 10.8921 131.86 11.0363C131.771 11.1747 131.924 11.3448 132.072 11.3044Z" fill="#263238"/>
<path d="M134.785 10.9555C134.669 10.9382 134.565 10.9036 134.452 10.8748C134.324 10.8431 134.22 10.8287 134.13 10.7277C134.08 10.673 134.089 10.5663 134.138 10.5144C134.251 10.3933 134.417 10.3933 134.574 10.4279C134.742 10.4625 134.861 10.5346 134.968 10.6672C135.07 10.7941 134.936 10.9786 134.785 10.9555Z" fill="#263238"/>
<path d="M132.566 14.3118C132.629 14.3724 132.69 14.4531 132.786 14.4589C132.876 14.4646 132.98 14.4243 133.062 14.3897C133.07 14.3868 133.079 14.3954 133.073 14.4041C133.007 14.5021 132.867 14.5655 132.748 14.5482C132.632 14.5281 132.571 14.43 132.542 14.3233C132.536 14.3089 132.557 14.3032 132.566 14.3118Z" fill="#263238"/>
<path d="M132.827 13.5392C132.975 13.7612 133.189 13.8794 133.419 13.9227C133.52 13.9429 133.63 13.9429 133.735 13.9342C133.755 13.9342 133.776 13.9313 133.796 13.9256C133.813 13.9227 133.831 13.9198 133.851 13.9169C133.88 13.9111 133.897 13.8881 133.903 13.8592V13.8564C133.903 13.8477 133.903 13.8391 133.9 13.8304C133.9 13.8304 133.9 13.8304 133.9 13.8275V13.8045C133.903 13.6055 133.88 13.3056 133.88 13.3056C133.953 13.3402 134.327 13.5017 134.318 13.3979C134.257 12.5444 134.188 11.5929 133.947 10.7567C133.941 10.7278 133.897 10.7365 133.9 10.7624C133.926 11.5871 134.098 12.4002 134.138 13.2249C134.019 13.1816 133.825 13.1009 133.72 13.1038C133.691 13.1124 133.776 13.6833 133.767 13.7727C133.767 13.7727 133.767 13.7756 133.764 13.7814C133.43 13.8275 133.178 13.7295 132.85 13.5103C132.833 13.5017 132.812 13.519 132.827 13.5392Z" fill="#263238"/>
<path d="M133.616 13.833C133.616 13.833 133.442 14.0724 133.201 14.1589C133.111 14.1906 133.015 14.205 132.917 14.179C132.711 14.1271 132.702 13.9397 132.74 13.7782C132.769 13.6456 132.83 13.5303 132.83 13.5303C132.83 13.5303 133.134 13.81 133.616 13.833Z" fill="#263238"/>
<path d="M133.204 14.1588C133.114 14.1905 133.018 14.2049 132.92 14.179C132.714 14.1271 132.705 13.9397 132.743 13.7782C132.96 13.8013 133.181 13.9454 133.204 14.1588Z" fill="#E74E80"/>
<path d="M129.511 12.5302C129.511 12.5302 128.585 10.2465 128.902 9.06429C129.044 8.53085 129.847 8.28576 129.847 8.28576C129.847 8.28576 129.734 7.58797 130.439 7.11509C131.185 6.61625 132.726 7.00263 132.726 7.00263C132.726 7.00263 133.979 5.71085 135.32 6.5211C136.66 7.33134 135.459 8.79613 135.459 8.79613C135.459 8.79613 135.865 9.62368 134.481 9.99564C133.135 10.359 130.666 9.38724 130.666 9.38724C130.666 9.38724 130.66 10.7252 130.193 12.0169C130.027 12.4956 129.511 12.5302 129.511 12.5302Z" fill="#263238"/>
<path d="M132.972 7.06272C132.679 6.8753 132.336 6.77149 131.991 6.71671C131.686 6.66769 131.364 6.65327 131.06 6.71094C130.514 6.81186 129.992 7.11462 129.812 7.66536C129.722 7.94217 129.751 8.23051 129.882 8.48714C129.887 8.49867 129.902 8.48714 129.896 8.47561C129.632 8.01426 129.911 7.40585 130.308 7.12039C130.761 6.79744 131.376 6.74554 131.913 6.80898C132.273 6.85223 132.615 6.96468 132.952 7.09155C132.978 7.1002 132.989 7.07425 132.972 7.06272Z" fill="#263238"/>
<path d="M136.233 7.37706C136.178 6.95896 135.876 6.64755 135.511 6.46013C135.093 6.24964 134.603 6.19773 134.144 6.28712C133.677 6.37939 133.253 6.61295 132.899 6.92436C132.891 6.93013 132.902 6.94454 132.911 6.93878C133.555 6.39092 134.457 6.16602 135.264 6.47743C135.624 6.61583 135.966 6.86669 136.082 7.25019C136.187 7.60197 136.085 8.00853 135.876 8.30264C135.618 8.66596 135.209 8.90528 134.803 9.07252C134.794 9.07541 134.797 9.08982 134.809 9.08694C135.2 8.9543 135.575 8.76399 135.856 8.45547C136.12 8.16712 136.286 7.77209 136.233 7.37706Z" fill="#263238"/>
<path d="M134.785 10.1161C134.179 10.2689 133.544 10.2458 132.931 10.1334C132.29 10.0151 131.675 9.81907 131.074 9.56821C130.726 9.42403 130.384 9.26545 130.044 9.09821C130.033 9.09244 130.027 9.10974 130.035 9.11551C130.624 9.47305 131.231 9.79888 131.881 10.0267C132.487 10.2372 133.114 10.3467 133.758 10.3121C134.109 10.2948 134.455 10.2314 134.791 10.1276C134.797 10.1247 134.794 10.1132 134.785 10.1161Z" fill="#263238"/>
<path d="M130.386 12.4347C130.386 12.4347 129.667 11.14 129.084 11.3822C128.5 11.6245 128.953 13.441 129.574 13.7467C130.195 14.0523 130.491 13.4872 130.491 13.4872L130.386 12.4347Z" fill="#F9B384"/>
<path d="M129.226 11.8983C129.214 11.8954 129.211 11.9099 129.22 11.9156C129.655 12.1463 129.85 12.5875 129.969 13.0402C129.852 12.8585 129.678 12.7489 129.435 12.8845C129.423 12.8902 129.432 12.9104 129.443 12.9104C129.632 12.8902 129.763 12.9364 129.873 13.0978C129.951 13.2132 129.998 13.3516 130.047 13.4785C130.064 13.5217 130.14 13.5073 130.128 13.4583C130.128 13.4554 130.125 13.4496 130.125 13.4467C130.204 12.8729 129.841 12.0223 129.226 11.8983Z" fill="#263238"/>
<path d="M126.739 18.6486C122.63 23.2333 119.54 29.6893 119.578 31.206C119.619 32.8784 121.76 38.7664 123.8 41.5345C124.061 41.8892 125.651 41.7421 126.997 41.0039C128.416 40.2283 129.58 38.8442 129.301 38.4319C128.257 36.8835 125.773 30.886 125.796 29.9488C125.816 29.0809 127.851 23.7754 128.625 20.7045C129.368 17.7577 128.651 16.5178 126.739 18.6486Z" fill="#F9B384"/>
<path d="M121.304 41.0847L128.956 37.3708C128.956 37.3708 125.947 30.6986 125.941 29.9777C125.935 29.2568 127.92 23.6139 128.666 21.0073C129.412 18.4007 129.124 15.4711 125.857 19.4128C122.59 23.3544 119.735 29.2136 119.41 30.7735C119.085 32.3335 121.304 41.0847 121.304 41.0847Z" fill="#3535F3"/>
<path d="M126.336 28.0659C126.493 27.57 126.658 27.0769 126.824 26.5867C127.012 26.036 127.207 25.4881 127.413 24.9432C127.613 24.4126 127.836 23.8936 128.048 23.3688C128.063 23.3313 128.129 23.3544 128.118 23.3948C127.862 24.0954 127.624 24.8048 127.389 25.5141C127.569 25.1911 127.749 24.8711 127.941 24.5539C127.955 24.528 127.999 24.5481 127.984 24.577C127.769 24.9691 127.546 25.3526 127.317 25.7361C127.259 25.9062 127.201 26.0793 127.146 26.2494C126.824 27.2009 126.516 28.1582 126.24 29.1242C126.179 29.3404 126.118 29.5624 126.104 29.7874C126.087 30.0469 126.139 30.2948 126.217 30.5428C126.356 30.9897 126.513 31.4309 126.67 31.8692C126.989 32.7515 127.337 33.6252 127.7 34.4902C128.115 35.4735 128.585 36.4481 129.058 37.4083C129.058 37.4083 128.771 37.4833 128.765 37.489C128.756 37.4948 128.742 37.4804 128.75 37.4717C128.756 37.4631 128.93 37.3794 128.936 37.3794C128.457 36.549 128.002 35.733 127.598 34.8593C127.201 33.9972 126.841 33.1148 126.522 32.221C126.356 31.7596 126.197 31.2983 126.052 30.8312C125.907 30.3756 125.822 29.9488 125.924 29.4731C126.014 28.9944 126.188 28.5302 126.336 28.0659Z" fill="#263238"/>
<path d="M121.18 38.9453C121.438 38.7867 121.74 38.68 122.015 38.5532C122.265 38.4378 122.512 38.3196 122.764 38.2072C123.313 37.9621 123.858 37.7141 124.406 37.4719C124.952 37.2297 125.497 36.9846 126.049 36.7481C126.594 36.5117 127.137 36.258 127.694 36.0532C127.714 36.0446 127.729 36.0763 127.711 36.0878C127.204 36.3964 126.661 36.6559 126.13 36.9212C125.605 37.1807 125.071 37.4258 124.534 37.6651C123.989 37.9073 123.434 38.138 122.88 38.36C122.613 38.4667 122.34 38.5647 122.071 38.6656C121.786 38.7694 121.493 38.9078 121.197 38.9742C121.177 38.9742 121.165 38.954 121.18 38.9453Z" fill="#263238"/>
</svg>
